<?xml version="1.0" encoding="UTF-8" standalone="no"?>
<svg
   xmlns:dc="http://purl.org/dc/elements/1.1/"
   xmlns:cc="http://creativecommons.org/ns#"
   xmlns:rdf="http://www.w3.org/1999/02/22-rdf-syntax-ns#"
   xmlns:svg="http://www.w3.org/2000/svg"
   xmlns="http://www.w3.org/2000/svg"
   xmlns:sodipodi="http://sodipodi.sourceforge.net/DTD/sodipodi-0.dtd"
   xmlns:inkscape="http://www.inkscape.org/namespaces/inkscape"
   version="1.1"
   id="svg2"
   xml:space="preserve"
   width="598.52002"
   height="567.56"
   viewBox="0 0 598.52002 567.56"
   sodipodi:docname="5168687.eps"><metadata
     id="metadata8"><rdf:RDF><cc:Work
         rdf:about=""><dc:format>image/svg+xml</dc:format><dc:type
           rdf:resource="http://purl.org/dc/dcmitype/StillImage" /></cc:Work></rdf:RDF></metadata><defs
     id="defs6"><clipPath
       clipPathUnits="userSpaceOnUse"
       id="clipPath62"><path
         d="m 267.719,0 h 4221.17 V 3970.6 H 267.719 Z"
         id="path60" /></clipPath></defs><sodipodi:namedview
     pagecolor="#ffffff"
     bordercolor="#666666"
     borderopacity="1"
     objecttolerance="10"
     gridtolerance="10"
     guidetolerance="10"
     inkscape:pageopacity="0"
     inkscape:pageshadow="2"
     inkscape:window-width="640"
     inkscape:window-height="480"
     id="namedview4" /><g
     id="g10"
     inkscape:groupmode="layer"
     inkscape:label="ink_ext_XXXXXX"
     transform="matrix(1.3333333,0,0,-1.3333333,0,567.56)"><g
       id="g12"
       transform="scale(0.1)"><path
         d="m 1733.18,831.922 c -0.93,0 -1.85,0 -2.78,0 V 1055.8 c 15.66,-15.22 32.77,-29.16 51.19,-41.61 l 31.13,-21.049 c 1.73,-51.61 3.68,-104.629 5.85,-158.68 -28.38,-1.672 -56.85,-2.539 -85.39,-2.539 M 3929.9,1033.9 c -1.5,72.37 -11.16,146.02 -31.51,219.57 -73.43,-60.06 -132.32,-123.4 -179.21,-188.04 0.75,42.75 1.07,83.77 1.07,122.84 -0.01,156.75 -5.24,281.62 -9.44,356.64 0.29,0.04 0.43,0.06 0.44,0.06 l -0.72,4.95 c -2.7,47.17 -4.89,73.23 -4.89,73.23 v 0 l -28.49,465.62 c 0,0 53.65,46.5 53.65,179.05 0,8.84 -0.24,18.06 -0.74,27.67 -1.15,21.57 -4,45.63 -8.07,71.05 l 383.95,-114.74 0.72,2.27 c 7.9,-1.51 15.94,-2.27 24.01,-2.27 27.78,0 55.83,9.07 79.41,28.03 l 2.12,1.7 c 54.29,43.64 63.3,122.87 20.19,177.58 l -430.31,546.18 -83.14,190.58 c -12.09,27.73 -34.89,49.39 -63.2,60.05 -0.11,0.04 -0.22,0.08 -0.33,0.12 v 0 l -61.47,22.94 c -3.46,9.44 -6.01,15.14 -6.77,16.79 -0.16,0.34 -0.24,0.5 -0.24,0.5 v 0 0 c 0,0 -46.97,67.02 -136.84,67.02 -4.91,0 -9.94,-0.2 -15.11,-0.62 -25.19,-2.05 -52.22,-9.06 -78.13,-20.36 12.18,22.02 19.12,47.34 19.12,74.29 0,84.85 -68.79,153.64 -153.64,153.64 -83.66,0 -151.69,-66.85 -153.6,-150.04 0,-0.02 0,-0.01 0,-0.02 -0.01,-0.26 -0.02,-0.52 -0.02,-0.78 0,-0.01 0,-0.01 0,-0.01 0,-0.13 0,-0.25 -0.01,-0.38 0,-0.01 0,-0.03 0,-0.04 0,-0.24 0,-0.5 -0.01,-0.75 0,-0.01 0,-0.03 0,-0.05 0,-0.12 0,-0.24 0,-0.36 0,-0.01 0,-0.03 0,-0.05 0,-0.11 0,-0.22 0,-0.33 0,-0.01 0,-0.03 0,-0.05 0,-0.11 0,-0.24 0,-0.35 0,-0.02 0,-0.05 0,-0.07 0,-0.12 -0.01,-0.24 -0.01,-0.36 v 0 0 0 c 0,-0.12 0.01,-0.23 0.01,-0.34 0,-0.03 0,-0.05 0,-0.08 0,-0.23 0,-0.47 0,-0.7 0,-0.02 0,-0.03 0,-0.04 0.63,-84.32 69.17,-152.48 153.64,-152.48 12.92,0 25.47,1.59 37.46,4.6 -24.67,-33.72 -37.14,-75.01 -27.43,-121.69 14.44,-69.48 76.33,-144.01 127.47,-195.72 -3.54,-34.28 -7.75,-75.11 -12.78,-123.75 0,-0.05 0,-0.11 0,-0.16 l -61.86,-33.34 -164.49,-87.31 C 2984.76,2633.43 2899.78,2492.1 2899.78,2338.2 v -443.03 l -35.54,39.37 c -0.1,0.1 -0.19,0.21 -0.29,0.31 -0.02,0.03 -0.04,0.05 -0.07,0.08 -0.07,0.08 -0.15,0.16 -0.22,0.24 -0.01,0.01 -0.02,0.03 -0.03,0.04 -12.57,13.79 -26.91,25.75 -42.6,35.59 -11.75,105.95 -30.08,266.6 -49.31,417.08 -20.65,161.56 -42.34,311.42 -58.05,369.38 v 0 c -0.01,0.05 -0.03,0.1 -0.04,0.15 -0.01,0.02 -0.01,0.04 -0.02,0.06 -0.03,0.11 -0.06,0.22 -0.09,0.33 0,0 0,0.01 0,0.02 -0.02,0.06 -0.03,0.1 -0.05,0.16 v 0.01 c -0.01,0.06 -0.03,0.12 -0.05,0.18 v 0 0 c -31.59,115.07 -75.55,155.42 -93.11,167.5 -10.56,77.81 -31.79,146.09 -72.18,171.67 -80.47,50.96 -246.44,103.11 -338.71,129.79 -10.08,25.68 -19.57,42.39 -19.57,42.39 l -1.55,-1.18 c 0.21,5.47 0.4,10.68 0.57,15.7 17.94,14.68 46.34,43.26 82.87,97.37 98.61,136.08 -19.98,269.13 -104.65,347.76 -38.58,35.82 -75.28,50.3 -105.39,50.3 v 0 0 c -35.98,0 -62.55,-20.67 -71.72,-50.3 v 0 c -0.08,-0.27 -0.16,-0.53 -0.24,-0.8 -5.42,-17.85 -7.24,-35.44 -7.24,-50.99 -0.01,-31.31 7.33,-54.38 7.48,-54.84 -2.38,-2.26 -4.71,-4.61 -6.98,-7.04 -2.87,0.51 -5.91,0.82 -9.12,0.86 -0.07,0.01 -0.13,0.01 -0.2,0.01 -6.59,0 -11.98,-5.3 -12.09,-11.91 -0.07,-4.6 2.43,-8.64 6.18,-10.74 -30.44,-61.56 -72.84,-248.79 -72.84,-248.79 v 0 0 0 0 0 l 111.89,-75.41 v -47.64 c -40.37,-12.48 -76.72,-28.27 -106.25,-43.03 -33.37,-16.68 -57.01,-46.67 -65.96,-81.34 l -100.96,-38.66 c 0,0 -116.93,-137.09 -116.93,-590.69 v -473.85 c -10.9,57.11 -23.33,124.87 -36.16,199.97 v 0 0 0 c -0.7,4.1 -1.41,8.22 -2.11,12.36 -0.4,2.37 -0.8,4.74 -1.21,7.13 -40.32,238.59 -141.12,317.82 -141.12,317.82 v 0 0 l -85.29,41.84 v 0 l -45.76,22.44 v 0 l -112.88,55.37 -15.64,292.01 12.34,-230.5 c 0,0 0,0 182.72,34.55 52.42,364.9 -86.69,495.94 -239.9,510.05 -10.57,0.97 -20.82,1.45 -30.78,1.45 -133.621,0 -211.692,-85.6 -230.992,-199.18 -0.004,-0.01 -0.004,-0.01 -0.004,-0.02 -0.024,-0.14 -0.051,-0.3 -0.075,-0.44 0,0 -0.004,-0.01 -0.004,-0.02 -0.023,-0.14 -0.05,-0.29 -0.074,-0.43 -0.004,-0.02 -0.004,-0.04 -0.008,-0.06 -0.019,-0.12 -0.039,-0.24 -0.058,-0.36 -0.008,-0.04 -0.016,-0.07 -0.02,-0.11 -0.023,-0.14 -0.047,-0.27 -0.066,-0.41 v 0 0 0 c 0.187,0 0.383,0 0.57,0.01 2.86,0.04 5.754,0.06 8.684,0.06 10.012,0 20.422,-0.25 31.07,-0.7 -0.39,-8.52 -0.855,-19.48 -1.305,-32.24 -0.886,-0.61 -1.769,-1.26 -2.64,-1.94 -5.27,-4.11 -6.215,-11.71 -2.11,-16.98 1.125,-1.44 2.512,-2.56 4.04,-3.34 -1.969,-69.62 -2.579,-172.9 7.472,-240.83 0,-0.02 0.004,-0.02 0.004,-0.03 0.039,-0.26 0.078,-0.52 0.117,-0.78 0,-0.02 0.004,-0.03 0.008,-0.05 0.008,-0.05 0.012,-0.09 0.02,-0.14 0.007,-0.05 0.015,-0.12 0.027,-0.17 0.004,-0.04 0.012,-0.07 0.016,-0.11 0.007,-0.05 0.011,-0.09 0.023,-0.14 0.004,-0.04 0.008,-0.08 0.016,-0.12 0.007,-0.05 0.015,-0.1 0.023,-0.15 0.008,-0.04 0.012,-0.08 0.016,-0.12 0.011,-0.06 0.019,-0.12 0.031,-0.18 0.004,-0.03 0.008,-0.06 0.012,-0.09 0.007,-0.04 0.015,-0.09 0.019,-0.14 0.004,-0.03 0.012,-0.06 0.016,-0.09 0.012,-0.06 0.019,-0.13 0.031,-0.2 0.004,-0.02 0.008,-0.05 0.012,-0.08 0.008,-0.06 0.019,-0.12 0.027,-0.18 0.008,-0.04 0.012,-0.07 0.016,-0.11 0.008,-0.04 0.015,-0.09 0.023,-0.14 0.008,-0.04 0.012,-0.06 0.016,-0.1 0.008,-0.06 0.019,-0.13 0.027,-0.19 0.008,-0.02 0.012,-0.06 0.016,-0.09 0.012,-0.06 0.019,-0.13 0.031,-0.2 l 0.004,-0.01 c 0.012,-0.07 0.023,-0.16 0.035,-0.23 0,-0.02 0.004,-0.03 0.008,-0.05 0.012,-0.08 0.023,-0.16 0.039,-0.24 v -0.01 c 0.012,-0.08 0.023,-0.14 0.035,-0.22 0,-0.01 0.008,-0.04 0.008,-0.06 0.012,-0.07 0.023,-0.15 0.035,-0.22 0.004,-0.01 0.004,-0.03 0.008,-0.04 0.012,-0.08 0.023,-0.16 0.039,-0.24 v -0.01 c 0.027,-0.16 0.055,-0.33 0.082,-0.5 0,-0.01 0,-0.02 0.004,-0.03 0.012,-0.08 0.027,-0.16 0.039,-0.24 v 0 c 0.012,-0.07 0.02,-0.13 0.031,-0.19 0.371,-2.22 0.965,-4.35 1.75,-6.38 3.977,-10.26 12.926,-17.71 23.52,-19.96 2.179,-0.46 4.426,-0.7 6.715,-0.7 1.48,0 2.972,0.1 4.476,0.31 0.051,0 0.098,0.01 0.149,0.02 v 0 l 12.867,1.82 23.637,-81.09 -12.934,-58.01 -69.738,-46.67 c 0,0 -194.625,-62.61 -208.758,-322.74 0,-0.01 0,-0.02 0,-0.04 -0.016,-0.22 -0.028,-0.46 -0.039,-0.69 -0.008,-0.14 -0.016,-0.27 -0.024,-0.41 0,-0.03 0,-0.05 -0.004,-0.08 -0.003,-0.11 -0.011,-0.22 -0.015,-0.33 0,-0.04 -0.004,-0.07 -0.004,-0.11 -0.008,-0.1 -0.012,-0.19 -0.016,-0.29 -0.004,-0.06 -0.008,-0.12 -0.011,-0.18 -0.004,-0.08 -0.008,-0.15 -0.012,-0.23 0,-0.05 -0.004,-0.09 -0.008,-0.14 -0.004,-0.1 -0.008,-0.19 -0.016,-0.29 0,-0.05 -0.004,-0.09 -0.004,-0.13 -0.007,-0.12 -0.011,-0.21 -0.015,-0.32 -0.004,-0.03 -0.004,-0.05 -0.004,-0.07 -0.008,-0.12 -0.012,-0.21 -0.02,-0.32 0,-0.04 -0.003,-0.08 -0.003,-0.12 -0.016,-0.27 -0.028,-0.55 -0.043,-0.83 0,-0.01 0,-0.02 0,-0.03 -0.016,-0.25 -0.028,-0.54 -0.043,-0.79 0,-0.04 0,-0.07 -0.004,-0.11 -13.051,-261.86 28.769,-743.32 28.769,-743.32 l -44.347,-272.66 c -18.731,17.72 -38.582,35.21 -59.645,52.44 -0.516,-1.85 -1.023,-3.72 -1.523,-5.57 -62.11,60.63 -117.18,128.15 -163.082,202.71 -225.321,365.97 -337.332,854.61 -275.719,1288.58 57.918,407.93 300.125,754.48 661.902,908.31 406.862,173.01 878.492,42.46 1275.232,265.63 205.94,115.84 435.72,170.4 666.63,170.4 416.57,0 836.98,-177.44 1128.86,-492.7 402.22,-434.44 543.06,-1176.84 466.4,-1767.38 -38.74,-298.46 -174.07,-593.99 -410.1,-762.11 -13.49,-9.61 -27.24,-18.76 -41.2,-27.44 m -2259.15,96.91 c -5.14,1.1 -10.48,1.68 -15.94,1.68 h -16.26 c -3.87,36.1 -7.83,71.52 -11.85,106.24 8.99,-38.19 23.9,-74.59 44.05,-107.92 m -76.71,1.68 h -108.42 c -1.34,8.27 -2.8,16.35 -4.37,24.19 -2.26,11.33 -4.48,22.35 -6.66,33.08 -66.37,327.41 -91.72,382.22 -91.72,382.22 v 0 0 0 c -5.42,44.68 -9.34,89.49 -11.99,134.04 l 18.06,-29.52 c 27.98,-45.74 76.42,-70.34 125.64,-70.34 5.82,0 11.66,0.35 17.47,1.04 21.38,-134.95 42.3,-292.05 61.99,-474.71 m 22.69,189.51 c -13.1,106.02 -26.94,205.14 -41.51,297.29 10.82,4.93 21.24,11.27 31,19.07 l 2.4,1.92 c 2.8,2.24 5.5,4.57 8.1,6.97 v -322.6 c 0,-0.88 0,-1.77 0.01,-2.65 m 1074.81,293.26 -48.65,38.45 c 7.39,-1 14.88,-1.51 22.42,-1.51 v 0 0 c 7.36,0 14.77,0.49 22.17,1.48 l 4.06,-38.42 m 1144.53,997.03 -209.5,117.15 -56.15,25.18 v 0 l -72.14,32.35 v 122.74 c 0,0 0,0 43.78,0 v 0 c 15.67,0 36.8,0 65.73,0 17.82,79.94 21.03,150.39 17.53,208.49 l 31.21,-41.79 -3,-97.97 c 0,-0.13 -0.01,-0.26 -0.01,-0.39 0,-0.03 0,-0.06 0,-0.09 -0.01,-0.12 -0.01,-0.25 -0.01,-0.37 0,-0.03 0,-0.05 -0.01,-0.08 -1.18,-44.51 10.71,-88.39 34.2,-126.23 l 148.37,-238.99 m -2784.71,72.35 -36.95,53.29 17.64,2.51 27.08,3.84 -7.77,-59.64"
         style="fill:#e1f2d3;fill-opacity:1;fill-rule:nonzero;stroke:none"
         id="path14" /><path
         d="m 3617.89,164.289 c 0,0 -272.58,636.723 280.5,1089.181 149.96,-541.841 -280.5,-1089.181 -280.5,-1089.181"
         style="fill:#689749;fill-opacity:1;fill-rule:nonzero;stroke:none"
         id="path16" /><path
         d="m 3898.39,1253.47 c 0,0 -323.68,-747.501 -280.5,-1089.181 0,0 430.46,547.34 280.5,1089.181"
         style="fill:#7dc254;fill-opacity:1;fill-rule:nonzero;stroke:none"
         id="path18" /><path
         d="m 3509.55,64.3906 c 0,0 34.14,844.9884 881.47,1053.0394 C 4271.58,441.449 3509.55,64.3906 3509.55,64.3906"
         style="fill:#689749;fill-opacity:1;fill-rule:nonzero;stroke:none"
         id="path20" /><path
         d="m 4391.02,1117.44 c 0,0 -749.53,-653.78 -881.47,-1053.0494 0,0 762.03,377.0584 881.47,1053.0494"
         style="fill:#7dc254;fill-opacity:1;fill-rule:nonzero;stroke:none"
         id="path22" /><path
         d="m 3408.62,34.2188 c 0,0 295.87,626.2422 1001.29,512.2502 C 4103.75,74.9297 3408.62,34.2188 3408.62,34.2188"
         style="fill:#689749;fill-opacity:1;fill-rule:nonzero;stroke:none"
         id="path24" /><path
         d="m 4409.91,546.469 c 0,0 -774.16,-253.36 -1001.29,-512.2502 0,0 695.13,40.7109 1001.29,512.2502"
         style="fill:#7dc254;fill-opacity:1;fill-rule:nonzero;stroke:none"
         id="path26" /><path
         d="m 902.992,164.289 c 0,0 272.588,636.723 -280.492,1089.181 C 472.535,711.629 902.992,164.289 902.992,164.289"
         style="fill:#689749;fill-opacity:1;fill-rule:nonzero;stroke:none"
         id="path28" /><path
         d="m 622.5,1253.47 c 0,0 323.672,-747.501 280.492,-1089.181 0,0 -430.457,547.34 -280.492,1089.181"
         style="fill:#7dc254;fill-opacity:1;fill-rule:nonzero;stroke:none"
         id="path30" /><path
         d="m 1011.34,64.3906 c 0,0 -34.149,844.9884 -881.473,1053.0394 C 249.305,441.449 1011.34,64.3906 1011.34,64.3906"
         style="fill:#689749;fill-opacity:1;fill-rule:nonzero;stroke:none"
         id="path32" /><path
         d="m 129.867,1117.43 c 0,0 749.524,-653.77 881.473,-1053.0394 0,0 -762.035,377.0584 -881.473,1053.0394"
         style="fill:#7dc254;fill-opacity:1;fill-rule:nonzero;stroke:none"
         id="path34" /><path
         d="m 1112.27,34.2188 c 0,0 -295.875,626.2422 -1001.293,512.2502 C 417.133,74.9297 1112.27,34.2188 1112.27,34.2188"
         style="fill:#689749;fill-opacity:1;fill-rule:nonzero;stroke:none"
         id="path36" /><path
         d="m 110.977,546.469 c 0,0 774.16,-253.36 1001.293,-512.2502 0,0 -695.137,40.7109 -1001.293,512.2502"
         style="fill:#7dc254;fill-opacity:1;fill-rule:nonzero;stroke:none"
         id="path38" /><path
         d="m 408.813,2969.93 -44.411,90.96 c -17.273,35.39 -25.875,68.48 -25.785,99.32 0.074,30.8 6.985,63.13 20.735,96.99 36.941,91.05 48.207,151.33 33.8,180.84 -9.457,19.37 -23.722,31.46 -42.742,36.26 -19.047,4.79 -39.515,1.84 -61.418,-8.85 -21.074,-10.29 -40.644,-28.45 -58.703,-54.49 -18.078,-26.04 -33.191,-60.81 -45.34,-104.3 L 0,3371.32 c 15.2109,56.47 41.082,109.27 77.6172,158.41 36.5198,49.13 85.1368,88.52 145.8048,118.13 84.246,41.13 159.734,52.16 226.445,33.07 66.696,-19.09 117.336,-64.02 151.891,-134.8 22.215,-45.5 30.515,-88.16 24.89,-127.93 -5.621,-39.79 -16.796,-78.9 -33.511,-117.31 -18.016,-42.19 -27.762,-75.13 -29.242,-98.79 -1.493,-23.69 3.945,-48.16 16.285,-73.44 l 29.597,-60.63 -200.964,-98.1"
         style="fill:#7dc254;fill-opacity:1;fill-rule:nonzero;stroke:none"
         id="path40" /><path
         d="m 718.754,2910.33 c 32.695,-66.97 4.906,-147.77 -62.066,-180.46 -66.973,-32.7 -147.766,-4.91 -180.461,62.06 -32.696,66.98 -4.907,147.77 62.066,180.47 66.973,32.69 147.77,4.9 180.461,-62.07"
         style="fill:#7dc254;fill-opacity:1;fill-rule:nonzero;stroke:none"
         id="path42" /><path
         d="m 2643.52,3578.89 15.57,101.52 c 6.06,39.5 18.02,72.06 35.92,97.72 17.87,25.64 42.33,48.6 73.37,68.87 83.44,54.57 127.69,98.32 132.74,131.25 3.31,21.62 -1.59,39.94 -14.67,54.94 -13.12,15.01 -31.89,24.38 -56.33,28.13 -23.52,3.61 -50.34,-0.22 -80.45,-11.48 -30.13,-11.26 -62.83,-31.51 -98.11,-60.75 l -116.82,160.84 c 45.33,38.28 97.43,67.36 156.31,87.2 58.85,19.85 122.16,24.58 189.87,14.2 94.02,-14.42 163.34,-48.87 207.93,-103.35 44.56,-54.48 60.81,-121.23 48.7,-200.22 -7.79,-50.78 -25.53,-91.15 -53.22,-121.05 -27.69,-29.93 -59.62,-56.08 -95.76,-78.44 -39.42,-24.77 -66.59,-46.59 -81.5,-65.46 -14.95,-18.9 -24.56,-42.43 -28.89,-70.65 l -10.37,-67.66 -224.29,34.39"
         style="fill:#f5882a;fill-opacity:1;fill-rule:nonzero;stroke:none"
         id="path44" /><path
         d="m 2867.49,3350 c -11.46,-74.75 -81.35,-126.05 -156.09,-114.59 -74.74,11.47 -126.04,81.35 -114.58,156.09 11.46,74.75 81.34,126.05 156.09,114.59 74.74,-11.47 126.04,-81.35 114.58,-156.09"
         style="fill:#f5882a;fill-opacity:1;fill-rule:nonzero;stroke:none"
         id="path46" /><path
         d="m 3871.24,3542.03 27.99,68.74 c 10.89,26.75 24.77,47.63 41.66,62.66 16.88,15.02 37.92,27.05 63.15,36.09 67.82,24.34 106.27,47.66 115.35,69.96 5.96,14.64 5.59,28.34 -1.09,41.09 -6.69,12.75 -18.31,22.49 -34.86,29.23 -15.93,6.49 -35.43,8.3 -58.48,5.44 -23.07,-2.85 -49.46,-11.6 -79.17,-26.22 l -55.1,132.68 c 38.29,19.3 79.8,30.98 124.52,35.05 44.7,4.06 90,-3.25 135.85,-21.92 63.67,-25.93 106.61,-61.79 128.8,-107.58 22.17,-45.78 22.39,-95.42 0.6,-148.91 -14,-34.39 -33.25,-59.79 -57.74,-76.16 -24.49,-16.39 -51.33,-29.4 -80.49,-39.05 -31.87,-10.79 -54.63,-21.56 -68.28,-32.33 -13.68,-10.76 -24.39,-25.7 -32.17,-44.8 l -18.66,-45.82 -151.88,61.85"
         style="fill:#689749;fill-opacity:1;fill-rule:nonzero;stroke:none"
         id="path48" /><path
         d="m 3990.22,3343.51 c -20.61,-50.62 -78.35,-74.94 -128.96,-54.33 -50.62,20.62 -74.94,78.36 -54.33,128.97 20.61,50.62 78.36,74.94 128.97,54.33 50.61,-20.62 74.93,-78.35 54.32,-128.97"
         style="fill:#689749;fill-opacity:1;fill-rule:nonzero;stroke:none"
         id="path50" /><path
         d="m 1449.61,3545.09 -8.47,74.54 c -3.3,29 -1.11,54.24 6.6,75.75 7.68,21.5 20.52,42.36 38.51,62.6 48.36,54.44 71.17,93.75 68.42,117.93 -1.81,15.87 -8.77,27.84 -20.87,35.91 -12.11,8.07 -27.14,11.08 -45.09,9.04 -17.26,-1.97 -35.43,-9.8 -54.5,-23.51 -19.08,-13.71 -38.25,-34.24 -57.5,-61.61 l -113.15,90.99 c 24.61,35.66 55.76,66.13 93.46,91.4 37.68,25.26 81.39,40.73 131.1,46.38 69.03,7.85 124.48,-3.16 166.35,-33.02 41.85,-29.86 66.08,-73.78 72.68,-131.78 4.23,-37.28 -0.54,-69.13 -14.32,-95.51 -13.78,-26.4 -31.28,-50.95 -52.47,-73.63 -23.04,-25.01 -38.01,-45.59 -44.91,-61.75 -6.91,-16.18 -9.17,-34.61 -6.82,-55.33 l 5.65,-49.68 -164.67,-18.72"
         style="fill:#1d423d;fill-opacity:1;fill-rule:nonzero;stroke:none"
         id="path52" /><path
         d="m 1651.31,3426.67 c 6.24,-54.88 -33.19,-104.42 -88.06,-110.66 -54.88,-6.24 -104.42,33.19 -110.66,88.06 -6.24,54.88 33.19,104.42 88.07,110.66 54.87,6.24 104.41,-33.19 110.65,-88.06"
         style="fill:#1d423d;fill-opacity:1;fill-rule:nonzero;stroke:none"
         id="path54" /><g
         id="g56"><g
           id="g58"
           clip-path="url(#clipPath62)"><path
             d="m 1733.65,3058.85 c 0,0 -116.93,-137.09 -116.93,-590.69 V 1324.65 c 0,-124.44 61.77,-240.77 164.87,-310.46 l 64.95,-43.909 v 778.509 l -112.89,1310.06"
             style="fill:#c59b7b;fill-opacity:1;fill-rule:nonzero;stroke:none"
             id="path64" /><path
             d="m 1819.74,2059.87 -59.88,694.84 -126.06,-11.83 c -10.28,-74.98 -17.08,-165.61 -17.08,-274.72 v -167.74 c 69.47,-38.58 145.65,-109.83 203.02,-240.55"
             style="fill:#7e6859;fill-opacity:1;fill-rule:nonzero;stroke:none"
             id="path66" /><path
             d="m 1788.38,2423.76 -54.73,635.09 c 0,0 -116.93,-137.09 -116.93,-590.69 v -13.26 c 51.95,-15.18 110.7,-27.49 171.66,-31.14"
             style="fill:#1d423d;fill-opacity:1;fill-rule:nonzero;stroke:none"
             id="path68" /><path
             d="m 1798.16,1720.92 c 0,0 2.93,-1187.979 96.77,-1925.971 670.83,0 717.69,0 717.69,0 l -55.26,1944.381 -759.2,-18.41"
             style="fill:#f5882a;fill-opacity:1;fill-rule:nonzero;stroke:none"
             id="path70" /><path
             d="m 1798.16,1720.86 c 0,0.02 0,0.04 0,0.05 0,-0.01 0,-0.03 0,-0.05 m 0,0.05 v 0.01 -0.01 m 0,0.01 v 0 0"
             style="fill:#d9bba4;fill-opacity:1;fill-rule:nonzero;stroke:none"
             id="path72" /><path
             d="m 1800.12,1521.47 c -1.74,122.13 -1.95,196.88 -1.96,199.39 0,0.02 0,0.04 0,0.05 v 0 0.01 0 0 0 0 c 64.66,-31.06 148.84,-46.02 237.59,-51.27 0.19,-1.29 0.4,-2.59 0.6,-3.88 -48.69,-31.97 -86.62,-76.94 -110.1,-128.93 -10.38,1.11 -20.36,1.59 -29.9,1.59 -44.51,0 -79.15,-10.5 -96.23,-16.96"
             style="fill:#f0b031;fill-opacity:1;fill-rule:nonzero;stroke:none"
             id="path74" /><path
             d="m 2061.75,1291.8 51.93,-1497.058 12.09,0.418 -51.93,1497.06"
             style="fill:#7e6859;fill-opacity:1;fill-rule:nonzero;stroke:none"
             id="path76" /><path
             d="m 2143.93,3245.31 c 0,0 289.28,-75.2 404.2,-147.97 114.91,-72.78 74.78,-491.21 74.78,-491.21 l -752.16,93.86 -39.33,352.37 c -5.87,52.52 21.87,102.85 69.15,126.49 60.52,30.25 149.6,64.78 243.36,66.46"
             style="fill:#7dc254;fill-opacity:1;fill-rule:nonzero;stroke:none"
             id="path78" /><path
             d="m 2143.93,3179.94 c 0,0 289.28,-75.2 404.2,-147.98 114.91,-72.78 74.78,-491.21 74.78,-491.21 l -752.16,93.86 -39.33,352.37 c -5.87,52.53 21.87,102.86 69.15,126.49 60.52,30.26 149.6,64.78 243.36,66.47"
             style="fill:#689749;fill-opacity:1;fill-rule:nonzero;stroke:none"
             id="path80" /><path
             d="m 2189.85,3178.8 422.77,-248.61 -56.45,-1216.34 c 0,0 -516.09,-109.16 -758.01,7.07 -64.51,1337.93 -64.51,1337.93 -64.51,1337.93 l 264.5,101.29 191.7,18.66"
             style="fill:#1d423d;fill-opacity:1;fill-rule:nonzero;stroke:none"
             id="path82" /><path
             d="m 2612.62,2930.19 c 0,0 60.48,-25.15 100.8,-172.02 40.32,-146.87 120.66,-907.31 120.66,-907.31 L 2564.24,1686.93 2431.18,2700 c 0,0 -8.06,194.26 181.44,230.19"
             style="fill:#ecb788;fill-opacity:1;fill-rule:nonzero;stroke:none"
             id="path84" /><path
             d="m 2337.35,3092.06 c 0,0 -185.27,-677.54 158.82,-886.86 27.75,190.39 27.75,190.39 27.75,190.39 0,0 -185.22,127.84 -51.01,616.76 l -135.56,79.71"
             style="fill:#7dc254;fill-opacity:1;fill-rule:nonzero;stroke:none"
             id="path86" /><path
             d="m 1733.65,3058.85 c 0,0 0,-0.06 34.44,-714.36 v -0.01 c 14.3,299.92 83.51,637.2 113.23,770.92 l -147.67,-56.55"
             style="fill:#7dc254;fill-opacity:1;fill-rule:nonzero;stroke:none"
             id="path88" /><path
             d="m 2776.07,2353.52 c -22.02,175.16 -45.82,343.35 -62.65,404.65 -40.32,146.87 -100.8,172.02 -100.8,172.02 C 2423.12,2894.26 2431.18,2700 2431.18,2700 l 54.8,-417.21 c 116.2,8.73 226.31,45.55 290.09,70.73"
             style="fill:#1d423d;fill-opacity:1;fill-rule:nonzero;stroke:none"
             id="path90" /><path
             d="m 2000.77,3036.95 c 0,-0.06 -10.87,-235.85 -10.87,-530.97 0.01,-276.42 9.52,-604.76 46.51,-840.63 l 11.95,1.88 c -36.81,234.56 -46.37,562.66 -46.36,838.75 0,147.41 2.72,280.03 5.43,375.79 1.36,47.88 2.71,86.54 3.73,113.23 1.02,26.69 1.7,41.35 1.7,41.39 l -12.09,0.56"
             style="fill:#7dc254;fill-opacity:1;fill-rule:nonzero;stroke:none"
             id="path92" /><path
             d="m 2165.09,2814.88 -16.16,-150.56 c -2.08,-19.4 -0.43,-39.02 4.86,-57.8 l 356.4,-851.09 c 35.43,-84.63 132.17,-125.21 217.38,-91.21 l 3.26,1.3 c 91.39,36.47 132.06,143.28 88.07,231.3 l -355.03,710.45 13.27,90.73 c 8.86,60.54 12.56,126.37 -38.57,159.97 l -32.84,-90.83 -167.95,83.9 c -30.17,18.11 -68.94,-1.17 -72.69,-36.16"
             style="fill:#ecb788;fill-opacity:1;fill-rule:nonzero;stroke:none"
             id="path94" /><path
             d="m 2023.59,3127.9 -70.81,-94.24 c 0,0 -22.01,163.62 54.82,177.06 76.83,13.44 15.99,-82.82 15.99,-82.82"
             style="fill:#1d423d;fill-opacity:1;fill-rule:nonzero;stroke:none"
             id="path96" /><path
             d="m 2189.85,3269.52 c 0,0 58.87,-103.68 39.22,-191.45 -112.38,-91.8 -112.38,-91.8 -112.38,-91.8 l -74.3,171.36 147.46,111.89"
             style="fill:#1d423d;fill-opacity:1;fill-rule:nonzero;stroke:none"
             id="path98" /><path
             d="m 1952.78,3033.66 c 0,0 -2.92,21.71 -2.92,49.97 0,49.04 8.8,117.8 56.96,126.95 v -105 l -54.04,-71.92"
             style="fill:#265e56;fill-opacity:1;fill-rule:nonzero;stroke:none"
             id="path100" /><path
             d="m 2116.69,2986.27 -51.47,118.7 14.17,16.58 c 0,0 93.74,30.03 105.84,84.47 1.35,23.55 2.35,44.21 3.07,62.32 l 1.55,1.18 c 0,0 43.28,-76.22 43.24,-153.28 -0.01,-12.82 -1.22,-25.65 -4.02,-38.17 -112.38,-91.8 -112.38,-91.8 -112.38,-91.8"
             style="fill:#265e56;fill-opacity:1;fill-rule:nonzero;stroke:none"
             id="path102" /><path
             d="m 2665.31,1652.2 c -7.54,0 -15.03,0.51 -22.42,1.51 v 0 c 7.39,-1 14.88,-1.51 22.42,-1.51 v 0"
             style="fill:#b3d1b6;fill-opacity:1;fill-rule:nonzero;stroke:none"
             id="path104" /><path
             d="m 2665.31,1652.2 c -7.54,0 -15.03,0.51 -22.42,1.51 l -0.11,0.09 c 7.5,-1.03 15.09,-1.56 22.73,-1.56 7.3,0 14.63,0.48 21.97,1.46 v -0.02 c -7.4,-0.99 -14.81,-1.48 -22.17,-1.48 m -95.6,63.77 -10.55,3.91 21.09,21.09 c -4.17,-7.97 -7.71,-16.33 -10.54,-25 m 79.68,94.14 17.42,17.42 c 1.01,-2.16 2,-4.31 3,-6.47 l 0.2,-1.93 c -7.11,-2.54 -14,-5.56 -20.62,-9.02 m -215.93,128.53 -279.67,667.88 c 0,0 114.56,-136.43 244.94,-324.96 3.14,-17.77 7.44,-40.53 13.32,-69.28 v -8.57 h 1.76 c 5.29,-25.55 11.75,-55.55 19.65,-90.64 v -174.43"
             style="fill:#bda37b;fill-opacity:1;fill-rule:nonzero;stroke:none"
             id="path106" /><path
             d="m 2665.51,1652.24 c -7.64,0 -15.23,0.53 -22.73,1.56 l -2.75,2.17 4.51,32.24 -74.83,27.76 c 2.83,8.67 6.37,17.03 10.54,25 l 69.14,69.14 c 6.62,3.46 13.51,6.48 20.62,9.02 l 17.47,-165.43 c -7.34,-0.98 -14.67,-1.46 -21.97,-1.46"
             style="fill:#aa9272;fill-opacity:1;fill-rule:nonzero;stroke:none"
             id="path108" /><path
             d="m 2771.72,2387.88 c -10.85,84.83 -21.97,166.41 -32.37,233.18 -0.01,0.05 -0.02,0.1 -0.02,0.15 -0.01,0.06 -0.02,0.11 -0.03,0.17 -9.39,60.25 -18.18,108.4 -25.63,135.88 15.71,-57.96 37.4,-207.82 58.05,-369.38"
             style="fill:#eaf6da;fill-opacity:1;fill-rule:nonzero;stroke:none"
             id="path110" /><path
             d="m 2811.22,2058.21 c -23.36,40.9 -44.41,80.55 -63.37,119 h 1.75 v 6.05 6.04 h -7.67 c -5.13,10.59 -10.12,21.1 -14.94,31.5 -0.41,10.68 -0.96,20.72 -1.61,30.14 h 24.22 c 5.27,-0.01 9.53,-4.28 9.54,-9.55 v -42.54 c -0.01,-5.27 -4.27,-9.54 -9.54,-9.55 v -6.04 -6.05 c 11.95,0 21.64,9.69 21.64,21.64 v 42.54 c 0,11.96 -9.69,21.64 -21.64,21.64 h -25.14 c -1.08,12.99 -2.37,24.7 -3.8,35.25 4.91,0.73 9.06,4.46 10.08,9.61 1.3,6.55 -2.96,12.92 -9.51,14.22 -1.53,0.31 -3.04,0.56 -4.52,0.78 -0.56,2.94 -1.12,5.75 -1.69,8.45 23.2,7.72 43.82,15.37 61.05,22.18 -12.19,96.97 -24.93,191.8 -36.72,267.54 10.4,-66.77 21.52,-148.35 32.37,-233.18 14.49,-113.37 28.46,-232.5 39.5,-329.67 m -71.89,563 c -0.01,0.05 -0.02,0.11 -0.03,0.17 0.01,-0.06 0.02,-0.11 0.03,-0.17"
             style="fill:#f3ceae;fill-opacity:1;fill-rule:nonzero;stroke:none"
             id="path112" /><path
             d="m 2713.67,2757.26 c -0.01,0.05 -0.03,0.1 -0.04,0.15 0.01,-0.05 0.03,-0.1 0.04,-0.15 m -0.06,0.21 c -0.03,0.11 -0.06,0.22 -0.09,0.33 0.03,-0.11 0.06,-0.22 0.09,-0.33 m -0.09,0.35 c -0.02,0.05 -0.03,0.11 -0.05,0.16 0.02,-0.06 0.03,-0.1 0.05,-0.16 m -0.05,0.17 c -0.01,0.06 -0.03,0.12 -0.05,0.18 0.02,-0.06 0.04,-0.12 0.05,-0.18 m -0.05,0.18 c -8.27,30.12 -17.38,55.12 -26.65,75.83 -26.15,58.43 -53.5,82.75 -66.46,91.67 v 0 c 17.56,-12.08 61.52,-52.43 93.11,-167.5"
             style="fill:#eaf6da;fill-opacity:1;fill-rule:nonzero;stroke:none"
             id="path114" /><path
             d="m 2686.77,2834 c -35.87,80.16 -74.02,96.13 -74.15,96.19 v 0 c 0,0 0.15,-0.07 0.44,-0.2 0.97,-0.46 3.51,-1.75 7.25,-4.32 12.96,-8.92 40.31,-33.24 66.46,-91.67"
             style="fill:#f3ceae;fill-opacity:1;fill-rule:nonzero;stroke:none"
             id="path116" /><path
             d="m 2715.02,2331.34 c -10.72,50.62 -24.2,60.42 -24.2,60.42 v 0 0 c 0,0 29.3,28.72 16.96,67.14 -0.47,1.48 -1.01,2.98 -1.61,4.48 -8.74,21.85 -35.33,36.18 -72.44,36.18 -2.58,0 -5.21,-0.07 -7.9,-0.21 -50.99,198.43 -40.16,342.9 -22.29,428.82 3.02,0.67 5.95,1.42 9.08,2.02 0.13,-0.06 38.28,-16.03 74.15,-96.19 9.27,-20.71 18.38,-45.71 26.65,-75.83 v 0 0 c 0.02,-0.06 0.04,-0.12 0.05,-0.18 v -0.01 c 0.02,-0.05 0.03,-0.11 0.05,-0.16 0,-0.01 0,-0.02 0,-0.02 0.03,-0.11 0.06,-0.22 0.09,-0.33 0.01,-0.02 0.02,-0.04 0.02,-0.06 0.01,-0.05 0.03,-0.1 0.04,-0.15 v 0 c 7.45,-27.48 16.24,-75.63 25.63,-135.88 0.01,-0.06 0.02,-0.12 0.03,-0.17 0,-0.05 0.01,-0.1 0.02,-0.15 11.79,-75.74 24.53,-170.57 36.72,-267.54 -17.23,-6.81 -37.85,-14.46 -61.05,-22.18"
             style="fill:#265e56;fill-opacity:1;fill-rule:nonzero;stroke:none"
             id="path118" /><path
             d="m 1989.98,3622.54 c 0,0 -16.84,52.19 0,106.63 16.84,54.43 92.44,78.62 177.11,0 84.67,-78.63 203.26,-211.68 104.65,-347.76 -65.34,-96.77 -104.65,-111.89 -104.65,-111.89 l -177.11,353.02"
             style="fill:#1d423d;fill-opacity:1;fill-rule:nonzero;stroke:none"
             id="path120" /><path
             d="m 1894.93,3344.93 111.89,-75.41 v -232.85 l 72.57,84.88 c 0,0 93.74,30.03 105.84,84.47 10.39,181.15 0,190.86 0,190.86 l -45.36,30.82 -244.94,-82.77"
             style="fill:#ecb788;fill-opacity:1;fill-rule:nonzero;stroke:none"
             id="path122" /><path
             d="m 1894.93,3344.93 111.89,-75.41 c 0,0 89.99,20.84 145.43,90.66 -55.25,9.9 -100.78,18.07 -138.64,24.86 l -118.68,-40.11"
             style="fill:#906f5d;fill-opacity:1;fill-rule:nonzero;stroke:none"
             id="path124" /><path
             d="m 2167.09,3378.39 c 0,0 -54.43,-84.68 -151.2,-63.51 -96.77,21.17 -120.96,30.05 -120.96,30.05 0,0 51.41,226.99 81.65,263.28 30.24,36.29 72.57,57.45 117.93,51.41 45.36,-6.05 148.18,-72.58 133.06,-187.49 -27.22,-69.55 -60.48,-93.74 -60.48,-93.74"
             style="fill:#ecb788;fill-opacity:1;fill-rule:nonzero;stroke:none"
             id="path126" /><path
             d="m 2199.36,3587.41 c 0,0 12.4,-36.46 -17,-78.64 -29.4,-42.18 -23.01,-68.26 -5.12,-75.04 17.9,-6.77 51.83,-20.83 51.83,-20.83 l 35.09,123.98 -64.8,50.53"
             style="fill:#1d423d;fill-opacity:1;fill-rule:nonzero;stroke:none"
             id="path128" /><path
             d="m 2271.74,3433.73 c 0,-28.89 -23.43,-52.32 -52.33,-52.32 -28.9,0 -52.32,23.43 -52.32,52.32 0,28.91 23.42,52.33 52.32,52.33 28.9,0 52.33,-23.42 52.33,-52.33"
             style="fill:#ecb788;fill-opacity:1;fill-rule:nonzero;stroke:none"
             id="path130" /><path
             d="m 2095.94,3515.82 c -3.68,-10.58 -12.61,-17.09 -19.94,-14.54 -7.34,2.55 -10.3,13.19 -6.62,23.77 3.68,10.58 12.61,17.09 19.94,14.54 7.33,-2.55 10.3,-13.19 6.62,-23.77"
             style="fill:#1d423d;fill-opacity:1;fill-rule:nonzero;stroke:none"
             id="path132" /><path
             d="m 1980.92,3539.59 c -3.68,-10.58 -12.61,-17.09 -19.95,-14.54 -7.33,2.55 -10.29,13.19 -6.61,23.77 3.68,10.58 12.61,17.09 19.94,14.54 7.33,-2.55 10.3,-13.19 6.62,-23.77"
             style="fill:#1d423d;fill-opacity:1;fill-rule:nonzero;stroke:none"
             id="path134" /><path
             d="m 2069.81,3558.19 -0.34,2.03 0.33,-2.03 h 0.01 l -0.34,2.03 0.33,-2.03 c 0.26,0.04 5.51,0.86 12.23,0.85 5.36,0.02 11.67,-0.54 16.86,-2.09 5.28,-1.56 9.02,-3.91 11.08,-6.77 3.95,-5.38 11.52,-6.55 16.91,-2.6 5.39,3.95 6.55,11.52 2.6,16.91 -6.37,8.64 -15.36,13.19 -23.75,15.67 -8.49,2.47 -16.81,3.06 -23.7,3.08 -9.17,-0.01 -15.8,-1.13 -16.24,-1.2 -6.59,-1.11 -11.03,-7.35 -9.92,-13.94 1.11,-6.58 7.35,-11.02 13.94,-9.91"
             style="fill:#1d423d;fill-opacity:1;fill-rule:nonzero;stroke:none"
             id="path136" /><path
             d="m 2017.6,3594.21 c -0.53,0.77 -4.1,5.91 -11.26,11.22 -7.11,5.29 -18.15,10.73 -32.46,10.93 -6.68,0.11 -12.18,-5.22 -12.29,-11.9 -0.1,-6.68 5.23,-12.18 11.91,-12.28 8.37,-0.16 14.28,-3.15 18.46,-6.2 2.06,-1.52 3.61,-3.05 4.57,-4.11 l 1,-1.18 0.15,-0.2 3.71,2.69 -3.79,-2.58 0.08,-0.11 3.71,2.69 -3.79,-2.58 c 3.76,-5.52 11.29,-6.95 16.81,-3.19 5.52,3.75 6.95,11.28 3.19,16.8 v 0"
             style="fill:#1d423d;fill-opacity:1;fill-rule:nonzero;stroke:none"
             id="path138" /><path
             d="m 2003.32,3534.77 -60.88,-61.04 37.47,-17.73 c 3.02,-1.42 6.63,-0.13 8.05,2.88 1.43,3.03 0.14,6.63 -2.88,8.06 l -21.96,10.39 48.76,48.89 c 2.36,2.37 2.36,6.19 -0.01,8.55 -2.36,2.36 -6.19,2.36 -8.55,0"
             style="fill:#906f5d;fill-opacity:1;fill-rule:nonzero;stroke:none"
             id="path140" /><path
             d="m 1982.5,3677.38 c 0,15.55 1.82,33.14 7.24,50.99 -5.42,-17.85 -7.24,-35.44 -7.24,-50.99 m 7.48,51.79 c 9.17,29.63 35.74,50.3 71.72,50.3 v 0 c -35.98,0 -62.56,-20.67 -71.72,-50.3"
             style="fill:#b3d1b6;fill-opacity:1;fill-rule:nonzero;stroke:none"
             id="path142" /><path
             d="m 1989.98,3622.54 c -0.14,0.43 -7.49,23.51 -7.48,54.84 0,15.55 1.82,33.14 7.24,50.99 0.08,0.27 0.16,0.53 0.24,0.8 v 0 c 9.16,29.63 35.74,50.3 71.72,50.3 30.11,-0.01 66.81,-14.49 105.39,-50.3 0,0 0.63,-42.46 -7.23,-100.71 -23.72,18.31 -48.5,28.91 -65.35,31.16 -5.17,0.68 -10.3,1.02 -15.38,1.02 -33.23,0 -64.2,-14.37 -89.15,-38.1"
             style="fill:#193934;fill-opacity:1;fill-rule:nonzero;stroke:none"
             id="path144" /><path
             d="m 1991.59,3320.29 c -76.13,17.19 -96.49,24.59 -96.66,24.64 v 0 c 0,0 42.4,187.23 72.84,248.79 1.7,-0.95 3.65,-1.51 5.73,-1.54 8.37,-0.16 14.28,-3.15 18.46,-6.2 2.06,-1.52 3.61,-3.05 4.57,-4.11 l 1,-1.18 0.15,-0.2 v 0 c 2.35,-3.37 6.11,-5.18 9.93,-5.18 2.35,0 4.71,0.68 6.8,2.1 5.52,3.75 6.95,11.28 3.19,16.8 v 0 c -0.53,0.77 -4.1,5.91 -11.26,11.22 -5.5,4.1 -13.37,8.28 -23.28,10.06 2.27,2.39 4.6,4.71 6.96,6.96 l -0.04,0.09 c 0,0 0,0 0,0 24.95,23.73 55.92,38.1 89.15,38.1 5.08,0 10.21,-0.34 15.38,-1.02 16.85,-2.25 41.63,-12.85 65.35,-31.16 -13.76,-101.96 -53.54,-252.32 -168.27,-308.17 m 16.01,216.25 c -1.55,0 -3.1,-0.59 -4.28,-1.77 l -60.88,-61.04 37.47,-17.73 c 0.84,-0.39 1.72,-0.58 2.58,-0.58 2.27,0 4.44,1.28 5.47,3.46 1.43,3.03 0.14,6.63 -2.88,8.06 l -21.96,10.39 48.76,48.89 c 2.36,2.37 2.36,6.19 -0.01,8.55 -1.18,1.18 -2.72,1.77 -4.27,1.77 m 78.41,3.6 c -6.53,0 -13.49,-6.06 -16.63,-15.09 -3.68,-10.58 -0.72,-21.22 6.62,-23.77 1.07,-0.37 2.18,-0.55 3.31,-0.55 6.53,0 13.49,6.06 16.63,15.09 3.68,10.58 0.71,21.22 -6.62,23.77 -1.08,0.38 -2.18,0.55 -3.31,0.55 m -115.02,23.78 c -6.53,0 -13.49,-6.07 -16.63,-15.1 -3.68,-10.58 -0.72,-21.22 6.61,-23.77 1.08,-0.37 2.19,-0.55 3.31,-0.55 6.54,0 13.5,6.06 16.64,15.09 3.68,10.58 0.71,21.22 -6.62,23.77 -1.08,0.38 -2.19,0.56 -3.31,0.56 m 111.23,-4.88 c 5.32,0 11.54,-0.56 16.67,-2.09 5.28,-1.56 9.02,-3.91 11.08,-6.77 2.37,-3.23 6.04,-4.94 9.77,-4.94 2.48,0 4.98,0.76 7.14,2.34 5.39,3.95 6.55,11.52 2.6,16.91 -6.37,8.64 -15.36,13.19 -23.75,15.67 -8.49,2.47 -16.81,3.06 -23.7,3.08 -9.17,-0.01 -15.8,-1.13 -16.24,-1.2 -6.59,-1.11 -11.03,-7.35 -9.92,-13.94 1,-5.9 6.12,-10.08 11.91,-10.08 0.67,0 1.34,0.05 2.02,0.17 v 0 0 h 0.01 v 0 0 c 0.39,0.06 5.56,0.85 12.16,0.85 0.02,0 0.04,0 0.06,0 0.06,0 0.12,0 0.19,0"
             style="fill:#bda37b;fill-opacity:1;fill-rule:nonzero;stroke:none"
             id="path146" /><path
             d="m 2079.31,3500.73 c -1.13,0 -2.24,0.18 -3.31,0.55 -7.34,2.55 -10.3,13.19 -6.62,23.77 3.14,9.03 10.1,15.09 16.63,15.09 1.13,0 2.23,-0.17 3.31,-0.55 7.33,-2.55 10.3,-13.19 6.62,-23.77 -3.14,-9.03 -10.1,-15.09 -16.63,-15.09"
             style="fill:#193934;fill-opacity:1;fill-rule:nonzero;stroke:none"
             id="path148" /><path
             d="m 1964.28,3524.5 c -1.12,0 -2.23,0.18 -3.31,0.55 -7.33,2.55 -10.29,13.19 -6.61,23.77 3.14,9.03 10.1,15.1 16.63,15.1 1.12,0 2.23,-0.18 3.31,-0.56 7.33,-2.55 10.3,-13.19 6.62,-23.77 -3.14,-9.03 -10.1,-15.09 -16.64,-15.09"
             style="fill:#193934;fill-opacity:1;fill-rule:nonzero;stroke:none"
             id="path150" /><path
             d="m 2119.74,3545.24 c -3.73,0 -7.4,1.71 -9.77,4.94 -2.06,2.86 -5.8,5.21 -11.08,6.77 -5.13,1.53 -11.35,2.09 -16.67,2.09 -0.07,0 -0.13,0 -0.19,0 -0.02,0 -0.04,0 -0.06,0 -6.6,0 -11.77,-0.79 -12.16,-0.85 v 0 0 h -0.01 v 0 c -0.68,-0.12 -1.35,-0.17 -2.02,-0.17 -5.79,0 -10.91,4.18 -11.91,10.08 -1.11,6.59 3.33,12.83 9.92,13.94 0.44,0.07 7.07,1.19 16.24,1.2 6.89,-0.02 15.21,-0.61 23.7,-3.08 8.39,-2.48 17.38,-7.03 23.75,-15.67 3.95,-5.39 2.79,-12.96 -2.6,-16.91 -2.16,-1.58 -4.66,-2.34 -7.14,-2.34"
             style="fill:#193934;fill-opacity:1;fill-rule:nonzero;stroke:none"
             id="path152" /><path
             d="m 2007.61,3575.31 c -3.82,0 -7.58,1.81 -9.93,5.18 v 0 l -0.15,0.2 -1,1.18 c -0.96,1.06 -2.51,2.59 -4.57,4.11 -4.18,3.05 -10.09,6.04 -18.46,6.2 -2.08,0.03 -4.03,0.59 -5.73,1.54 3.08,6.22 6.03,11.16 8.81,14.49 2.09,2.51 4.26,4.93 6.48,7.28 9.91,-1.78 17.78,-5.96 23.28,-10.06 7.16,-5.31 10.73,-10.45 11.26,-11.22 v 0 c 3.76,-5.52 2.33,-13.05 -3.19,-16.8 -2.09,-1.42 -4.45,-2.1 -6.8,-2.1"
             style="fill:#193934;fill-opacity:1;fill-rule:nonzero;stroke:none"
             id="path154" /><path
             d="m 1982.49,3455.42 c -0.86,0 -1.74,0.19 -2.58,0.58 l -37.47,17.73 60.88,61.04 c 1.18,1.18 2.73,1.77 4.28,1.77 1.55,0 3.09,-0.59 4.27,-1.77 2.37,-2.36 2.37,-6.18 0.01,-8.55 l -48.76,-48.89 21.96,-10.39 c 3.02,-1.43 4.31,-5.03 2.88,-8.06 -1.03,-2.18 -3.2,-3.46 -5.47,-3.46"
             style="fill:#766251;fill-opacity:1;fill-rule:nonzero;stroke:none"
             id="path156" /><path
             d="m 2401.54,3050.37 c -0.07,-0.26 -51.7,-131.17 -54.03,-256.31 l 9.01,-0.17 c 1.12,61.43 14.46,124.82 27.55,172.78 6.54,23.98 13.02,44.11 17.85,58.22 2.42,7.06 4.42,12.62 5.82,16.4 1.4,3.79 2.18,5.77 2.18,5.78 l -8.38,3.3"
             style="fill:#1d423d;fill-opacity:1;fill-rule:nonzero;stroke:none"
             id="path158" /><path
             d="m 1793.66,3083.84 c 0,-0.06 -30.95,-496.12 -30.95,-692.55 0,-18.54 0.27,-34.42 0.88,-47.02 l 9.01,0.43 c -0.6,12.38 -0.88,28.14 -0.88,46.59 0,97.84 7.73,270.92 15.47,419.43 3.87,74.27 7.73,142.41 10.63,191.98 1.45,24.79 2.66,44.93 3.51,58.88 0.84,13.95 1.33,21.67 1.33,21.69 l -9,0.56"
             style="fill:#1d423d;fill-opacity:1;fill-rule:nonzero;stroke:none"
             id="path160" /><path
             d="m 3626.57,2729.44 535.55,-299.46 -56.18,-178.18 -504.63,150.81 25.26,326.83"
             style="fill:#584940;fill-opacity:1;fill-rule:nonzero;stroke:none"
             id="path162" /><path
             d="m 3581.65,3283.57 73.76,-27.53 c 28.46,-10.61 51.39,-32.33 63.53,-60.17 l 83.14,-190.58 430.31,-546.18 c 43.11,-54.71 34.1,-133.94 -20.19,-177.58 l -2.12,-1.7 c -59.42,-47.77 -147.25,-32.78 -187.46,31.99 l -334.92,539.46 c -23.66,38.1 -35.54,82.34 -34.17,127.16 l 3,97.97 -74.88,100.26 v 106.9"
             style="fill:#7e6859;fill-opacity:1;fill-rule:nonzero;stroke:none"
             id="path164" /><path
             d="m 3677.59,2869.6 c 52.39,76.64 29.77,270.77 15.1,363.34 -10.69,9.97 -23.3,17.89 -37.28,23.1 l -73.76,27.53 v -106.9 l 74.88,-100.26 -3,-97.97 c -1.16,-37.83 7.23,-75.19 24.06,-108.84"
             style="fill:#39301a;fill-opacity:1;fill-rule:nonzero;stroke:none"
             id="path166" /><path
             d="m 4108.56,2266.26 c 0,-4.27 0.26,-8.47 0.64,-12.64 34.4,-5.86 71.19,2.34 100.88,26.21 l 2.12,1.7 c 37.18,29.89 53.1,76.46 45.61,120.43 -4.25,0.4 -8.55,0.65 -12.9,0.65 -75.3,0 -136.35,-61.05 -136.35,-136.35"
             style="fill:#584940;fill-opacity:1;fill-rule:nonzero;stroke:none"
             id="path168" /><path
             d="m 3830.47,2609.74 215.32,-333.23 10.26,6.62 -215.32,333.24"
             style="fill:#39301a;fill-opacity:1;fill-rule:nonzero;stroke:none"
             id="path170" /><path
             d="m 3705.64,1623.15 c 0,0 72.17,-855.091 -104.33,-1642.6305 -646.58,0 -646.58,0 -646.58,0 V 1645.64 l 750.91,-22.49"
             style="fill:#1d423d;fill-opacity:1;fill-rule:nonzero;stroke:none"
             id="path172" /><path
             d="m 3605.62,0 h -234.2 c 60.03,274.539 90.24,556.398 104.17,806.551 36.34,6.238 71.42,22.929 100.48,50.48 l 3.02,2.86 c 0.07,0.07 0.13,0.129 0.2,0.191 0.02,0.027 0.06,0.059 0.08,0.078 0.04,0.039 0.09,0.078 0.13,0.121 0.03,0.028 0.05,0.059 0.09,0.09 0.03,0.031 0.08,0.07 0.11,0.109 0.04,0.032 0.06,0.051 0.09,0.09 0.04,0.032 0.08,0.071 0.12,0.102 0.03,0.027 0.06,0.07 0.09,0.098 0.05,0.039 0.09,0.082 0.13,0.121 0.05,0.05 0.11,0.101 0.16,0.148 0.04,0.043 0.07,0.07 0.1,0.102 0.04,0.031 0.08,0.07 0.11,0.109 0.04,0.031 0.06,0.059 0.1,0.09 0.04,0.039 0.07,0.07 0.12,0.109 0.02,0.031 0.04,0.039 0.06,0.071 0.05,0.039 0.1,0.089 0.14,0.132 0.01,0.008 0.03,0.028 0.04,0.039 0.23,0.219 0.47,0.457 0.7,0.68 v 0.008 c 0.06,0.062 0.12,0.113 0.18,0.172 l 0.01,0.008 c 72.23,71.191 77.4,185.951 12.35,263.311 -0.01,0.01 -0.02,0.03 -0.03,0.04 -0.04,0.05 -0.08,0.1 -0.12,0.14 -1.44,1.71 -2.92,3.4 -4.43,5.07 v 0 l -104.31,157.94 c -1.4,97.53 -4.62,177.97 -7.61,235.48 133.2,6.29 225.99,19.35 233.11,20.37 4.2,-75.02 9.43,-199.89 9.44,-356.64 C 3720.26,872.531 3699.09,427.461 3605.62,0 m -128.57,1536.73 c -1.64,30.28 -3.16,53.24 -4.21,67.86 127.31,7.28 232.8,18.56 232.8,18.56 v 0 0 c 0,0 2.19,-26.06 4.89,-73.23 l -1.05,7.13 c -0.01,0 -2.49,-0.36 -7.31,-1 -24.64,-3.3 -109.66,-13.86 -225.12,-19.32"
             style="fill:#265e56;fill-opacity:1;fill-rule:nonzero;stroke:none"
             id="path174" /><path
             d="m 3102.9,723.93 v 156.691 c 3.18,-0.551 4.94,-0.769 4.94,-0.769 v 248.108 l 74.7,-102.84 -8.22,-292.87 -71.42,-8.32"
             style="fill:#0a0d09;fill-opacity:1;fill-rule:nonzero;stroke:none"
             id="path176" /><path
             d="m 3375.97,2841.82 250.6,-112.38 c 0,0 95.35,-280.14 103.49,-433.95 8.14,-153.81 -52.91,-206.72 -52.91,-206.72 l 28.49,-465.62 c 0,0 -431.42,-46.12 -602.36,-12.06 8.14,1088.18 8.14,1088.18 8.14,1088.18 l 264.55,142.55"
             style="fill:#7dc254;fill-opacity:1;fill-rule:nonzero;stroke:none"
             id="path178" /><path
             d="m 3347.35,2826.4 c 0,0 52.02,-237.02 194.98,-371.33 4.58,142.44 -44.05,331.89 -44.05,331.9 l -122.31,54.85 -28.62,-15.42"
             style="fill:#e2f5f5;fill-opacity:1;fill-rule:nonzero;stroke:none"
             id="path180" /><path
             d="m 3285.32,2792.97 c 0,0 18.36,-518.7 -177.48,-572.79 V 879.852 c 0,0 -208.06,27.007 -208.06,195.468 V 2338.2 c 0,153.9 84.98,295.23 220.92,367.39 l 164.62,87.38"
             style="fill:#7e6859;fill-opacity:1;fill-rule:nonzero;stroke:none"
             id="path182" /><path
             d="m 2899.78,1562.75 c 66.32,17.02 115.41,77.02 115.41,148.65 0,71.63 -49.09,131.63 -115.41,148.65 v -297.3"
             style="fill:#584940;fill-opacity:1;fill-rule:nonzero;stroke:none"
             id="path184" /><path
             d="m 3101.73,2220.18 h 12.2109 v 182.43 H 3101.73 Z"
             style="fill:#39301a;fill-opacity:1;fill-rule:nonzero;stroke:none"
             id="path186" /><path
             d="m 3705.64,1623.15 c -3.46,50.52 -101.05,242.05 -269.85,242.05 -35.65,0 -74.51,-8.56 -116.29,-28.79 -42.58,-20.61 -69.97,-29.47 -85.16,-29.47 -70.32,0 120.76,189.78 278.5,281.74 162.24,94.6 85.19,533.01 57.58,665.94 l 56.15,-25.18 c 0,0 95.35,-280.14 103.49,-433.95 0.5,-9.61 0.74,-18.83 0.74,-27.67 0,-132.55 -53.65,-179.05 -53.65,-179.05 v 0 0 l 28.49,-465.62 v 0"
             style="fill:#a2d669;fill-opacity:1;fill-rule:nonzero;stroke:none"
             id="path188" /><path
             d="m 3111.63,884.629 -0.15,0.121 c -3.74,3 -71.44,59.402 -90.29,161.42 l -12,-2.22 c 20.45,-109.919 94.31,-168.411 94.86,-168.891 l 7.58,9.57"
             style="fill:#39301a;fill-opacity:1;fill-rule:nonzero;stroke:none"
             id="path190" /><path
             d="m 3710.81,1544.91 c -0.1,1.7 -0.19,3.36 -0.28,5.01 l 0.72,-4.95 c -0.01,0 -0.15,-0.02 -0.44,-0.06"
             style="fill:#342d16;fill-opacity:1;fill-rule:nonzero;stroke:none"
             id="path192" /><path
             d="m 3338.05,1521.18 c -2.01,0 -4.03,0 -6.05,0.01 l -8.08,12.24 c 4.73,-0.03 9.44,-0.04 14.13,-0.04 0.02,0 0.01,0 0.03,0 49.47,0 96.31,1.32 138.97,3.34 0.22,-3.94 0.44,-8.01 0.65,-12.19 -42.87,-2.03 -89.92,-3.36 -139.65,-3.36"
             style="fill:#0a0d09;fill-opacity:1;fill-rule:nonzero;stroke:none"
             id="path194" /><path
             d="m 3477.7,1524.54 c -0.21,4.18 -0.43,8.25 -0.65,12.19 115.46,5.46 200.48,16.02 225.12,19.32 4.82,0.64 7.3,1 7.31,1 l 1.05,-7.13 c 0.09,-1.65 0.18,-3.31 0.28,-5.01 -7.12,-1.02 -99.91,-14.08 -233.11,-20.37"
             style="fill:#0b120b;fill-opacity:1;fill-rule:nonzero;stroke:none"
             id="path196" /><path
             d="m 3135.83,1818.2 -27.99,42.39 v 356.25 l 27.99,-398.64"
             style="fill:#5d873e;fill-opacity:1;fill-rule:nonzero;stroke:none"
             id="path198" /><path
             d="m 3107.84,1860.59 -0.24,0.35 v 359.24 l 0.24,-3.34 v -356.25"
             style="fill:#59483b;fill-opacity:1;fill-rule:nonzero;stroke:none"
             id="path200" /><path
             d="m 3375.97,3416.6 c 0,-84.85 -68.79,-153.64 -153.64,-153.64 -84.86,0 -153.65,68.79 -153.65,153.64 0,84.85 68.79,153.64 153.65,153.64 84.85,0 153.64,-68.79 153.64,-153.64"
             style="fill:#39301a;fill-opacity:1;fill-rule:nonzero;stroke:none"
             id="path202" /><path
             d="m 3068.69,3415.44 c 0,0.01 0,0.02 0,0.04 0,-0.02 0,-0.03 0,-0.04 m 0,0.74 c 0,0.03 0,0.05 0,0.08 0,-0.03 0,-0.05 0,-0.08 m 0,0.78 c 0,0.02 0,0.05 0,0.07 0,-0.03 0,-0.04 0,-0.07 m 0,0.42 c 0,0.02 0,0.04 0,0.05 0,-0.02 0,-0.03 0,-0.05 m 0,0.38 c 0,0.02 0,0.04 0,0.05 0,-0.01 0,-0.03 0,-0.05 m 0,0.41 c 0,0.02 0,0.04 0,0.05 0,-0.02 0,-0.03 0,-0.05 m 0.01,0.8 c 0,0.01 0,0.03 0,0.04 0,-0.01 0,-0.03 0,-0.04 m 0.01,0.42 c 0,0 0,0 0,0.01 0,-0.01 0,-0.01 0,-0.01 m 0.02,0.79 c 0,0.01 0,0 0,0.02 0,-0.01 0,-0.02 0,-0.02"
             style="fill:#342d16;fill-opacity:1;fill-rule:nonzero;stroke:none"
             id="path204" /><path
             d="m 3096.18,3329.02 c -17.09,24.56 -27.25,54.29 -27.49,86.42 0,0.01 0,0.02 0,0.04 0,0.23 0,0.47 0,0.7 0,0.03 0,0.05 0,0.08 0,0.11 -0.01,0.22 -0.01,0.34 v 0 c 0,0.12 0.01,0.24 0.01,0.36 0,0.03 0,0.04 0,0.07 0,0.12 0,0.23 0,0.35 0,0.02 0,0.03 0,0.05 0,0.11 0,0.22 0,0.33 0,0.02 0,0.04 0,0.05 0,0.12 0,0.24 0,0.36 0,0.02 0,0.03 0,0.05 0.01,0.25 0.01,0.5 0.01,0.75 0,0.01 0,0.03 0,0.04 0.01,0.13 0.01,0.25 0.01,0.38 0,0 0,0 0,0.01 0,0.26 0.01,0.52 0.02,0.78 0,0 0,0.01 0,0.02 1.53,66.6 45.5,122.67 105.89,142.4 17.29,-24.86 27.49,-55.01 27.49,-87.58 0,-68.18 -44.45,-125.91 -105.93,-146"
             style="fill:#100b07;fill-opacity:1;fill-rule:nonzero;stroke:none"
             id="path206" /><path
             d="m 3416.67,3298.06 c 0,-53.66 -43.51,-97.17 -97.17,-97.17 -53.67,0 -97.17,43.51 -97.17,97.17 0,53.67 43.5,97.17 97.17,97.17 53.66,0 97.17,-43.5 97.17,-97.17"
             style="fill:#7dc254;fill-opacity:1;fill-rule:nonzero;stroke:none"
             id="path208" /><path
             d="m 3586.93,3296.27 c 0,0 -52.23,74.54 -151.95,66.4 -99.71,-8.13 -228.2,-93.77 -202.62,-216.8 25.58,-123.04 199.93,-261.89 199.93,-261.89 l 154.64,412.29"
             style="fill:#39301a;fill-opacity:1;fill-rule:nonzero;stroke:none"
             id="path210" /><path
             d="m 3586.93,3296.27 c 0,0 73.01,-152.57 20.86,-386.56 -109.51,0 -109.51,0 -109.51,0 v -204.26 c 0,0 -151.23,47.4 -151.23,120.95 31.29,303 31.29,303 31.29,303 0,0 172.09,62.58 208.59,166.87"
             style="fill:#7e6859;fill-opacity:1;fill-rule:nonzero;stroke:none"
             id="path212" /><path
             d="m 3542.33,3125.22 c 0,-11.4 -6.6,-20.64 -14.75,-20.64 -8.14,0 -14.74,9.24 -14.74,20.64 0,11.4 6.6,20.65 14.74,20.65 8.15,0 14.75,-9.25 14.75,-20.65"
             style="fill:#39301a;fill-opacity:1;fill-rule:nonzero;stroke:none"
             id="path214" /><path
             d="m 3588.43,3112.57 6.18,-66.77 h -32.62 v -12.21 h 46.02 l -7.42,80.1 -12.16,-1.12"
             style="fill:#39301a;fill-opacity:1;fill-rule:nonzero;stroke:none"
             id="path216" /><path
             d="m 3385.04,3065.26 c 0,-33.12 -26.85,-59.97 -59.97,-59.97 -33.12,0 -59.96,26.85 -59.96,59.97 0,33.11 26.84,59.96 59.96,59.96 33.12,0 59.97,-26.85 59.97,-59.96"
             style="fill:#7e6859;fill-opacity:1;fill-rule:nonzero;stroke:none"
             id="path218" /><path
             d="m 3498.28,2909.71 h -65.99 c 0,0 31.57,-41.31 65.99,-67.89 0,67.89 0,67.89 0,67.89"
             style="fill:#39301a;fill-opacity:1;fill-rule:nonzero;stroke:none"
             id="path220" /><path
             d="m 3499.74,3170.81 0.43,0.22 c 2.2,1.1 12.51,5.77 25.62,5.76 7.5,0 15.89,-1.5 24.4,-6 l 2.86,5.4 c -9.5,5.03 -18.95,6.71 -27.26,6.71 -16.63,-0.03 -28.71,-6.61 -28.96,-6.73 l 2.91,-5.36 v 0"
             style="fill:#7e6859;fill-opacity:1;fill-rule:nonzero;stroke:none"
             id="path222" /><path
             d="m 3300.48,3071.86 56.92,-46.53 7.73,9.46 -56.92,46.52"
             style="fill:#39301a;fill-opacity:1;fill-rule:nonzero;stroke:none"
             id="path224" /><path
             d="m 3607.79,2909.71 c -28.93,0 -50.06,0 -65.73,0 v 0 c 15.65,0 36.9,0 65.73,0 17.82,79.94 21.03,150.39 17.53,208.49 v 0 c 3.5,-58.1 0.29,-128.55 -17.53,-208.49 m -13.85,369.27 v 0 c -3.46,9.44 -6.01,15.14 -6.77,16.79 0.76,-1.65 3.31,-7.35 6.77,-16.79"
             style="fill:#eaf6da;fill-opacity:1;fill-rule:nonzero;stroke:none"
             id="path226" /><path
             d="m 3593.95,3278.98 h -0.01 v 0 c 0.01,0 0,0 0.01,0"
             style="fill:#a79077;fill-opacity:1;fill-rule:nonzero;stroke:none"
             id="path228" /><path
             d="m 3625.32,3118.2 v 0 c -4.72,78.38 -21.65,134.3 -31.38,160.78 h 0.01 c 9.72,-26.49 26.65,-82.41 31.37,-160.78"
             style="fill:#4f4424;fill-opacity:1;fill-rule:nonzero;stroke:none"
             id="path230" /><path
             d="m 3584.89,3290.84 2.04,5.43 v 0 c -0.64,-1.82 -1.32,-3.63 -2.04,-5.43"
             style="fill:#eaf6da;fill-opacity:1;fill-rule:nonzero;stroke:none"
             id="path232" /><path
             d="m 3444.12,3159.63 c -4.96,82.15 20.92,164.22 34.62,201.12 71.09,-11.9 108.19,-64.48 108.19,-64.48 l -2.04,-5.43 c -23.53,-58.79 -89.62,-103.83 -140.77,-131.21"
             style="fill:#4f4424;fill-opacity:1;fill-rule:nonzero;stroke:none"
             id="path234" /><path
             d="m 3607.79,2909.71 c -28.83,0 -50.08,0 -65.73,0 -15.85,39.63 -38.24,89.22 -68.87,143.61 -18.44,32.76 -26.85,69.54 -29.07,106.31 51.15,27.38 117.24,72.42 140.77,131.21 0.72,1.8 1.4,3.61 2.04,5.43 v 0 c 0,0 0.08,-0.16 0.24,-0.5 0.76,-1.65 3.31,-7.35 6.77,-16.79 v 0 c 9.73,-26.48 26.66,-82.4 31.38,-160.78 3.5,-58.1 0.29,-128.55 -17.53,-208.49 m -45.8,136.09 v -12.21 h 46.02 l -7.42,80.1 -12.16,-1.12 6.18,-66.77 h -32.62 m -34.41,100.07 c -8.14,0 -14.74,-9.25 -14.74,-20.65 0,-11.4 6.6,-20.64 14.74,-20.64 8.15,0 14.75,9.24 14.75,20.64 0,11.4 -6.6,20.65 -14.75,20.65 m -1.85,30.92 c 0.02,0 0.04,0 0.06,0 7.5,0 15.89,-1.5 24.4,-6 l 2.86,5.4 c -9.5,5.03 -18.95,6.71 -27.26,6.71 -16.63,-0.03 -28.71,-6.61 -28.96,-6.73 l 2.91,-5.36 v 0 0 0 l 0.43,0.22 c 2.2,1.09 12.48,5.76 25.56,5.76"
             style="fill:#a79077;fill-opacity:1;fill-rule:nonzero;stroke:none"
             id="path236" /><path
             d="m 3527.58,3104.58 c -8.14,0 -14.74,9.24 -14.74,20.64 0,11.4 6.6,20.65 14.74,20.65 8.15,0 14.75,-9.25 14.75,-20.65 0,-11.4 -6.6,-20.64 -14.75,-20.64"
             style="fill:#4f4424;fill-opacity:1;fill-rule:nonzero;stroke:none"
             id="path238" /><path
             d="m 3561.99,3033.59 v 12.21 h 32.62 l -6.18,66.77 12.16,1.12 7.42,-80.1 h -46.02"
             style="fill:#4f4424;fill-opacity:1;fill-rule:nonzero;stroke:none"
             id="path240" /><path
             d="m 3550.19,3170.79 c -8.51,4.5 -16.9,6 -24.4,6 -0.02,0 -0.04,0 -0.06,0 -13.08,0 -23.36,-4.67 -25.56,-5.76 l -0.43,-0.22 -2.91,5.36 c 0.25,0.12 12.33,6.7 28.96,6.73 8.31,0 17.76,-1.68 27.26,-6.71 l -2.86,-5.4 m -50.45,0.02 v 0 0 0"
             style="fill:#a79077;fill-opacity:1;fill-rule:nonzero;stroke:none"
             id="path242" /><path
             d="m 906.766,2545.26 c 0,0 -194.985,-62.74 -208.797,-323.47 -13.813,-260.72 28.523,-748.1 28.523,-748.1 L 603.969,720.352 c -13.145,-80.813 21.383,-163.653 91.121,-206.551 17.973,-11.063 35.965,-17.86 51.988,-16.352 70.133,24.192 191.094,1188.281 191.094,1188.281 l -31.406,859.53"
             style="fill:#c59b7b;fill-opacity:1;fill-rule:nonzero;stroke:none"
             id="path244" /><path
             d="m 709.793,2305.57 c -6.008,-25.38 -10.203,-53.16 -11.824,-83.78 -3.856,-72.77 -3.336,-163.2 -0.582,-255.76 63.078,-86.56 133.937,-233.01 133.937,-454.53 0,-138.55 29.637,-176.35 68.328,-166.72 23.063,192.21 38.52,340.95 38.52,340.95 l -20.918,572.55 -10.488,46.48 -196.973,0.81"
             style="fill:#7e6859;fill-opacity:1;fill-rule:nonzero;stroke:none"
             id="path246" /><path
             d="m 1270.11,2427.75 36.41,29.22 c 29.01,-23.14 65.91,-71.27 106.23,-169.05 92.9,-225.31 169.89,-623.65 228.83,-1183.97 l -44.02,-4.54 c -118.48,1126.3 -283.46,1301.44 -327.45,1328.34"
             style="fill:#689749;fill-opacity:1;fill-rule:nonzero;stroke:none"
             id="path248" /><path
             d="m 906.766,2545.26 c 0,0 -194.985,-62.74 -208.797,-323.47 -2.102,-39.69 -2.899,-84.65 -2.746,-132.32 38.808,-13.22 95.355,-24.41 174.406,-22.95 21.586,0.4 39.277,8.89 53.773,23.4 l -16.636,455.34"
             style="fill:#cb732a;fill-opacity:1;fill-rule:nonzero;stroke:none"
             id="path250" /><path
             d="m 831.324,1511.5 c 0,0 -177.41,-1147.102 -122.976,-1528.1289 683.422,0 683.422,0 683.422,0 0,0 160.82,816.4809 89.48,1173.3089 -71.34,356.83 -98.38,415.3 -98.38,415.3 L 831.324,1511.5"
             style="fill:#1d423d;fill-opacity:1;fill-rule:nonzero;stroke:none"
             id="path252" /><path
             d="m 1474.59,1189.76 c -66.31,327.14 -91.68,382.13 -91.72,382.22 v 0 c 0,0 25.35,-54.81 91.72,-382.22"
             style="fill:#eaf6da;fill-opacity:1;fill-rule:nonzero;stroke:none"
             id="path254" /><path
             d="m 1394.96,0 h -366.98 c 128.72,380.492 86.36,1175.7 63.94,1482.07 38.98,6.14 82.99,16.06 132.38,31.06 10.06,-131.78 23.79,-274.47 41.18,-427.79 l 14.41,1.63 V 618.41 h 203.46 C 1457.38,339.672 1407.95,68.6797 1394.96,0 m 90.66,1132.49 h -176.73 c -16.15,146.3 -28.27,277.81 -37.05,396.11 34.59,11.98 71.58,26.32 111.03,43.38 v 0 c 0.04,-0.09 25.41,-55.08 91.72,-382.22 2.18,-10.73 4.4,-21.75 6.66,-33.08 1.57,-7.84 3.03,-15.92 4.37,-24.19"
             style="fill:#265e56;fill-opacity:1;fill-rule:nonzero;stroke:none"
             id="path256" /><path
             d="m 928.059,704.699 c -1.375,0 -2.645,2.86 -3.786,8.93 -16.316,86.812 -7.058,574.531 -2.722,765.411 19.738,-3.23 43.051,-5.35 70.23,-5.35 3.512,0 7.082,0.04 10.729,0.11 -11.822,-171.07 -54.553,-769.14 -74.451,-769.101"
             style="fill:#265e56;fill-opacity:1;fill-rule:nonzero;stroke:none"
             id="path258" /><path
             d="m 1192.19,2651.24 243.93,-119.65 c 0,0 -110.53,-487.87 -53.25,-959.61 C 972.441,1394.57 831.324,1511.5 831.324,1511.5 v 475.77 c 0,0 -86.531,193.54 -22.019,348.77 64.511,155.23 97.461,209.22 97.461,209.22 l 170.514,114.1 114.91,-8.12"
             style="fill:#f5882a;fill-opacity:1;fill-rule:nonzero;stroke:none"
             id="path260" /><path
             d="m 910.953,3076.92 c 0,0 -12.336,-211.65 5.34,-320.81 2.828,-17.47 19.121,-29.39 36.641,-26.9 l 106.196,15.07 -15.12,-116.06 c 0,0 -66.526,-171.22 -39.31,-162.15 27.21,9.07 187.49,185.17 187.49,185.17 l -21.17,395.44 c 0,0 -160.27,30.24 -260.067,30.24"
             style="fill:#ecb788;fill-opacity:1;fill-rule:nonzero;stroke:none"
             id="path262" /><path
             d="m 1077.28,2965.03 c 0,-11.69 -6.23,-21.17 -13.9,-21.17 -7.68,0 -13.9,9.48 -13.9,21.17 0,11.69 6.22,21.17 13.9,21.17 7.67,0 13.9,-9.48 13.9,-21.17"
             style="fill:#39301a;fill-opacity:1;fill-rule:nonzero;stroke:none"
             id="path264" /><path
             d="m 952.07,2965.03 c 0,-11.69 -6.222,-21.17 -13.898,-21.17 -7.676,0 -13.899,9.48 -13.899,21.17 0,11.69 6.223,21.17 13.899,21.17 7.676,0 13.898,-9.48 13.898,-21.17"
             style="fill:#39301a;fill-opacity:1;fill-rule:nonzero;stroke:none"
             id="path266" /><path
             d="m 1031.6,3002.76 0.01,0.01 c 1.01,0.57 16.25,8.02 35.03,7.96 10.04,-0.02 21.01,-1.99 32.12,-7.97 5.88,-3.16 13.21,-0.96 16.38,4.92 3.17,5.88 0.97,13.22 -4.91,16.39 -15.1,8.14 -30.34,10.86 -43.59,10.85 -26.57,-0.08 -45.51,-10.38 -46.51,-10.85 -5.88,-3.17 -8.08,-10.51 -4.91,-16.39 3.16,-5.88 10.5,-8.08 16.38,-4.92"
             style="fill:#689749;fill-opacity:1;fill-rule:nonzero;stroke:none"
             id="path268" /><path
             d="m 1119.61,2755.68 -60.48,-11.4 -15.12,-116.06 c 69.55,32.12 75.6,127.46 75.6,127.46"
             style="fill:#906f5d;fill-opacity:1;fill-rule:nonzero;stroke:none"
             id="path270" /><path
             d="m 1172.29,3022.82 c 0,0 -183.72,36.96 -302.661,34.95 20.156,122.97 108.863,213.69 262.081,199.58 153.21,-14.11 292.32,-145.15 239.9,-510.05 -182.72,-34.55 -182.72,-34.55 -182.72,-34.55 l -16.6,310.07"
             style="fill:#7dc254;fill-opacity:1;fill-rule:nonzero;stroke:none"
             id="path272" /><path
             d="m 1231.04,3228.61 c -31.05,16.38 -64.82,25.56 -99.33,28.74 -23.12,2.13 -44.59,1.61 -64.76,-0.79 24.82,-16.05 172.33,-121.52 110.26,-325.52 v 0 c 46.15,-22.93 130.47,146.32 53.83,297.57"
             style="fill:#e2f5f5;fill-opacity:1;fill-rule:nonzero;stroke:none"
             id="path274" /><path
             d="m 956.41,2944.93 -11.57,-64.57 h 41.715 v 12.09 l -27.258,0.01 9.019,50.34 -11.906,2.13"
             style="fill:#906f5d;fill-opacity:1;fill-rule:nonzero;stroke:none"
             id="path276" /><path
             d="m 965.914,3022.96 c -0.516,0.39 -3.695,2.83 -8.984,5.31 -5.278,2.46 -12.75,5.02 -21.801,5.04 -9.016,0.06 -19.574,-2.84 -29.121,-10.35 -5.27,-4.11 -6.215,-11.71 -2.11,-16.98 4.106,-5.27 11.707,-6.21 16.977,-2.11 5.469,4.19 9.922,5.18 14.254,5.24 4.293,0.02 8.496,-1.31 11.559,-2.76 1.527,-0.71 2.746,-1.42 3.523,-1.92 l 0.805,-0.54 0.117,-0.08 3.094,4.14 -3.176,-4.08 0.082,-0.06 3.094,4.14 -3.176,-4.08 c 5.269,-4.1 12.867,-3.16 16.972,2.11 4.106,5.27 3.161,12.87 -2.109,16.98"
             style="fill:#689749;fill-opacity:1;fill-rule:nonzero;stroke:none"
             id="path278" /><path
             d="m 1436.12,2531.59 c 0,0 100.8,-79.23 141.12,-317.82 40.32,-238.59 77.57,-408.11 77.57,-408.11 l -271.94,70.01 -75.18,439.24 c 0,0 -0.59,208.62 128.43,216.68"
             style="fill:#ecb788;fill-opacity:1;fill-rule:nonzero;stroke:none"
             id="path280" /><path
             d="m 1580.56,2194.28 c -1.11,6.45 -2.21,12.93 -3.32,19.49 -40.32,238.59 -141.12,317.82 -141.12,317.82 -129.02,-8.06 -128.43,-216.68 -128.43,-216.68 l 27.91,-163.03 c 88.97,42.64 185.54,45.87 244.96,42.4"
             style="fill:#f5882a;fill-opacity:1;fill-rule:nonzero;stroke:none"
             id="path282" /><path
             d="M 1654.81,1132.49 H 1279.89 V 618.41 h 374.92 c 41.74,0 75.59,33.84 75.59,75.59 v 362.9 c 0,41.75 -33.85,75.59 -75.59,75.59"
             style="fill:#7dc254;fill-opacity:1;fill-rule:nonzero;stroke:none"
             id="path284" /><path
             d="m 1018.32,1794.12 c -80.168,61.46 -186.996,193.15 -186.996,193.15 v -289.31 c 6.481,-4.39 13.52,-8.51 21.321,-12.23 109.558,-52.28 245.835,46.93 165.675,108.39"
             style="fill:#cb732a;fill-opacity:1;fill-rule:nonzero;stroke:none"
             id="path286" /><path
             d="m 1258.71,2886.41 c 0,-31.74 -25.73,-57.46 -57.46,-57.46 -31.73,0 -57.46,25.72 -57.46,57.46 0,31.73 25.73,57.45 57.46,57.45 31.73,0 57.46,-25.72 57.46,-57.45"
             style="fill:#ecb788;fill-opacity:1;fill-rule:nonzero;stroke:none"
             id="path288" /><path
             d="m 1230.08,2815.42 c 0,-20.92 -16.96,-37.88 -37.88,-37.88 -20.92,0 -37.87,16.96 -37.87,37.88 0,20.91 16.95,37.87 37.87,37.87 20.92,0 37.88,-16.96 37.88,-37.87"
             style="fill:#f5882a;fill-opacity:1;fill-rule:nonzero;stroke:none"
             id="path290" /><path
             d="m 1355.48,694 c 0,-41.75 -33.84,-75.59 -75.59,-75.59 -41.74,0 -75.58,33.84 -75.58,75.59 v 362.9 c 0,41.75 33.84,75.59 75.58,75.59 41.75,0 75.59,-33.84 75.59,-75.59 V 694"
             style="fill:#689749;fill-opacity:1;fill-rule:nonzero;stroke:none"
             id="path292" /><path
             d="m 1355.48,881.09 h 374.91 v 12.1016 h -374.91 z"
             style="fill:#1d423d;fill-opacity:1;fill-rule:nonzero;stroke:none"
             id="path294" /><path
             d="m 1567.82,933.039 c -13.74,0 -24.88,11.141 -24.88,24.883 0,13.738 11.14,24.879 24.88,24.879 13.74,0 24.88,-11.141 24.88,-24.879 0,-13.742 -11.14,-24.883 -24.88,-24.883"
             style="fill:#538e44;fill-opacity:1;fill-rule:nonzero;stroke:none"
             id="path296" /><path
             d="m 1350.83,2573.43 -45.76,22.44 c -25.53,-31.26 -53.62,-90.83 -73.68,-203.74 -46.21,-260.19 -34.74,-699.86 34.09,-1306.79 l 48.07,5.45 c -138.36,1220.01 -3.38,1443.89 37.28,1482.64"
             style="fill:#689749;fill-opacity:1;fill-rule:nonzero;stroke:none"
             id="path298" /><path
             d="m 1014.41,2737.93 24.38,3.46 c 0,0 -46.942,55.11 -66.399,21.47 19.172,-30.16 42.019,-24.93 42.019,-24.93"
             style="fill:#906f5d;fill-opacity:1;fill-rule:nonzero;stroke:none"
             id="path300" /><path
             d="m 952.785,2729.19 c 0.051,0 0.098,0.01 0.149,0.02 v 0 c -0.051,-0.01 -0.098,-0.02 -0.149,-0.02 m -11.191,0.39 c -10.594,2.25 -19.543,9.7 -23.52,19.96 3.977,-10.26 12.926,-17.71 23.52,-19.96 m -25.34,26.77 c -0.004,0.01 -0.004,0.02 -0.004,0.03 0,-0.01 0,-0.02 0.004,-0.03 m -0.086,0.53 v 0.01 -0.01 m -0.039,0.25 c -0.004,0.01 -0.004,0.03 -0.008,0.04 0.004,-0.02 0.004,-0.02 0.008,-0.04 m -0.043,0.26 c 0,0.02 -0.008,0.05 -0.008,0.06 0,-0.02 0.004,-0.04 0.008,-0.06 m -0.043,0.28 v 0.01 -0.01 m -0.039,0.25 c -0.004,0.02 -0.008,0.03 -0.008,0.05 0.004,-0.02 0.004,-0.03 0.008,-0.05 m -0.043,0.28 -0.004,0.01 c 0.004,-0.01 0,0 0.004,-0.01 m -0.035,0.21 c -0.004,0.03 -0.008,0.07 -0.016,0.09 0.008,-0.02 0.012,-0.06 0.016,-0.09 m -0.043,0.28 c -0.004,0.04 -0.008,0.06 -0.016,0.1 0.004,-0.03 0.012,-0.07 0.016,-0.1 m -0.039,0.24 c -0.004,0.04 -0.008,0.07 -0.016,0.11 0.008,-0.04 0.012,-0.07 0.016,-0.11 m -0.043,0.29 c -0.004,0.03 -0.008,0.06 -0.012,0.08 0.004,-0.02 0.008,-0.06 0.012,-0.08 m -0.043,0.28 c -0.004,0.03 -0.012,0.06 -0.016,0.09 0.008,-0.03 0.012,-0.05 0.016,-0.09 m -0.035,0.23 c -0.004,0.03 -0.008,0.06 -0.012,0.09 0.004,-0.03 0.008,-0.06 0.012,-0.09 m -0.043,0.27 c -0.004,0.04 -0.008,0.08 -0.016,0.12 0.004,-0.04 0.012,-0.09 0.016,-0.12 m -0.039,0.27 c -0.008,0.04 -0.012,0.08 -0.016,0.12 0.004,-0.04 0.008,-0.08 0.016,-0.12 m -0.039,0.26 c -0.004,0.04 -0.012,0.07 -0.016,0.11 0.004,-0.03 0.012,-0.08 0.016,-0.11 m -0.043,0.28 c -0.008,0.05 -0.012,0.09 -0.02,0.14 0.008,-0.05 0.012,-0.09 0.02,-0.14 m -0.028,0.19 c -0.039,0.26 -0.078,0.52 -0.117,0.78 0.039,-0.26 0.078,-0.52 0.117,-0.78 m -0.121,0.81 c -10.051,67.93 -9.441,171.21 -7.472,240.83 v 0 c -1.969,-69.63 -2.579,-172.91 7.472,-240.83 m -5.457,295.33 c -10.648,0.45 -21.058,0.7 -31.07,0.7 -2.93,0 -5.824,-0.02 -8.684,-0.06 2.977,0.04 5.985,0.07 9.035,0.07 9.903,0 20.184,-0.25 30.719,-0.69 0,-0.01 0,-0.01 0,-0.02 m -40.258,1.04 c 0.004,0.04 0.012,0.07 0.02,0.11 -0.008,-0.03 -0.016,-0.08 -0.02,-0.11 m 0.078,0.47 c 0.004,0.02 0.004,0.04 0.008,0.06 -0.004,-0.03 -0.004,-0.04 -0.008,-0.06 m 0.082,0.49 c 0,0.01 0.004,0.02 0.004,0.02 -0.004,-0.01 -0.004,-0.01 -0.004,-0.02 m 0.079,0.46 c 0,0.01 0,0.01 0.004,0.02 -0.004,-0.01 -0.004,-0.01 -0.004,-0.02"
             style="fill:#b3d1b6;fill-opacity:1;fill-rule:nonzero;stroke:none"
             id="path302" /><path
             d="m 948.309,2728.88 c -2.289,0 -4.536,0.24 -6.715,0.7 -10.594,2.25 -19.543,9.7 -23.52,19.96 -0.785,2.03 -1.379,4.16 -1.75,6.38 -0.011,0.06 -0.019,0.12 -0.031,0.19 v 0 c -0.012,0.08 -0.027,0.16 -0.039,0.24 -0.004,0.01 -0.004,0.02 -0.004,0.03 -0.027,0.17 -0.055,0.34 -0.082,0.5 v 0.01 c -0.016,0.08 -0.027,0.16 -0.039,0.24 -0.004,0.02 -0.004,0.02 -0.008,0.04 -0.012,0.07 -0.023,0.15 -0.035,0.22 -0.004,0.02 -0.008,0.04 -0.008,0.06 -0.012,0.08 -0.023,0.15 -0.035,0.22 v 0.01 c -0.016,0.08 -0.027,0.16 -0.039,0.24 -0.004,0.02 -0.004,0.03 -0.008,0.05 -0.012,0.08 -0.023,0.16 -0.035,0.23 -0.004,0.01 0,0 -0.004,0.01 -0.012,0.07 -0.019,0.13 -0.031,0.2 -0.004,0.03 -0.008,0.07 -0.016,0.09 -0.008,0.06 -0.019,0.13 -0.027,0.19 -0.004,0.03 -0.012,0.07 -0.016,0.1 -0.008,0.05 -0.015,0.1 -0.023,0.14 -0.004,0.04 -0.008,0.07 -0.016,0.11 -0.008,0.06 -0.019,0.12 -0.027,0.18 -0.004,0.02 -0.008,0.06 -0.012,0.08 -0.012,0.07 -0.019,0.13 -0.031,0.2 -0.004,0.04 -0.008,0.06 -0.016,0.09 -0.004,0.04 -0.012,0.1 -0.019,0.14 -0.004,0.03 -0.008,0.06 -0.012,0.09 -0.012,0.06 -0.02,0.12 -0.031,0.18 -0.004,0.03 -0.012,0.08 -0.016,0.12 -0.008,0.05 -0.016,0.1 -0.023,0.15 -0.008,0.04 -0.012,0.08 -0.016,0.12 -0.008,0.04 -0.016,0.09 -0.023,0.14 -0.004,0.03 -0.012,0.08 -0.016,0.11 -0.012,0.06 -0.02,0.12 -0.027,0.17 -0.008,0.05 -0.012,0.09 -0.02,0.14 -0.004,0.02 -0.008,0.03 -0.008,0.05 -0.039,0.26 -0.078,0.52 -0.117,0.78 0,0.01 -0.004,0.02 -0.004,0.03 -10.051,67.92 -9.441,171.2 -7.472,240.83 1.714,-0.87 3.609,-1.32 5.511,-1.32 2.602,0 5.219,0.83 7.426,2.55 5.469,4.19 9.922,5.18 14.254,5.24 0.027,0 0.055,0 0.086,0 4.262,0 8.43,-1.32 11.473,-2.76 1.527,-0.71 2.746,-1.42 3.523,-1.92 l 0.805,-0.54 0.117,-0.08 h 0.004 c 2.187,-1.68 4.773,-2.49 7.336,-2.49 3.601,0 7.168,1.6 9.55,4.66 4.106,5.27 3.161,12.87 -2.109,16.98 -0.516,0.39 -3.695,2.83 -8.984,5.31 -5.278,2.46 -12.75,5.02 -21.801,5.04 -0.094,0 -0.188,0 -0.281,0 -8.125,0 -17.481,-2.41 -26.2,-8.41 0.45,12.77 0.915,23.72 1.305,32.24 v 0 c 0,0.01 0,0.01 0,0.02 71.449,-3.02 154.397,-15.34 207.577,-24.37 2.11,-42.6 -7.54,-91.37 -35.72,-146.38 -21.06,-46.39 -36.37,-95.07 -47.5,-140.13 -8.68,9.04 -28.38,27.46 -44.708,27.46 -6.61,0 -12.661,-3.01 -17.211,-10.88 v 0 0 l -0.305,-0.2 c -7.738,-5.04 -11.262,-14.55 -8.68,-23.41 l 2.395,-8.22 -12.867,-1.82 c -0.051,-0.01 -0.098,-0.02 -0.149,-0.02 -1.504,-0.21 -2.996,-0.31 -4.476,-0.31 m 8.101,216.05 -11.57,-64.57 h 41.715 v 12.09 l -27.258,0.01 9.019,50.34 -11.906,2.13 m 106.97,41.27 c -7.68,0 -13.9,-9.48 -13.9,-21.17 0,-11.69 6.22,-21.17 13.9,-21.17 7.67,0 13.9,9.48 13.9,21.17 0,11.69 -6.23,21.17 -13.9,21.17 m -125.208,0 c -7.676,0 -13.899,-9.48 -13.899,-21.17 0,-11.69 6.223,-21.17 13.899,-21.17 7.676,0 13.898,9.48 13.898,21.17 0,11.69 -6.222,21.17 -13.898,21.17 m 128.208,24.53 c 0.08,0 0.17,0 0.26,0 10.04,-0.02 21.01,-1.99 32.12,-7.97 1.82,-0.98 3.78,-1.44 5.72,-1.44 4.31,0 8.48,2.3 10.66,6.36 3.17,5.88 0.97,13.22 -4.91,16.39 -15.07,8.12 -30.27,10.85 -43.5,10.85 -0.03,0 -0.06,0 -0.09,0 -26.57,-0.08 -45.51,-10.38 -46.51,-10.85 -5.88,-3.17 -8.08,-10.51 -4.91,-16.39 2.18,-4.06 6.35,-6.36 10.66,-6.36 1.93,0 3.9,0.46 5.72,1.44 l 0.01,0.01 c 1,0.57 16.12,7.96 34.77,7.96"
             style="fill:#bda37b;fill-opacity:1;fill-rule:nonzero;stroke:none"
             id="path304" /><path
             d="m 1063.38,2943.86 c -7.68,0 -13.9,9.48 -13.9,21.17 0,11.69 6.22,21.17 13.9,21.17 7.67,0 13.9,-9.48 13.9,-21.17 0,-11.69 -6.23,-21.17 -13.9,-21.17"
             style="fill:#2e2916;fill-opacity:1;fill-rule:nonzero;stroke:none"
             id="path306" /><path
             d="m 938.172,2943.86 c -7.676,0 -13.899,9.48 -13.899,21.17 0,11.69 6.223,21.17 13.899,21.17 7.676,0 13.898,-9.48 13.898,-21.17 0,-11.69 -6.222,-21.17 -13.898,-21.17"
             style="fill:#2e2916;fill-opacity:1;fill-rule:nonzero;stroke:none"
             id="path308" /><path
             d="m 1104.48,3001.32 c -1.94,0 -3.9,0.46 -5.72,1.44 -11.11,5.98 -22.08,7.95 -32.12,7.97 -0.09,0 -0.18,0 -0.26,0 -18.65,0 -33.77,-7.39 -34.77,-7.96 l -0.01,-0.01 c -1.82,-0.98 -3.79,-1.44 -5.72,-1.44 -4.31,0 -8.48,2.3 -10.66,6.36 -3.17,5.88 -0.97,13.22 4.91,16.39 1,0.47 19.94,10.77 46.51,10.85 0.03,0 0.06,0 0.09,0 13.23,0 28.43,-2.73 43.5,-10.85 5.88,-3.17 8.08,-10.51 4.91,-16.39 -2.18,-4.06 -6.35,-6.36 -10.66,-6.36"
             style="fill:#578341;fill-opacity:1;fill-rule:nonzero;stroke:none"
             id="path310" /><path
             d="m 1117.53,3032.79 c -53.18,9.03 -136.128,21.35 -207.577,24.37 -10.535,0.44 -20.816,0.69 -30.719,0.69 -3.05,0 -6.058,-0.03 -9.035,-0.07 -0.191,-0.01 -0.383,-0.01 -0.57,-0.01 v 0 c 0.019,0.14 0.043,0.28 0.066,0.41 0.004,0.03 0.012,0.08 0.02,0.11 0.019,0.12 0.039,0.24 0.058,0.36 0.004,0.02 0.004,0.03 0.008,0.06 0.028,0.14 0.051,0.29 0.074,0.43 0,0.01 0,0.01 0.004,0.02 0.024,0.14 0.047,0.3 0.075,0.44 0,0.01 0,0.01 0.004,0.02 13.246,77.91 54.285,142.49 121.804,175.47 47.308,-32.74 120.698,-99.66 125.788,-202.3"
             style="fill:#6aab4f;fill-opacity:1;fill-rule:nonzero;stroke:none"
             id="path312" /><path
             d="M 986.555,2880.36 H 944.84 l 11.57,64.57 11.906,-2.13 -9.019,-50.34 27.258,-0.01 v -12.09"
             style="fill:#766251;fill-opacity:1;fill-rule:nonzero;stroke:none"
             id="path314" /><path
             d="m 958.473,3001.32 c -2.563,0 -5.149,0.81 -7.336,2.49 h -0.004 l -0.117,0.08 -0.805,0.54 c -0.777,0.5 -1.996,1.21 -3.523,1.92 -3.043,1.44 -7.211,2.76 -11.473,2.76 -0.031,0 -0.059,0 -0.086,0 -4.332,-0.06 -8.785,-1.05 -14.254,-5.24 -2.207,-1.72 -4.824,-2.55 -7.426,-2.55 -1.902,0 -3.797,0.45 -5.511,1.32 v 0 c 0.222,7.89 0.464,15.34 0.71,22.26 8.719,6 18.075,8.41 26.2,8.41 0.093,0 0.187,0 0.281,0 9.051,-0.02 16.523,-2.58 21.801,-5.04 5.289,-2.48 8.468,-4.92 8.984,-5.31 5.27,-4.11 6.215,-11.71 2.109,-16.98 -2.382,-3.06 -5.949,-4.66 -9.55,-4.66"
             style="fill:#578341;fill-opacity:1;fill-rule:nonzero;stroke:none"
             id="path316" /><path
             d="m 1014.41,2737.93 -13.38,19.31 c -4.065,5.85 -10.589,9.01 -17.233,9.01 -3.922,0 -7.883,-1.1 -11.406,-3.39 v 0 c 4.55,7.87 10.601,10.88 17.211,10.88 16.328,0 36.028,-18.42 44.708,-27.46 -0.47,-1.91 -0.94,-3.82 -1.4,-5.72 l -18.5,-2.63"
             style="fill:#766251;fill-opacity:1;fill-rule:nonzero;stroke:none"
             id="path318" /><path
             d="m 1001.03,2757.24 636.63,-918.27 c 44.07,-63.56 31.38,-150.4 -29.04,-198.69 l -2.4,-1.92 c -69.15,-55.26 -171.09,-37.37 -217.28,38.14 l -404.288,660.82 c -30.519,49.88 -40.464,109.67 -27.738,166.75 l 32.524,145.87 -26.032,89.31 c -2.582,8.86 0.942,18.37 8.68,23.41 l 0.305,0.2 c 9.492,6.18 22.179,3.69 28.639,-5.62"
             style="fill:#ecb788;fill-opacity:1;fill-rule:nonzero;stroke:none"
             id="path320" /><path
             d="m 1514.8,1606.23 c -41.17,0 -81.8,17.25 -110.4,49.65 11.03,43.66 41.78,79.45 82.26,97.22 35.1,-46.73 71.64,-88.19 109.39,-121.99 3.38,2.26 6.76,4.54 10,7.12 -27.17,-21.66 -59.37,-32 -91.25,-32 m 94.07,34.25 c 0.02,0.02 0.03,0.03 0.05,0.04 -0.02,-0.01 -0.03,-0.02 -0.05,-0.04"
             style="fill:#d2a47d;fill-opacity:1;fill-rule:nonzero;stroke:none"
             id="path322" /><path
             d="m 1661.15,1727.02 c 5.12,26.29 3.09,53.91 -6.57,79.69 0,0 0,0 -0.01,0 9.67,-25.78 11.7,-53.4 6.58,-79.69"
             style="fill:#d9bba4;fill-opacity:1;fill-rule:nonzero;stroke:none"
             id="path324" /><path
             d="m 1654.58,1806.71 c -4.19,11.18 -9.82,22.03 -16.92,32.26 l -234.39,338.08 h 0.01 l 234.38,-338.08 c 7.1,-10.23 12.72,-21.07 16.91,-32.26 0.01,0 0.01,0 0.01,0"
             style="fill:#f3ceae;fill-opacity:1;fill-rule:nonzero;stroke:none"
             id="path326" /><path
             d="m 1403.27,2177.05 -59.6,85.97 59.61,-85.97 h -0.01"
             style="fill:#f0b031;fill-opacity:1;fill-rule:nonzero;stroke:none"
             id="path328" /><path
             d="m 1606.05,1638.23 c 0.06,0.05 0.11,0.09 0.17,0.13 l 2.4,1.92 c 0.08,0.07 0.17,0.14 0.25,0.2 -0.08,-0.06 -0.17,-0.13 -0.25,-0.2 l -2.4,-1.92 c -0.06,-0.04 -0.11,-0.08 -0.17,-0.13 m 2.87,2.29 c 23.65,19.01 39.82,43.97 48.22,71.08 -26.56,32.7 -67.05,53.62 -112.45,53.62 -20.65,0 -40.27,-4.32 -58.03,-12.12 -244.7,325.85 -417.77,906.23 -417.77,906.26 l 274.78,-396.34 59.6,-85.97 234.39,-338.08 c 7.1,-10.23 12.73,-21.08 16.92,-32.26 9.66,-25.78 11.69,-53.4 6.57,-79.69 -6.43,-33.01 -24.14,-63.93 -52.23,-86.5"
             style="fill:#f3ceae;fill-opacity:1;fill-rule:nonzero;stroke:none"
             id="path330" /><path
             d="m 1596.05,1631.11 c -37.75,33.8 -74.29,75.26 -109.39,121.99 17.76,7.8 37.38,12.12 58.03,12.12 45.4,0 85.89,-20.92 112.45,-53.62 -8.4,-27.11 -24.57,-52.07 -48.22,-71.08 -0.02,-0.01 -0.03,-0.02 -0.05,-0.04 -0.08,-0.06 -0.17,-0.13 -0.25,-0.2 l -2.4,-1.92 c -0.06,-0.04 -0.11,-0.08 -0.17,-0.13 -3.24,-2.58 -6.62,-4.86 -10,-7.12"
             style="fill:#e2c1a6;fill-opacity:1;fill-rule:nonzero;stroke:none"
             id="path332" /><path
             d="m 2437.63,-24.9609 h 255.53 V 1613.98 l -134,105.9 -125.7,-159.18 4.17,-1585.6609"
             style="fill:#e2f5f5;fill-opacity:1;fill-rule:nonzero;stroke:none"
             id="path334" /><path
             d="m 2690.82,2391.76 c 0,0 31.6,30.98 15.35,71.62 -16.26,40.65 -94.3,55.28 -186.97,0 -92.67,-55.27 -137.35,-77.31 -128.83,-125.63 28.03,-15.81 300.45,54.01 300.45,54.01"
             style="fill:#39301a;fill-opacity:1;fill-rule:nonzero;stroke:none"
             id="path336" /><path
             d="m 2593.34,2494.37 c 27.49,-58.61 -20.8,-130.79 -20.83,-130.83 63.19,14.1 118.31,28.22 118.31,28.22 0,0 31.6,30.98 15.35,71.62 -11.65,29.13 -55.09,44.73 -112.83,30.99"
             style="fill:#5f512d;fill-opacity:1;fill-rule:nonzero;stroke:none"
             id="path338" /><path
             d="m 2660.18,1912.29 442.72,-44.23 V -24.9609 H 2693.16 V 1599.93 l -32.98,312.36"
             style="fill:#7dc254;fill-opacity:1;fill-rule:nonzero;stroke:none"
             id="path340" /><path
             d="M 2693.16,1599.93 V 923.492 l 1.08,-1.941 162.71,371.949 -81.35,76.61 105.94,24.69 -101.48,505.51 -119.88,11.98 32.98,-312.36"
             style="fill:#95d55f;fill-opacity:1;fill-rule:nonzero;stroke:none"
             id="path342" /><path
             d="m 3102.9,1868.06 486.72,-736.94 -243.36,-104.05 -243.36,218.05 v 622.94"
             style="fill:#95d55f;fill-opacity:1;fill-rule:nonzero;stroke:none"
             id="path344" /><path
             d="m 2433.46,2113.08 v -335.74 l 125.7,-57.46 116.9,116.9 -7.29,212.72 -235.31,63.58"
             style="fill:#ecb788;fill-opacity:1;fill-rule:nonzero;stroke:none"
             id="path346" /><path
             d="m 2437.63,2111.95 v -17.26 c 0,0 17.21,-201.5 238.43,-257.91 l -7.29,212.72 -231.14,62.45"
             style="fill:#906f5d;fill-opacity:1;fill-rule:nonzero;stroke:none"
             id="path348" /><path
             d="m 2450.92,2153.67 c 0,-30.97 -25.11,-56.09 -56.09,-56.09 -30.98,0 -56.09,25.12 -56.09,56.09 0,30.98 25.11,56.09 56.09,56.09 30.98,0 56.09,-25.11 56.09,-56.09"
             style="fill:#ecb788;fill-opacity:1;fill-rule:nonzero;stroke:none"
             id="path350" /><path
             d="m 2690.82,2391.76 c 0,0 37.14,-27 37.14,-222.8 v -199.38 c 0,-35.97 -32.38,-63.63 -67.78,-57.29 -76.35,13.68 -193.58,55.38 -222.55,182.4 -43.88,192.42 -47.26,243.06 -47.26,243.06 0,0 165.42,84.39 300.45,54.01"
             style="fill:#ecb788;fill-opacity:1;fill-rule:nonzero;stroke:none"
             id="path352" /><path
             d="m 2727.96,1969.58 v 134.51 c -15.61,29.26 -39.68,43.89 -80.32,47.91 -40.65,4.01 -88.48,-47.91 -88.48,-47.91 0,0 -80.6,29.26 -109.87,130.06 -29.25,100.75 30.6,138.9 30.66,138.93 -52.9,-16.63 -89.58,-35.33 -89.58,-35.33 0,0 3.38,-50.64 47.26,-243.06 28.97,-127.02 146.2,-168.72 222.55,-182.4 35.4,-6.34 67.78,21.32 67.78,57.29"
             style="fill:#39301a;fill-opacity:1;fill-rule:nonzero;stroke:none"
             id="path354" /><path
             d="m 2585.86,2229.27 c 0,-9.38 -5.98,-16.99 -13.35,-16.99 -7.37,0 -13.35,7.61 -13.35,16.99 0,9.38 5.98,16.98 13.35,16.98 7.37,0 13.35,-7.6 13.35,-16.98"
             style="fill:#39301a;fill-opacity:1;fill-rule:nonzero;stroke:none"
             id="path356" /><path
             d="m 2717.55,2230.74 c 0,-8.57 -5.46,-15.52 -12.2,-15.52 -6.73,0 -12.19,6.95 -12.19,15.52 0,8.57 5.46,15.51 12.19,15.51 6.74,0 12.2,-6.94 12.2,-15.51"
             style="fill:#39301a;fill-opacity:1;fill-rule:nonzero;stroke:none"
             id="path358" /><path
             d="m 2606.31,2301.66 c -1.07,0.54 -19.54,10.66 -46.82,10.72 -19.87,0.06 -44.5,-5.73 -68.43,-24.54 -5.26,-4.11 -6.18,-11.72 -2.06,-16.98 4.12,-5.26 11.72,-6.18 16.98,-2.06 19.6,15.27 38.08,19.33 53.51,19.39 10.53,0 19.58,-2.03 25.88,-4.05 3.15,-1 5.61,-2 7.22,-2.71 l 1.74,-0.81 0.36,-0.18 0.35,0.66 -0.36,-0.66 h 0.01 l 0.35,0.66 -0.36,-0.66 c 5.85,-3.21 13.2,-1.06 16.42,4.8 3.21,5.85 1.06,13.21 -4.79,16.42"
             style="fill:#39301a;fill-opacity:1;fill-rule:nonzero;stroke:none"
             id="path360" /><path
             d="m 2749.6,2183.26 v 6.04 h -65.7 c -5.27,0.01 -9.54,4.28 -9.55,9.55 v 42.54 c 0.01,5.27 4.28,9.54 9.55,9.55 h 65.7 c 5.27,-0.01 9.53,-4.28 9.54,-9.55 v -42.54 c -0.01,-5.27 -4.27,-9.54 -9.54,-9.55 v -6.04 -6.05 c 11.95,0 21.64,9.69 21.64,21.64 v 42.54 c 0,11.96 -9.69,21.64 -21.64,21.64 h -65.7 c -11.96,0 -21.64,-9.68 -21.65,-21.64 v -42.54 c 0.01,-11.95 9.69,-21.64 21.65,-21.64 h 65.7 v 6.05"
             style="fill:#1d423d;fill-opacity:1;fill-rule:nonzero;stroke:none"
             id="path362" /><path
             d="m 2676.63,2291.08 -3.05,3.58 2.95,-3.66 0.1,0.08 -3.05,3.58 2.95,-3.66 c 0.11,0.1 2.89,2.3 7.75,4.41 4.88,2.11 11.79,4.15 20.53,4.15 3.58,0 7.48,-0.34 11.71,-1.18 6.55,-1.3 12.92,2.96 14.22,9.51 1.3,6.55 -2.96,12.92 -9.51,14.22 -5.79,1.15 -11.29,1.65 -16.42,1.65 -13.39,0 -24.16,-3.37 -31.6,-6.8 -7.45,-3.44 -11.65,-6.93 -12.29,-7.48 -5.08,-4.34 -5.68,-11.97 -1.35,-17.05 4.34,-5.08 11.98,-5.68 17.06,-1.35"
             style="fill:#39301a;fill-opacity:1;fill-rule:nonzero;stroke:none"
             id="path364" /><path
             d="m 2612.42,2183.26 v 6.04 h -87.23 c -5.52,0.01 -9.98,4.48 -9.99,9.99 v 41.66 c 0.01,5.51 4.47,9.98 9.99,9.99 h 87.23 c 5.52,-0.01 9.98,-4.48 9.99,-9.99 v -41.66 c -0.01,-5.51 -4.47,-9.98 -9.99,-9.99 v -6.04 -6.05 c 12.2,0 22.08,9.88 22.09,22.08 v 41.66 c -0.01,12.2 -9.89,22.08 -22.09,22.08 h -87.23 c -12.2,0 -22.08,-9.88 -22.09,-22.08 v -41.66 c 0.01,-12.2 9.89,-22.08 22.09,-22.08 h 87.23 v 6.05"
             style="fill:#1d423d;fill-opacity:1;fill-rule:nonzero;stroke:none"
             id="path366" /><path
             d="m 2412.05,2203.71 h 97.0977 v 12.0977 H 2412.05 Z"
             style="fill:#1d423d;fill-opacity:1;fill-rule:nonzero;stroke:none"
             id="path368" /><path
             d="m 2628.46,2234.9 h 39.8398 v 12.0977 H 2628.46 Z"
             style="fill:#1d423d;fill-opacity:1;fill-rule:nonzero;stroke:none"
             id="path370" /><path
             d="M 2437.63,1868.06 V -24.9609 H 1899.35 V 1411.85 c 0,115.24 65.2,220.56 168.35,271.94 l 369.93,184.27"
             style="fill:#7dc254;fill-opacity:1;fill-rule:nonzero;stroke:none"
             id="path372" /><path
             d="m 2496.31,1688.21 53.2,-127.51 -53.2,-1131.071 89.55,-95.367 62.52,95.367 -21.68,1131.071 17.84,127.51 -85.38,31.67 -62.85,-31.67"
             style="fill:#f5882a;fill-opacity:1;fill-rule:nonzero;stroke:none"
             id="path374" /><path
             d="m 2437.63,1868.06 -109.36,-54.47 -56.61,-405.95 96.2,-24.05 -68.14,-92.19 133.74,-369.849 4.17,36.418 v 910.091"
             style="fill:#689749;fill-opacity:1;fill-rule:nonzero;stroke:none"
             id="path376" /><path
             d="m 1987.98,1626.11 c -55.77,-56.04 -88.63,-132.6 -88.63,-214.26 V -24.9609 h 372.31 c 0,135.6329 0,563.4609 0,1016.0629 0,548.338 -283.67,634.998 -283.68,635.008"
             style="fill:#689749;fill-opacity:1;fill-rule:nonzero;stroke:none"
             id="path378" /><path
             d="m 2875.12,452.832 h 227.777 v 96.7695 H 2875.12 Z"
             style="fill:#95d55f;fill-opacity:1;fill-rule:nonzero;stroke:none"
             id="path380" /><path
             d="M 2749.59,1621.08 3102.9,973.398 v 161.352 z"
             style="fill:#1d423d;fill-opacity:1;fill-rule:nonzero;stroke:none"
             id="path382" /><path
             d="m 2644.54,2234.15 c 0,0 68.93,-64.04 31.52,-83.72 -38.18,1.44 -39.57,16.88 -39.57,16.88 l 8.05,66.84"
             style="fill:#ecb788;fill-opacity:1;fill-rule:nonzero;stroke:none"
             id="path384" /><path
             d="m 2644.54,2234.15 c 0,0 63.21,-75.97 24.23,-85.55 30.74,6.5 25.05,17.23 25.05,17.23 0,0 -1.02,52.19 -49.28,68.32"
             style="fill:#906f5d;fill-opacity:1;fill-rule:nonzero;stroke:none"
             id="path386" /><path
             d="M 2437.63,1777.34 V 1560.7 l 121.53,159.18 -121.53,57.46"
             style="fill:#ffffff;fill-opacity:1;fill-rule:nonzero;stroke:none"
             id="path388" /><path
             d="m 2586.63,335.43 v 0 l 30.32,46.25 -30.32,-46.25 m 61.75,94.199 -21.68,1131.071 21.68,-1131.059"
             style="fill:#edf9f9;fill-opacity:1;fill-rule:nonzero;stroke:none"
             id="path390" /><path
             d="m 2586.63,335.43 13.86,1191.93 c 0,0 2.45,52.41 0,93.72 -1,16.87 -16.4,55.9 -34.28,96.19 l 78.33,-29.06 -17.84,-127.51 21.68,-1131.071 -31.43,-47.949 -30.32,-46.25"
             style="fill:#f0b031;fill-opacity:1;fill-rule:nonzero;stroke:none"
             id="path392" /><path
             d="m 2676.06,1836.78 18.18,-236.85 -135.08,119.95 z"
             style="fill:#ffffff;fill-opacity:1;fill-rule:nonzero;stroke:none"
             id="path394" /><path
             d="m 2372.47,2155.58 57.14,-47.17 c 2.58,-2.12 6.39,-1.76 8.52,0.82 2.12,2.57 1.76,6.39 -0.82,8.51 l -57.14,47.16 c -2.57,2.13 -6.39,1.77 -8.51,-0.81 -2.13,-2.58 -1.76,-6.39 0.81,-8.51"
             style="fill:#906f5d;fill-opacity:1;fill-rule:nonzero;stroke:none"
             id="path396" /><path
             d="m 1899.35,1411.85 v 0 c 0,0.14 0,0.29 0,0.43 0,-0.15 0,-0.28 0,-0.43"
             style="fill:#538e44;fill-opacity:1;fill-rule:nonzero;stroke:none"
             id="path398" /><path
             d="m 1899.35,1412.39 c 0,0.12 0,0.26 0,0.38 v -0.01 c 0,-0.11 0,-0.25 0,-0.37 v 0"
             style="fill:#8e6823;fill-opacity:1;fill-rule:nonzero;stroke:none"
             id="path400" /><path
             d="m 1899.35,1412.39 c 0,0.12 0,0.26 0,0.37 0,-0.12 0,-0.24 0,-0.37"
             style="fill:#538e44;fill-opacity:1;fill-rule:nonzero;stroke:none"
             id="path402" /><path
             d="m 1899.35,1412.82 c 0,0.15 0.01,0.29 0.01,0.44 v 0 c 0,-0.15 -0.01,-0.29 -0.01,-0.44 v 0"
             style="fill:#8e6823;fill-opacity:1;fill-rule:nonzero;stroke:none"
             id="path404" /><path
             d="m 1899.35,1412.82 c 0,0.15 0.01,0.29 0.01,0.44 0,-0.14 -0.01,-0.29 -0.01,-0.44"
             style="fill:#538e44;fill-opacity:1;fill-rule:nonzero;stroke:none"
             id="path406" /><path
             d="m 1899.36,1413.33 c 0,0.14 0,0.27 0,0.4 v 0 c 0,-0.13 0,-0.26 0,-0.4 v 0"
             style="fill:#8e6823;fill-opacity:1;fill-rule:nonzero;stroke:none"
             id="path408" /><path
             d="m 1899.36,1413.33 c 0,0.14 0,0.27 0,0.4 0,-0.13 0,-0.26 0,-0.4"
             style="fill:#538e44;fill-opacity:1;fill-rule:nonzero;stroke:none"
             id="path410" /><path
             d="m 1899.36,1413.78 c 0.27,43.23 9.72,85.03 26.89,123.06 v 0 c -17.17,-38.03 -26.62,-79.83 -26.89,-123.06 v 0"
             style="fill:#8e6823;fill-opacity:1;fill-rule:nonzero;stroke:none"
             id="path412" /><path
             d="m 1926.25,1536.84 v 0 c 23.48,51.99 61.41,96.96 110.1,128.93 v 0 c -48.69,-31.97 -86.62,-76.94 -110.1,-128.93"
             style="fill:#8c842c;fill-opacity:1;fill-rule:nonzero;stroke:none"
             id="path414" /><path
             d="m 2047.5,1672.76 v 0 c 6.56,3.91 13.3,7.59 20.2,11.03 -6.9,-3.44 -13.64,-7.12 -20.2,-11.03"
             style="fill:#162f2b;fill-opacity:1;fill-rule:nonzero;stroke:none"
             id="path416" /><path
             d="m 2036.35,1665.77 v 0 c 3.66,2.41 7.38,4.74 11.15,6.99 v 0 c -3.77,-2.25 -7.49,-4.58 -11.15,-6.99"
             style="fill:#538e44;fill-opacity:1;fill-rule:nonzero;stroke:none"
             id="path418" /><path
             d="m 1899.36,1413.78 c 0.27,43.23 9.72,85.03 26.89,123.06 23.48,51.99 61.41,96.96 110.1,128.93 3.66,2.41 7.38,4.74 11.15,6.99 6.56,3.91 13.3,7.59 20.2,11.03 v 0 l 260.57,129.8 -17.54,-125.81 c -83,-39.68 -183.18,-91.35 -223.11,-127.06 -54.37,51.56 -99.64,65.38 -99.64,65.39 -55.33,-55.6 -88.11,-131.4 -88.62,-212.33"
             style="fill:#538e44;fill-opacity:1;fill-rule:nonzero;stroke:none"
             id="path420" /><path
             d="m 2310.73,1687.78 17.54,125.81 109.36,54.47 v -122.27 c 0,0 -57.43,-24.8 -126.9,-58.01"
             style="fill:#446d36;fill-opacity:1;fill-rule:nonzero;stroke:none"
             id="path422" /><path
             d="m 2090.65,0 h -191.3 v 1411.85 c 0,0.15 0,0.28 0,0.43 v 0 c 0,0.04 0,0.07 0,0.11 v 0 c 0,0.13 0,0.25 0,0.37 v 0.01 c 0,0.02 0,0.03 0,0.05 v 0 c 0,0.15 0.01,0.3 0.01,0.44 v 0 c 0,0.02 0,0.05 0,0.07 v 0 c 0,0.14 0,0.27 0,0.4 v 0 c 0,0.02 0,0.03 0,0.05 v 0 c 0.51,80.93 33.29,156.73 88.62,212.33 0,-0.01 45.27,-13.83 99.64,-65.39 0,-0.01 -0.01,-0.02 -0.02,-0.02 -73.34,-65.6 -97.53,-630.079 -37.05,-1011.098 C 2086.56,322.73 2092.07,123.859 2090.65,0"
             style="fill:#446d36;fill-opacity:1;fill-rule:nonzero;stroke:none"
             id="path424" /><path
             d="m 2659.87,1912.35 c -0.02,0 -0.04,0 -0.06,0.01 0.02,0 0.04,-0.01 0.06,-0.01 m 68.09,191.74 c -12.69,23.78 -30.96,37.9 -59.19,44.51 30.74,6.5 25.05,17.23 25.05,17.23 0,0 -0.08,4.55 -1.45,11.38 h 35.56 c 0.01,-1.23 0.01,-2.46 0.02,-3.69 0,-1.51 0.01,-3.03 0.01,-4.56 v -64.87 m -168.8,0 c 0,0 -19.24,6.98 -42.33,25.88 -1.88,17.53 -3.04,34.48 -3.61,50.76 3.45,-2.23 7.55,-3.52 11.97,-3.52 h 87.23 v 6.05 6.04 h -87.23 c -5.52,0.01 -9.98,4.48 -9.99,9.99 v 41.66 c 0.01,5.51 4.47,9.98 9.99,9.99 h 87.23 c 5.52,-0.01 9.98,-4.48 9.99,-9.99 v -41.66 c -0.01,-5.51 -4.47,-9.98 -9.99,-9.99 v -6.04 -6.05 c 12.2,0 22.08,9.88 22.09,22.08 v 35.61 h 27.74 v -9.47 c -5.05,3.46 -10.91,6.45 -17.71,8.72 v 0 l -8.05,-66.84 c 0,0 1.34,-14.85 37.41,-16.78 -1.47,-0.8 -3.17,-1.45 -5.13,-1.93 -6.5,1.52 -13.52,2.65 -21.13,3.4 -1.51,0.15 -3.04,0.22 -4.57,0.22 -39.57,0 -83.91,-48.13 -83.91,-48.13 m 13.35,142.16 c -7.37,0 -13.35,-7.6 -13.35,-16.98 0,-9.38 5.98,-16.99 13.35,-16.99 7.37,0 13.35,7.61 13.35,16.99 0,9.38 -5.98,16.98 -13.35,16.98"
             style="fill:#f3ceae;fill-opacity:1;fill-rule:nonzero;stroke:none"
             id="path426" /><path
             d="m 2670.34,1911.38 c -3.34,0 -6.74,0.3 -10.16,0.91 v 0 c -0.11,0.02 -0.21,0.04 -0.31,0.06 -0.02,0 -0.04,0.01 -0.06,0.01 -29.17,5.25 -64.25,14.66 -98.09,31.27 -25.28,66.99 -38.83,129.77 -44.89,186.34 23.09,-18.9 42.33,-25.88 42.33,-25.88 0,0 44.34,48.13 83.91,48.13 1.53,0 3.06,-0.07 4.57,-0.22 7.61,-0.75 14.63,-1.88 21.13,-3.4 v 0 0 c 28.23,-6.61 46.5,-20.73 59.19,-44.51 v 0 -96.07 l -5.86,1.97 c -3.34,1.12 -6.73,1.65 -10.06,1.65 -0.01,0 -0.01,0 -0.02,0 v 0 0 c -0.02,0 -0.03,0 -0.05,0 -12.62,-0.02 -24.44,-7.63 -29.36,-19.91 -0.04,-0.11 -0.08,-0.23 -0.13,-0.34 -0.03,-0.09 -0.06,-0.17 -0.09,-0.25 v 0 l -0.18,-0.45 c -3.83,-10.17 -2.19,-21.58 4.35,-30.25 l 24.25,-32.18 c -10.5,-10.47 -24.89,-16.88 -40.47,-16.88"
             style="fill:#4f4424;fill-opacity:1;fill-rule:nonzero;stroke:none"
             id="path428" /><path
             d="m 2726.99,2220.8 v 0 c -0.41,10.68 -0.96,20.72 -1.61,30.14 v 0 c 0.65,-9.42 1.2,-19.46 1.61,-30.14"
             style="fill:#f7dfc9;fill-opacity:1;fill-rule:nonzero;stroke:none"
             id="path430" /><path
             d="m 2727.82,2189.3 h -38.76 c -2.86,8.15 -7.42,17.29 -14.71,25.48 v 26.61 c 0.01,5.27 4.28,9.54 9.55,9.55 h 41.48 c 0.65,-9.42 1.2,-19.46 1.61,-30.14 0.39,-9.93 0.67,-20.41 0.83,-31.5 m -22.47,56.95 c -6.73,0 -12.19,-6.94 -12.19,-15.51 0,-8.57 5.46,-15.52 12.19,-15.52 6.74,0 12.2,6.95 12.2,15.52 0,8.57 -5.46,15.51 -12.2,15.51"
             style="fill:#f3ceae;fill-opacity:1;fill-rule:nonzero;stroke:none"
             id="path432" /><path
             d="m 2724.46,2263.03 v 0 c -1.08,12.99 -2.37,24.7 -3.8,35.25 v 0 c 1.43,-10.55 2.72,-22.26 3.8,-35.25 m -7.75,59.86 v 0 c -0.56,2.94 -1.12,5.75 -1.69,8.45 v 0 c 0.57,-2.7 1.13,-5.51 1.69,-8.45"
             style="fill:#f7dfc9;fill-opacity:1;fill-rule:nonzero;stroke:none"
             id="path434" /><path
             d="m 2715.02,2331.34 c -10.69,50.49 -24.13,60.37 -24.2,60.42 v 0 0 c 0,0 13.48,-9.8 24.2,-60.42 v 0"
             style="fill:#328576;fill-opacity:1;fill-rule:nonzero;stroke:none"
             id="path436" /><path
             d="m 2690.82,2391.76 v 0 c -2.74,0.62 -5.48,1.19 -8.24,1.71 2.76,-0.52 5.5,-1.09 8.24,-1.71 v 0"
             style="fill:#85703d;fill-opacity:1;fill-rule:nonzero;stroke:none"
             id="path438" /><path
             d="m 2662.99,2247 h -29.32 c -2.63,9.25 -11.15,16.03 -21.25,16.03 h -87.23 c -3.66,0 -7.1,-0.89 -10.14,-2.45 0.43,5.26 0.92,10.41 1.45,15.45 15.67,9.38 30.35,12.11 42.99,12.16 10.53,0 19.58,-2.03 25.88,-4.05 3.15,-1 5.61,-2 7.22,-2.71 l 1.74,-0.81 0.36,-0.18 v 0 c 1.84,-1.01 3.83,-1.49 5.79,-1.49 4.27,0 8.42,2.27 10.62,6.29 3.21,5.85 1.06,13.21 -4.79,16.42 -1.07,0.54 -19.54,10.66 -46.82,10.72 -0.1,0 -0.2,0 -0.3,0 -11.73,0 -25.1,-2.04 -39,-7.59 5.44,35.99 12.9,64.46 18.94,83.78 28.23,5.85 58.4,9.78 88.55,9.78 18.46,0 36.91,-1.47 54.9,-4.88 2.76,-0.52 5.5,-1.09 8.24,-1.71 v 0 c 0.07,-0.05 13.51,-9.93 24.2,-60.42 0.57,-2.7 1.13,-5.51 1.69,-8.45 -4.15,0.6 -8.13,0.87 -11.9,0.87 h -0.01 c -13.39,0 -24.16,-3.37 -31.59,-6.8 -7.45,-3.44 -11.65,-6.93 -12.29,-7.48 -5.08,-4.34 -5.68,-11.97 -1.35,-17.05 2.4,-2.8 5.79,-4.24 9.21,-4.24 2.75,0 5.51,0.93 7.77,2.83 0.28,0.23 3.03,2.35 7.73,4.39 4.88,2.11 11.79,4.15 20.53,4.15 3.58,0 7.48,-0.34 11.71,-1.18 0.79,-0.15 1.59,-0.23 2.37,-0.23 0.6,0 1.19,0.04 1.77,0.13 1.43,-10.55 2.72,-22.26 3.8,-35.25 h -40.56 c -10.02,0 -18.44,-6.8 -20.91,-16.03"
             style="fill:#f3ceae;fill-opacity:1;fill-rule:nonzero;stroke:none"
             id="path440" /><path
             d="m 2572.51,2212.28 c -7.37,0 -13.35,7.61 -13.35,16.99 0,9.38 5.98,16.98 13.35,16.98 7.37,0 13.35,-7.6 13.35,-16.98 0,-9.38 -5.98,-16.99 -13.35,-16.99"
             style="fill:#4f4424;fill-opacity:1;fill-rule:nonzero;stroke:none"
             id="path442" /><path
             d="m 2705.35,2215.22 c -6.73,0 -12.19,6.95 -12.19,15.52 0,8.57 5.46,15.51 12.19,15.51 6.74,0 12.2,-6.94 12.2,-15.51 0,-8.57 -5.46,-15.52 -12.2,-15.52"
             style="fill:#4f4424;fill-opacity:1;fill-rule:nonzero;stroke:none"
             id="path444" /><path
             d="m 2516.5,2276.03 c 1.06,10.06 2.31,19.64 3.69,28.76 13.9,5.55 27.27,7.59 39,7.59 0.1,0 0.2,0 0.3,0 27.28,-0.06 45.75,-10.18 46.82,-10.72 5.85,-3.21 8,-10.57 4.79,-16.42 -2.2,-4.02 -6.35,-6.29 -10.62,-6.29 -1.96,0 -3.95,0.48 -5.79,1.49 v 0 l -0.36,0.18 -1.74,0.81 c -1.61,0.71 -4.07,1.71 -7.22,2.71 -6.3,2.02 -15.35,4.05 -25.88,4.05 -12.64,-0.05 -27.32,-2.78 -42.99,-12.16"
             style="fill:#4f4424;fill-opacity:1;fill-rule:nonzero;stroke:none"
             id="path446" /><path
             d="m 2727.93,2177.21 v 0 h -35.56 c -0.71,3.53 -1.76,7.66 -3.31,12.09 h 38.76 c 0.05,-3.95 0.09,-7.99 0.11,-12.09 m -53.58,37.57 c -3.4,3.82 -7.4,7.44 -12.1,10.65 v 9.47 h 6.05 v 12.1 h -5.31 c 2.47,9.23 10.89,16.03 20.91,16.03 h 40.56 v 0 c 0.33,-3.91 0.63,-7.95 0.92,-12.09 v 0 h -41.48 c -5.27,-0.01 -9.54,-4.28 -9.55,-9.55 v -26.61"
             style="fill:#265e56;fill-opacity:1;fill-rule:nonzero;stroke:none"
             id="path448" /><path
             d="m 2668.78,2288.19 c -3.42,0 -6.81,1.44 -9.21,4.24 -4.33,5.08 -3.73,12.71 1.35,17.05 0.64,0.55 4.84,4.04 12.29,7.48 7.43,3.43 18.2,6.8 31.59,6.8 h 0.01 c 3.77,0 7.75,-0.27 11.9,-0.87 v 0 c 1.39,-7.41 2.72,-15.59 3.95,-24.61 v 0 c -0.58,-0.09 -1.17,-0.13 -1.77,-0.13 -0.78,0 -1.58,0.08 -2.37,0.23 -4.23,0.84 -8.13,1.18 -11.71,1.18 -8.74,0 -15.65,-2.04 -20.53,-4.15 -4.7,-2.04 -7.45,-4.16 -7.73,-4.39 -2.26,-1.9 -5.02,-2.83 -7.77,-2.83"
             style="fill:#4f4424;fill-opacity:1;fill-rule:nonzero;stroke:none"
             id="path450" /><path
             d="m 2612.42,2177.21 h -87.23 c -4.42,0 -8.52,1.29 -11.97,3.52 -1.01,28.77 -0.16,55.5 1.83,79.85 3.04,1.56 6.48,2.45 10.14,2.45 h 87.23 c 10.1,0 18.62,-6.78 21.25,-16.03 h -5.21 v -12.1 h 6.05 v -35.61 c -0.01,-12.2 -9.89,-22.08 -22.09,-22.08 v 6.05 6.04 c 5.52,0.01 9.98,4.48 9.99,9.99 v 41.66 c -0.01,5.51 -4.47,9.98 -9.99,9.99 h -87.23 c -5.52,-0.01 -9.98,-4.48 -9.99,-9.99 v -41.66 c 0.01,-5.51 4.47,-9.98 9.99,-9.99 h 87.23 v -6.04 -6.05"
             style="fill:#265e56;fill-opacity:1;fill-rule:nonzero;stroke:none"
             id="path452" /><path
             d="m 2668.3,2234.9 h -39.84 v 12.1 h 39.84 v -12.1"
             style="fill:#265e56;fill-opacity:1;fill-rule:nonzero;stroke:none"
             id="path454" /><path
             d="m 2673.9,2150.53 c -36.07,1.93 -37.41,16.78 -37.41,16.78 l 8.05,66.84 v 0 0 c 0,0 57.02,-68.52 29.36,-83.62"
             style="fill:#f3ceae;fill-opacity:1;fill-rule:nonzero;stroke:none"
             id="path456" /><path
             d="m 2668.77,2148.6 v 0 c 1.96,0.48 3.66,1.13 5.13,1.93 27.66,15.1 -29.36,83.62 -29.36,83.62 v 0 c 6.8,-2.27 12.66,-5.26 17.71,-8.72 4.7,-3.21 8.7,-6.83 12.1,-10.65 7.29,-8.19 11.85,-17.33 14.71,-25.48 1.55,-4.43 2.6,-8.56 3.31,-12.09 1.37,-6.83 1.45,-11.38 1.45,-11.38 0,0 5.69,-10.73 -25.05,-17.23 v 0"
             style="fill:#b39b7a;fill-opacity:1;fill-rule:nonzero;stroke:none"
             id="path458" /><path
             d="m 2722.1,2009.99 55.31,-18.56 c 33.35,-11.19 63.25,-30.78 86.83,-56.89 l 725.38,-803.42 c 70.69,-78.28 66.01,-198.659 -10.53,-271.229 l -3.02,-2.86 c -85.16,-80.742 -221.92,-68.133 -290.89,26.809 l -535.59,737.24 c -36.09,49.69 -50.69,111.8 -40.5,172.36 l 18.87,112.08 -41.4,54.92 c -6.54,8.67 -8.18,20.08 -4.34,30.25 l 0.17,0.45 c 6.01,15.94 23.55,24.27 39.71,18.85"
             style="fill:#95d55f;fill-opacity:1;fill-rule:nonzero;stroke:none"
             id="path460" /><path
             d="m 3029.44,1751.56 -223.29,-208.32 149.33,-205.57 c 148.65,41.71 208.5,152.51 232.48,238.32 l -158.52,175.57"
             style="fill:#689749;fill-opacity:1;fill-rule:nonzero;stroke:none"
             id="path462" /><path
             d="m 2864.24,1934.54 c -23.58,26.11 -53.48,45.7 -86.83,56.89 l -55.31,18.56 c -16.16,5.42 -33.7,-2.91 -39.71,-18.85 l -0.18,-0.45 c -3.83,-10.17 -2.19,-21.58 4.35,-30.25 l 41.4,-54.92 -18.87,-112.08 c -10.19,-60.56 4.41,-122.67 40.5,-172.36 l 102.54,-141.14 c 141.88,24.22 196.94,146.58 217.94,226.62 l -205.83,227.98"
             style="fill:#ecb788;fill-opacity:1;fill-rule:nonzero;stroke:none"
             id="path464" /><path
             d="m 3579.09,859.891 v 0 c 0.07,0.07 0.13,0.129 0.2,0.191 -0.07,-0.062 -0.13,-0.121 -0.2,-0.191 v 0 m 0.28,0.269 c 0.04,0.039 0.09,0.078 0.13,0.121 -0.04,-0.043 -0.09,-0.082 -0.13,-0.121 m 0.22,0.211 c 0.03,0.031 0.08,0.07 0.11,0.109 -0.03,-0.039 -0.08,-0.078 -0.11,-0.109 m 0.2,0.199 c 0.04,0.032 0.08,0.071 0.12,0.102 -0.04,-0.031 -0.08,-0.07 -0.12,-0.102 m 0.21,0.2 c 0.05,0.039 0.09,0.082 0.13,0.121 -0.04,-0.039 -0.08,-0.082 -0.13,-0.121 m 0.29,0.269 c 0.04,0.043 0.07,0.07 0.1,0.102 -0.03,-0.032 -0.06,-0.059 -0.1,-0.102 m 0.21,0.211 c 0.03,0.031 0.07,0.059 0.1,0.09 -0.04,-0.031 -0.06,-0.059 -0.1,-0.09 m 0.22,0.199 c 0.02,0.031 0.04,0.039 0.06,0.071 -0.02,-0.032 -0.04,-0.04 -0.06,-0.071 m 0.2,0.203 c 0.02,0.02 0.03,0.028 0.04,0.039 -0.01,-0.011 -0.03,-0.031 -0.04,-0.039 m 0.74,0.719 c 0,0.008 0,0 0,0.008 v -0.008 m 0.18,0.18 0.01,0.008 -0.01,-0.008"
             style="fill:#4a8e86;fill-opacity:1;fill-rule:nonzero;stroke:none"
             id="path466" /><path
             d="m 3442.76,803.91 c -11.07,0 -22.13,0.93 -33.05,2.789 -8.27,22.512 -13.02,46.742 -13.02,72.121 0,77.512 42.12,145.18 104.71,181.39 50.55,-29.19 97.6,-48.23 138.05,-52.68 -0.2,5.87 -0.66,11.72 -1.38,17.56 7.31,-58.09 -11.64,-118.59 -56.22,-162.531 l -0.01,-0.008 c -0.06,-0.059 -0.12,-0.11 -0.18,-0.172 0,-0.008 0,0 0,-0.008 -0.24,-0.23 -0.46,-0.449 -0.7,-0.68 -0.01,-0.011 -0.02,-0.019 -0.04,-0.039 -0.04,-0.043 -0.09,-0.093 -0.14,-0.132 -0.02,-0.032 -0.04,-0.04 -0.06,-0.071 -0.04,-0.027 -0.08,-0.07 -0.12,-0.109 -0.03,-0.031 -0.07,-0.059 -0.1,-0.09 -0.03,-0.039 -0.07,-0.078 -0.11,-0.109 -0.03,-0.032 -0.06,-0.059 -0.1,-0.102 -0.05,-0.047 -0.11,-0.098 -0.16,-0.148 -0.04,-0.039 -0.08,-0.082 -0.13,-0.121 -0.03,-0.028 -0.06,-0.071 -0.09,-0.098 -0.04,-0.031 -0.08,-0.07 -0.12,-0.102 -0.03,-0.031 -0.06,-0.058 -0.09,-0.09 -0.03,-0.039 -0.08,-0.078 -0.11,-0.109 -0.03,-0.031 -0.06,-0.062 -0.09,-0.09 -0.04,-0.043 -0.09,-0.082 -0.13,-0.121 -0.02,-0.019 -0.06,-0.051 -0.08,-0.078 -0.07,-0.062 -0.13,-0.121 -0.2,-0.191 v 0 l -3.02,-2.852 C 3538.3,821.23 3490.4,803.898 3442.76,803.91"
             style="fill:#aade82;fill-opacity:1;fill-rule:nonzero;stroke:none"
             id="path468" /><path
             d="m 3594.2,1125.87 c -0.01,0.02 -0.02,0.03 -0.03,0.04 0.01,-0.01 0.02,-0.03 0.03,-0.04 m -0.15,0.18 c -1.44,1.71 -2.92,3.4 -4.43,5.07 v 0 0 c 1.51,-1.67 2.99,-3.36 4.43,-5.07"
             style="fill:#328576;fill-opacity:1;fill-rule:nonzero;stroke:none"
             id="path470" /><path
             d="m 3589.62,1131.12 -401.66,444.87 v 0 l -32.02,35.47 433.68,-480.34 v 0"
             style="fill:#b3e079;fill-opacity:1;fill-rule:nonzero;stroke:none"
             id="path472" /><path
             d="m 3638.07,1025.09 c -2.7,21.47 -8.99,42.61 -18.89,62.46 -4.36,0.27 -8.68,0.66 -13.1,0.66 -38.14,0 -73.89,-10.19 -104.68,-28 -130.42,75.28 -284.28,218.14 -409.18,352.39 53.21,49.55 81.13,111.11 95.74,163.39 l 401.66,-444.87 c 1.51,-1.67 2.99,-3.36 4.43,-5.07 0.04,-0.05 0.08,-0.09 0.12,-0.14 0.01,-0.01 0.02,-0.02 0.03,-0.04 24.9,-29.62 39.41,-64.73 43.87,-100.78"
             style="fill:#b3e079;fill-opacity:1;fill-rule:nonzero;stroke:none"
             id="path474" /><path
             d="m 3092.22,1412.6 c -41.84,44.96 -80.39,88.93 -113.76,129.11 52.24,48.74 78.53,115.01 91.61,164.85 l 85.87,-95.1 32.02,-35.47 v 0 c -14.61,-52.28 -42.53,-113.84 -95.74,-163.39"
             style="fill:#8ebb5a;fill-opacity:1;fill-rule:nonzero;stroke:none"
             id="path476" /><path
             d="m 2863.95,1934.85 c -0.02,0.03 -0.04,0.05 -0.07,0.08 0.03,-0.03 0.05,-0.05 0.07,-0.08"
             style="fill:#eaf6da;fill-opacity:1;fill-rule:nonzero;stroke:none"
             id="path478" /><path
             d="m 2863.66,1935.17 c -0.01,0.02 -0.02,0.03 -0.03,0.04 0.01,-0.01 0.02,-0.03 0.03,-0.04"
             style="fill:#eaf6da;fill-opacity:1;fill-rule:nonzero;stroke:none"
             id="path480" /><path
             d="m 2978.46,1541.71 c -41.77,50.3 -75.38,94.63 -96.92,127.31 -114.81,174.22 -59.46,299.62 -58.97,300.73 15.08,-9.64 28.91,-21.21 41.06,-34.54 0.01,-0.01 0.02,-0.02 0.03,-0.04 0.08,-0.08 0.15,-0.16 0.22,-0.24 0.03,-0.03 0.05,-0.05 0.07,-0.08 0.1,-0.1 0.19,-0.2 0.29,-0.31 l 205.83,-227.98 c -13.08,-49.84 -39.37,-116.11 -91.61,-164.85"
             style="fill:#f3ceae;fill-opacity:1;fill-rule:nonzero;stroke:none"
             id="path482" /><path
             d="m 3639.45,1007.53 c -40.45,4.45 -87.5,23.49 -138.05,52.68 30.79,17.81 66.54,28 104.68,28 4.42,0 8.74,-0.39 13.1,-0.66 9.9,-19.85 16.19,-40.99 18.89,-62.46 0.72,-5.84 1.18,-11.69 1.38,-17.56"
             style="fill:#c6e9a7;fill-opacity:1;fill-rule:nonzero;stroke:none"
             id="path484" /><path
             d="m 2723.56,1901.37 64.85,-68.74 8.8,8.3 -64.86,68.74"
             style="fill:#906f5d;fill-opacity:1;fill-rule:nonzero;stroke:none"
             id="path486" /><path
             d="m 2422.47,1863.49 9.11,-1888.4783 12.1,0.0586 -9.11,1888.4797"
             style="fill:#1d423d;fill-opacity:1;fill-rule:nonzero;stroke:none"
             id="path488" /><path
             d="m 3102.9,0 h -227.64 c 1.95,179.531 24.81,330.32 55.36,452.832 H 3102.9 V 0 m 0,549.602 h -144.95 c 65.14,205.367 144.95,306.339 144.95,306.339 V 549.602"
             style="fill:#a2d669;fill-opacity:1;fill-rule:nonzero;stroke:none"
             id="path490" /><path
             d="m 3102.9,452.832 v 0 h -172.28 c 8.59,34.469 17.81,66.758 27.33,96.77 h 144.95 v -96.77"
             style="fill:#b3e079;fill-opacity:1;fill-rule:nonzero;stroke:none"
             id="path492" /><path
             d="m 2555.15,1715.36 135.07,-119.95 8.03,9.04 -135.07,119.96"
             style="fill:#9fdbd9;fill-opacity:1;fill-rule:nonzero;stroke:none"
             id="path494" /></g></g></g></g></svg>
