<?xml version="1.0" encoding="UTF-8" standalone="no"?><!-- Generator: Gravit.io --><svg xmlns="http://www.w3.org/2000/svg" xmlns:xlink="http://www.w3.org/1999/xlink" style="isolation:isolate" viewBox="0 0 450 400" width="450pt" height="400pt"><defs><clipPath id="_clipPath_yHhWXH18dExL702wRWUWIM6WXS9e0bmC"><rect width="450" height="400"/></clipPath></defs><g clip-path="url(#_clipPath_yHhWXH18dExL702wRWUWIM6WXS9e0bmC)"><clipPath id="_clipPath_HmPGY23YLzyiqQPY1AwwcTxIRhdH7X8j"><path d=" M -84 -36 L -84 400.846 L 547 400.846 L 547 -36 L -84 -36 Z " fill="rgb(255,255,255)"/></clipPath><g clip-path="url(#_clipPath_HmPGY23YLzyiqQPY1AwwcTxIRhdH7X8j)"><g><path d=" M 82.774 277.906 C 75.189 277.906 66.676 277.709 57.486 277.374 C 46.476 276.972 40.046 275.031 40.046 271.445 C 40.046 267.132 60.207 266.064 89.895 265.817 C 107.876 266.281 119.068 267.678 119.068 271.445 C 119.068 276.234 104.868 277.906 82.774 277.906 Z " fill="rgb(218,222,234)"/><path d=" M 77.919 133.687 C 75.988 129.929 128.929 109.216 102.77 97.985 C 94.244 94.324 77.533 91.002 77.533 91.002 C 77.533 91.002 74.92 93.965 76.98 96.792 C 76.98 96.792 94.667 102.755 97.593 104.853 C 100.52 106.951 81.173 114.458 72.606 116.056 C 67.297 117.046 78.543 134.904 77.919 133.687 Z " fill="rgb(245,167,132)"/><path d=" M 79.109 91.399 C 79.109 91.399 77.506 90.846 75.59 89.95 C 73.676 89.05 69.487 87.046 67.938 87.16 C 67.938 87.16 67.654 87.253 67.267 87.482 L 67.098 87.593 C 66.765 87.822 66.382 88.15 66.061 88.627 L 65.984 88.741 C 65.763 89.084 65.566 89.503 65.46 90 L 65.436 90.126 C 65.355 90.509 65.311 90.935 65.325 91.417 C 65.325 91.417 69.637 93.359 70.763 94.489 C 70.763 94.489 67.885 94.004 67.318 94.722 L 67.242 95.343 C 67.242 95.343 70.279 96.218 71.596 96.731 C 74.8 97.981 78.039 96.363 78.039 96.363 C 78.039 96.363 80.555 93.41 79.109 91.399 Z " fill="rgb(245,167,132)"/><path d=" M 95.098 264.603 C 95.098 264.603 95.534 265.717 95.988 268.023 C 96.023 268.209 96.059 268.405 96.095 268.61 C 96.21 269.243 96.326 269.963 96.433 270.764 C 96.539 271.504 107.204 272.26 108.37 271.458 C 109.527 270.658 108.183 270.283 108.183 270.283 C 106.669 270.239 103.394 269.278 102.29 268.556 C 99.183 266.528 98.964 254.654 98.964 254.654 C 95.459 245.485 88.889 236.486 95.098 264.603 Z " fill="rgb(245,167,132)"/><path d=" M 47.406 271.318 C 48.59 272.138 59.486 271.363 59.593 270.598 C 59.699 269.787 59.851 269.058 59.94 268.408 L 59.966 268.239 C 60.394 265.07 61.042 259.358 61.042 259.358 C 61.042 259.358 58.142 256.213 55.952 259.249 C 55.952 259.249 56.219 267.082 53.61 268.346 C 53.504 268.399 53.388 268.453 53.246 268.516 C 51.848 269.129 48.999 270.073 47.584 270.117 C 47.584 270.117 46.222 270.501 47.406 271.318 Z " fill="rgb(245,167,132)"/><path d=" M 51.284 185.335 C 51.266 212.236 54.969 260.001 54.969 260.001 C 57.97 261.452 62.141 260.656 62.141 260.656 C 62.141 260.656 67.69 192.777 68.384 188.985 C 68.767 186.885 69.675 186.69 70.414 186.937 C 71.045 187.142 71.499 187.677 71.713 188.309 C 72.519 190.732 83.24 218.866 83.811 221.54 C 87.817 240.275 92.532 261.554 92.532 261.554 C 97.509 263.441 100.686 261.078 100.686 261.078 C 100.686 261.078 96.798 228.143 95.418 219.873 C 94.047 211.613 85.92 172.135 85.92 172.135 L 51.676 173.488 C 51.409 176.202 51.284 180.324 51.284 185.335 Z " fill="rgb(29,66,61)"/><path d=" M 95.988 268.023 C 96.023 268.209 96.059 268.405 96.095 268.61 C 96.21 269.243 96.326 269.963 96.433 270.764 C 96.539 271.504 107.204 272.26 108.37 271.458 C 109.527 270.658 108.183 270.283 108.183 270.283 C 106.669 270.239 103.394 269.278 102.29 268.556 C 100.856 268.77 98.516 268.913 95.988 268.023 Z " fill="rgb(5,0,74)"/><path d=" M 47.406 271.318 C 48.59 272.138 59.486 271.363 59.593 270.598 C 59.699 269.787 59.851 269.058 59.94 268.408 L 59.966 268.239 C 58.551 268.523 56.103 268.853 53.246 268.516 C 51.848 269.129 48.999 270.073 47.584 270.117 C 47.584 270.117 46.222 270.501 47.406 271.318 Z " fill="rgb(5,0,74)"/><path d=" M 56.434 102.079 C 56.337 101.923 56.286 101.698 56.242 101.347 C 56.043 99.785 56.095 98.17 56.289 96.595 C 56.4 95.684 56.517 94.757 56.899 93.922 C 57.594 92.404 59.072 91.397 60.573 90.666 C 63.731 89.128 67.315 88.47 70.81 88.806 C 71.613 88.884 72.43 89.019 73.137 89.406 C 73.844 89.794 74.431 90.478 74.517 91.278 C 74.572 91.793 74.422 92.303 74.294 92.804 C 73.424 96.209 74.425 99.575 73.249 102.84 C 72.888 103.844 72.821 103.997 72.235 103.96 C 69.111 103.767 65.987 103.531 62.871 103.232 C 61.073 103.059 59.207 102.946 57.442 102.539 C 56.871 102.408 56.592 102.336 56.434 102.079 Z " fill="rgb(5,0,74)"/><path d=" M 72.562 101.079 C 72.562 101.079 73.985 99.371 75.409 101.079 C 76.831 102.787 74.412 106.056 72.562 106.199 C 72.562 106.199 72.349 101.814 72.562 101.079 Z " fill="rgb(224,133,92)"/><path d=" M 47.509 120.323 C 48.373 122.37 51.568 130.248 52.601 136.648 C 53.153 140.058 55.254 151.763 55.254 151.763 C 67.315 155.074 80.57 151.763 80.57 151.763 C 80.57 151.763 87.852 121.213 82.252 117.608 C 81.291 116.994 79.599 116.593 77.783 116.335 C 74.365 115.846 70.537 115.863 70.537 115.863 L 70.378 114.1 L 69.968 109.746 C 64.137 110.931 59.978 107.308 59.978 107.308 C 60.174 108.348 60.31 109.845 60.39 111.314 C 60.443 112.204 60.479 113.076 60.505 113.834 C 60.541 115.151 60.55 116.104 60.55 116.104 C 58.868 116.13 57.292 116.317 55.859 116.584 C 51.764 117.367 48.835 118.863 47.776 119.512 C 47.501 119.682 47.384 120.03 47.509 120.323 Z " fill="rgb(245,167,132)"/><path d=" M 72.237 96.141 C 73.182 97.124 73.26 99.331 73.34 101.771 C 73.579 109.157 71.366 111.464 67.593 111.87 C 63.821 112.276 59.874 110.826 59.061 103.976 C 58.654 100.552 58.221 97.388 59.467 95.908 C 61.324 93.702 69.335 93.122 72.237 96.141 Z " fill="rgb(245,167,132)"/><path d=" M 59.586 102.988 C 59.586 102.988 58.431 99.929 56.609 101.55 C 54.787 103.171 57.305 107.792 60.092 107.45 C 60.092 107.45 60.474 104.034 59.586 102.988 Z " fill="rgb(245,167,132)"/><path d=" M 49.756 119.497 C 48.4 119.664 47.212 120.485 46.458 121.625 C 44.125 125.148 39.203 151.208 39.193 156.444 C 39.175 165.723 43.556 182.244 43.556 182.244 C 43.556 182.244 47.419 183.073 48.877 179.892 C 48.877 179.892 47.677 159.694 48.075 156.115 C 48.473 152.536 51.929 138.354 53.515 132.389 C 54.902 127.17 54.568 118.906 49.756 119.497 Z " fill="rgb(245,167,132)"/><path d=" M 57.46 102.941 C 57.864 103.011 58.276 103.393 58.567 103.665 C 58.872 103.949 59.229 104.304 59.381 104.699 C 59.428 104.824 59.256 104.899 59.172 104.822 C 58.936 104.601 58.746 104.338 58.526 104.1 C 58.37 104.27 58.21 104.443 57.992 104.523 C 57.824 104.585 57.699 104.377 57.773 104.239 C 57.868 104.062 58.043 103.934 58.214 103.816 C 57.924 103.594 57.576 103.418 57.335 103.158 C 57.243 103.058 57.336 102.921 57.46 102.941 Z " fill="rgb(224,133,92)"/><path d=" M 70.097 101.595 C 70.097 101.595 70.736 101.833 70.639 100.702 C 70.552 99.686 70.097 99.823 70.097 99.823 C 70.097 99.823 69.654 99.82 69.721 100.709 C 69.787 101.599 70.097 101.595 70.097 101.595 Z " fill="rgb(5,0,74)"/><path d=" M 63.625 101.595 C 63.625 101.595 64.264 101.833 64.167 100.702 C 64.08 99.686 63.625 99.823 63.625 99.823 C 63.625 99.823 63.182 99.82 63.249 100.709 C 63.316 101.599 63.625 101.595 63.625 101.595 Z " fill="rgb(5,0,74)"/><path d=" M 67.197 104.607 C 67.52 104.559 68.262 104.752 68.414 104.402 C 68.541 104.111 68.02 102.395 67.947 102.1 C 67.682 101.039 67.402 100.319 67.202 99.047 L 67.315 99.016 C 68.064 100.707 68.343 102.8 68.796 104.595 C 68.821 104.694 68.748 104.798 68.643 104.796 C 68.169 104.789 67.708 104.89 67.235 104.892 C 67.077 104.893 67.031 104.631 67.197 104.607 Z " fill="rgb(224,133,92)"/><path d=" M 69.397 98.161 C 69.854 97.928 70.709 97.867 71.042 98.343 C 71.103 98.429 71.022 98.56 70.92 98.554 C 70.693 98.543 70.492 98.433 70.264 98.414 C 70.017 98.393 69.783 98.45 69.55 98.524 C 69.338 98.591 69.195 98.264 69.397 98.161 Z " fill="rgb(5,0,74)"/><path d=" M 62.668 98.719 C 62.929 98.071 64.062 98.009 64.546 98.412 C 64.656 98.503 64.586 98.677 64.466 98.715 C 64.184 98.802 63.885 98.696 63.592 98.722 C 63.335 98.747 63.13 98.859 62.891 98.943 C 62.769 98.986 62.618 98.847 62.668 98.719 Z " fill="rgb(5,0,74)"/><path d=" M 84.056 132.318 C 84.023 133.299 83.99 133.899 83.99 133.899 C 83.99 133.899 84.929 155.142 90.537 187.851 C 91.431 193.066 48.914 186.029 49.143 183.683 C 50.703 168.299 52.044 143.326 52.044 143.326 C 52.044 143.326 52.067 142.027 52.044 139.899 C 52.023 140.086 52.012 140.195 52.012 140.195 L 50.201 148.071 C 43.273 148.442 39.193 145.071 39.193 145.071 C 39.193 145.071 41.418 135.362 43.993 126.339 C 45.804 119.967 49.208 117.763 50.757 117.076 C 50.899 116.999 51.085 116.922 51.303 116.857 C 51.477 116.802 51.576 116.781 51.576 116.781 C 53.78 116.203 58.58 115.952 58.58 115.952 C 58.58 115.952 57.369 122.464 65.17 123.088 C 73.986 123.795 73.506 115.581 73.506 115.581 C 73.506 115.581 90.744 110.049 93.603 108.162 C 93.603 108.162 98.031 113.835 99.81 120.359 C 99.81 120.359 98.861 120.829 97.388 121.68 C 93.94 123.665 87.624 127.68 84.056 132.318 Z " fill="rgb(245,137,61)"/><path d=" M 43.376 180.477 C 43.376 180.477 43.606 182.156 43.671 184.27 C 43.729 186.386 43.83 191.028 44.631 192.359 C 44.631 192.359 44.841 192.57 45.22 192.813 L 45.397 192.913 C 45.75 193.108 46.216 193.302 46.787 193.372 L 46.922 193.391 C 47.328 193.433 47.791 193.419 48.283 193.29 L 48.407 193.255 C 48.784 193.155 49.185 193.002 49.609 192.771 C 49.609 192.771 49.397 188.048 49.898 186.533 C 49.898 186.533 50.764 189.32 51.659 189.502 L 52.248 189.29 C 52.248 189.29 51.659 186.185 51.523 184.778 C 51.194 181.354 48.289 179.193 48.289 179.193 C 48.289 179.193 44.519 178.279 43.376 180.477 Z " fill="rgb(245,167,132)"/><path d=" M 48.283 193.29 L 48.407 193.255 C 48.142 191.151 48.231 189.06 48.248 186.916 L 48.171 186.904 C 47.688 189.019 47.865 191.181 48.283 193.29 Z " fill="rgb(224,133,92)"/><path d=" M 46.787 193.372 L 46.922 193.391 C 46.657 191.281 46.746 189.196 46.758 187.052 L 46.687 187.04 C 46.204 189.137 46.375 191.281 46.787 193.372 Z " fill="rgb(224,133,92)"/><path d=" M 45.22 192.813 L 45.397 192.913 C 45.173 190.922 45.255 188.943 45.267 186.916 L 45.196 186.904 C 44.693 188.848 44.866 190.858 45.22 192.813 Z " fill="rgb(224,133,92)"/><path d=" M 69.421 106.736 C 68.729 106.774 68.085 107.059 67.381 107.091 C 66.787 107.119 66.123 106.865 65.565 107.052 C 65.981 107.551 66.919 107.517 67.511 107.494 C 68.194 107.468 68.966 107.39 69.508 106.945 C 69.589 106.878 69.522 106.73 69.421 106.736 Z " fill="rgb(224,133,92)"/><path d=" M 54.094 128.315 C 53.972 125.199 53.737 121.361 52.054 118.657 C 51.979 118.536 51.752 118.575 51.768 118.734 C 52.088 122.125 53.092 125.347 53.169 128.807 C 53.247 132.27 52.73 135.692 52.704 139.147 C 52.7 139.51 53.267 139.602 53.348 139.234 C 54.123 135.693 54.236 131.926 54.094 128.315 Z " fill="rgb(203,115,48)"/><path d=" M 79.912 119.097 C 79.058 117.897 78.131 116.513 76.879 115.707 C 76.699 115.591 76.51 115.817 76.6 115.987 C 77.304 117.34 78.472 118.474 79.342 119.729 C 80.229 121.009 80.935 122.409 81.855 123.665 C 82.028 123.902 82.478 123.775 82.369 123.448 C 81.84 121.864 80.875 120.448 79.912 119.097 Z " fill="rgb(203,115,48)"/></g><g><path d=" M 313.093 393.553 C 305.508 393.553 296.996 393.356 287.805 393.021 C 276.796 392.619 270.365 390.679 270.365 387.093 C 270.365 382.78 290.525 381.711 320.214 381.464 C 338.196 381.928 349.388 383.325 349.388 387.093 C 349.388 391.881 335.188 393.553 313.093 393.553 Z " fill="rgb(218,222,234)"/><path d=" M 294.322 379.96 C 294.322 379.96 293.893 381.057 293.445 383.33 C 293.428 383.409 293.411 383.497 293.402 383.585 C 293.376 383.69 293.357 383.796 293.341 383.91 C 293.227 384.532 293.112 385.243 293.007 386.033 C 292.902 386.761 282.389 387.507 281.24 386.717 C 280.099 385.928 281.424 385.559 281.424 385.559 C 282.899 385.515 286.071 384.602 287.19 383.883 C 290.31 381.878 290.349 379.382 290.349 379.382 C 292.454 376.451 294.322 379.96 294.322 379.96 Z " fill="rgb(245,167,132)"/><path d=" M 342.065 386.673 C 340.898 387.481 330.158 386.717 330.052 385.963 C 329.947 385.165 329.798 384.445 329.711 383.804 L 329.693 383.673 C 329.263 380.514 329.184 379.26 329.184 379.26 C 329.184 379.26 331.483 376.171 333.641 379.162 C 333.641 379.162 333.378 382.497 335.949 383.743 L 336.116 383.822 L 336.308 383.91 C 337.685 384.515 340.494 385.445 341.89 385.489 C 341.89 385.489 343.231 385.866 342.065 386.673 Z " fill="rgb(245,167,132)"/><path d=" M 337.515 301.829 L 335.637 380.241 C 335.124 380.491 334.555 380.652 333.958 380.776 C 333.629 380.845 333.292 380.895 332.953 380.929 C 331.458 381.082 329.91 380.983 328.862 380.852 C 328.382 380.798 328 380.743 327.771 380.699 C 327.608 380.666 327.52 380.655 327.52 380.655 C 327.52 380.655 320.744 305.909 320.657 305.418 C 320.592 305.068 320.511 304.767 320.417 304.524 C 319.954 303.31 319.26 303.204 318.65 303.4 C 318.027 303.607 317.581 304.131 317.374 304.753 C 317.177 305.332 310.969 324.413 310.729 325.198 C 310.402 326.268 306.529 339.753 306.453 340.058 C 305.743 342.623 296.6 379.858 296.6 379.858 C 294.964 380.491 293.469 380.689 292.203 380.689 C 291.985 380.689 291.755 380.678 291.537 380.666 C 289.41 380.547 288.091 379.858 288.091 379.858 C 288.091 379.858 296.954 328.048 297.003 327.827 C 297.703 324.732 302.197 303.531 302.644 301.501 C 302.655 301.382 302.688 301.249 302.721 301.13 C 302.83 300.574 302.972 300.02 303.092 299.461 C 303.211 298.906 303.32 298.348 303.452 297.803 C 305.514 288.387 307.139 281.012 307.139 281.012 L 333.935 281.012 C 334.001 281.721 334.285 283.172 334.666 285.016 C 335.724 290.111 337.515 298.195 337.515 301.829 Z " fill="rgb(245,137,61)"/><path d=" M 293.402 383.585 C 293.376 383.69 293.357 383.796 293.341 383.91 C 293.227 384.532 293.112 385.243 293.007 386.033 C 292.902 386.761 282.389 387.507 281.24 386.717 C 280.099 385.928 281.424 385.559 281.424 385.559 C 282.899 385.515 286.067 384.594 287.19 383.883 C 288.734 384.033 291.006 384.076 293.402 383.585 Z " fill="rgb(1,25,72)"/><path d=" M 342.065 386.673 C 340.898 387.481 330.158 386.717 330.052 385.963 C 329.947 385.165 329.798 384.445 329.711 383.804 L 329.693 383.673 C 332.281 384.128 334.677 383.988 336.116 383.822 L 336.308 383.91 C 337.685 384.515 340.494 385.445 341.89 385.489 C 341.89 385.489 343.231 385.866 342.065 386.673 Z " fill="rgb(1,25,72)"/><path d=" M 337.515 301.829 C 337.515 301.829 337.503 304.797 337.492 305.32 C 332.746 305.352 327.968 304.295 323.744 302.966 C 318.022 301.164 307.707 300.028 307.707 300.028 L 315.801 281.012 L 330.117 281.012 L 334.666 285.016 C 335.724 290.111 337.515 298.195 337.515 301.829 Z " fill="rgb(203,115,48)"/><path d=" M 331.744 220.458 C 331.744 220.458 332.44 216.183 333.826 212.023 C 334.273 210.68 333.206 209.31 331.895 209.534 C 330.866 209.71 330.012 210.108 330.012 210.108 C 330.012 210.108 331.475 205.738 329.388 204.301 C 327.299 202.863 324.088 205.623 322.856 207.694 C 322.856 207.694 323.713 206.026 322.213 205.048 C 320.714 204.071 313.914 211.546 315.253 217.698 C 316.592 223.85 317.074 222.126 317.074 222.126 C 317.074 222.126 331.317 221.248 331.744 220.458 Z " fill="rgb(1,25,72)"/><path d=" M 316.772 219.468 C 316.772 219.468 315.46 217.892 314.147 219.468 C 312.835 221.043 315.066 224.059 316.772 224.192 C 316.772 224.192 316.969 220.147 316.772 219.468 Z " fill="rgb(224,133,92)"/><path d=" M 341.232 237.745 C 340.38 239.764 337.23 247.529 336.212 253.838 C 335.668 257.199 333.597 268.736 333.597 268.736 C 321.708 272.001 309.644 268.736 309.644 268.736 C 309.644 268.736 301.465 238.623 306.984 235.069 C 307.932 234.464 309.599 234.068 311.39 233.815 C 313.346 233.534 315.443 233.419 316.856 233.375 C 317.873 233.349 318.53 233.347 318.53 233.347 L 318.689 231.612 L 318.708 231.428 L 319.093 227.319 C 324.84 228.485 328.941 224.915 328.941 224.915 C 328.747 225.941 328.614 227.419 328.535 228.866 C 328.491 229.524 328.451 230.18 328.438 230.778 C 328.434 230.972 328.429 231.165 328.42 231.349 C 328.384 232.647 328.38 233.585 328.38 233.585 C 328.633 233.585 328.877 233.595 329.122 233.613 C 330.5 233.674 331.799 233.841 333 234.061 C 337.036 234.831 339.924 236.306 340.968 236.947 C 341.24 237.114 341.354 237.456 341.232 237.745 Z " fill="rgb(245,167,132)"/><path d=" M 328.941 224.915 C 327.412 231.848 320.439 231.371 318.8 230.453 L 319.093 227.319 C 324.842 228.491 328.941 224.915 328.941 224.915 Z " fill="rgb(224,133,92)"/><path d=" M 317.072 214.913 C 316.2 215.82 316.128 217.856 316.055 220.107 C 315.835 226.92 317.875 229.047 321.355 229.422 C 324.835 229.797 328.476 228.458 329.226 222.141 C 329.6 218.982 330 216.064 328.851 214.699 C 327.138 212.665 319.749 212.129 317.072 214.913 Z " fill="rgb(245,167,132)"/><path d=" M 328.742 221.229 C 328.742 221.229 329.807 218.407 331.488 219.903 C 333.167 221.399 330.846 225.661 328.275 225.345 C 328.275 225.345 327.923 222.195 328.742 221.229 Z " fill="rgb(245,167,132)"/><path d=" M 370.528 251.695 C 370.405 253.323 370.039 255.091 368.783 256.141 C 368.127 256.685 367.311 256.962 366.456 257.093 C 365.751 257.197 365.02 257.211 364.322 257.19 C 358.674 257.051 338.7 251.646 334.613 249.022 C 333.827 248.518 333.495 247.33 333.419 245.881 C 333.238 242.395 334.551 237.353 334.675 236.415 C 334.834 235.255 335.766 234.813 337.202 234.868 C 343.582 235.117 359.917 245.266 361.919 246.163 C 361.194 242.6 360.566 239.853 360 237.036 C 359.62 235.172 359.261 233.273 358.923 231.077 C 358.73 229.821 358.537 228.468 358.343 226.97 C 358.212 225.933 358.08 224.823 357.949 223.628 C 359.869 223.193 363.138 221.044 363.621 222.948 C 363.773 223.549 364.447 225.437 364.64 226.106 C 365.006 227.425 366.745 233.28 367.18 234.779 C 369.031 241.138 370.812 247.842 370.528 251.695 Z " fill="rgb(245,167,132)"/><path d=" M 330.702 221.186 C 330.33 221.25 329.95 221.602 329.68 221.853 C 329.4 222.116 329.071 222.443 328.931 222.807 C 328.887 222.922 329.046 222.992 329.123 222.92 C 329.342 222.717 329.515 222.474 329.718 222.255 C 329.864 222.412 330.01 222.572 330.212 222.645 C 330.367 222.702 330.482 222.509 330.413 222.382 C 330.326 222.219 330.165 222.101 330.007 221.993 C 330.275 221.787 330.596 221.626 330.817 221.385 C 330.903 221.293 330.817 221.166 330.702 221.186 Z " fill="rgb(224,133,92)"/><path d=" M 319.046 219.945 C 319.046 219.945 318.457 220.163 318.547 219.12 C 318.626 218.183 319.046 218.309 319.046 218.309 C 319.046 218.309 319.455 218.307 319.393 219.127 C 319.331 219.947 319.046 219.945 319.046 219.945 Z " fill="rgb(1,25,72)"/><path d=" M 325.016 219.945 C 325.016 219.945 324.427 220.163 324.516 219.12 C 324.597 218.183 325.016 218.309 325.016 218.309 C 325.016 218.309 325.426 218.307 325.362 219.127 C 325.301 219.947 325.016 219.945 325.016 219.945 Z " fill="rgb(1,25,72)"/><path d=" M 321.721 222.722 C 321.423 222.677 320.739 222.856 320.599 222.534 C 320.481 222.265 320.962 220.68 321.029 220.41 C 321.274 219.43 321.532 218.768 321.715 217.593 L 321.612 217.565 C 320.921 219.125 320.664 221.054 320.246 222.711 C 320.222 222.803 320.29 222.898 320.387 222.898 C 320.824 222.89 321.25 222.982 321.686 222.985 C 321.832 222.985 321.874 222.744 321.721 222.722 Z " fill="rgb(224,133,92)"/><path d=" M 319.691 216.777 C 319.27 216.562 318.481 216.505 318.175 216.944 C 318.119 217.024 318.192 217.145 318.287 217.14 C 318.496 217.129 318.682 217.027 318.891 217.01 C 319.118 216.992 319.335 217.043 319.551 217.112 C 319.747 217.174 319.879 216.871 319.691 216.777 Z " fill="rgb(1,25,72)"/><path d=" M 325.898 217.293 C 325.659 216.694 324.613 216.636 324.166 217.008 C 324.065 217.093 324.13 217.253 324.24 217.288 C 324.499 217.368 324.777 217.27 325.046 217.295 C 325.284 217.316 325.472 217.421 325.692 217.498 C 325.805 217.538 325.946 217.409 325.898 217.293 Z " fill="rgb(1,25,72)"/><path d=" M 320.242 224.836 C 320.242 224.836 322.365 225.154 323.971 224.192 C 323.971 224.192 323.418 225.585 322.107 225.942 C 320.795 226.298 320.242 224.836 320.242 224.836 Z " fill="rgb(255,255,255)"/><path d=" M 306.485 251.531 C 304.669 257.33 301.52 267.979 300.985 271.49 C 300.669 273.525 300.641 281.117 300.676 287.11 C 300.702 290.049 300.763 294.938 300.763 294.938 C 299.192 298.008 295.419 297.026 295.419 297.026 C 295.419 297.026 295.305 296.525 295.131 295.648 C 294.885 294.446 294.499 292.524 294.095 290.216 C 293.112 284.627 291.98 276.782 292.217 271.438 C 292.454 266.279 298.685 245.037 300.097 241.114 C 302.273 235.069 307.642 234.279 308.986 234.279 C 311.495 234.279 308.073 246.44 306.485 251.531 Z " fill="rgb(245,167,132)"/><path d=" M 338.103 293.133 C 338.703 297.017 339.172 299.789 339.172 299.789 C 328.939 301.785 322.829 299.789 322.829 299.789 L 321.028 282.267 L 317.798 299.789 C 315.038 301.785 300.429 298.871 300.429 298.871 C 300.429 298.871 306.485 274.138 306.681 269.185 C 306.878 264.232 304.892 234.785 304.892 234.785 C 308.776 233.628 312.3 233.3 314.799 233.235 C 315.421 233.213 315.963 233.214 316.454 233.226 C 317.764 233.258 318.53 233.347 318.53 233.347 C 318.53 233.347 320.895 234.263 328.38 233.585 C 329.11 233.52 329.811 233.489 330.466 233.489 C 331.141 233.489 331.742 233.531 332.309 233.574 C 337.023 234.01 340.602 235.362 340.602 235.362 C 339.129 238.396 337.994 244.178 337.143 250.244 C 336.02 258.373 335.419 266.981 335.31 270.091 C 335.168 273.68 336.903 285.517 338.091 293.121 L 338.103 293.133 Z " fill="rgb(29,66,61)"/><path d=" M 295.32 295.28 C 295.32 295.28 295.475 296.944 295.45 299.029 C 295.417 301.115 295.32 305.691 296.053 307.035 C 296.053 307.035 296.251 307.252 296.614 307.507 L 296.784 307.613 C 297.123 307.82 297.573 308.031 298.133 308.124 L 298.265 308.148 C 298.663 308.207 299.121 308.213 299.611 308.107 L 299.734 308.078 C 300.109 307.995 300.511 307.86 300.938 307.653 C 300.938 307.653 300.928 302.99 301.485 301.521 C 301.485 301.521 302.22 304.302 303.095 304.52 L 303.684 304.336 C 303.684 304.336 303.236 301.251 303.162 299.861 C 302.981 296.475 300.213 294.224 300.213 294.224 C 300.213 294.224 296.538 293.165 295.32 295.28 Z " fill="rgb(245,167,132)"/><path d=" M 299.611 308.107 L 299.734 308.078 C 299.561 305.995 299.737 303.939 299.846 301.828 L 299.771 301.813 C 299.205 303.875 299.288 306.012 299.611 308.107 Z " fill="rgb(224,133,92)"/><path d=" M 298.133 308.124 L 298.265 308.148 C 298.094 306.061 298.269 304.009 298.371 301.898 L 298.302 301.884 C 297.738 303.929 297.816 306.048 298.133 308.124 Z " fill="rgb(224,133,92)"/><path d=" M 296.614 307.507 L 296.784 307.613 C 296.647 305.643 296.812 303.697 296.91 301.702 L 296.84 301.687 C 296.311 303.594 296.348 305.566 296.614 307.507 Z " fill="rgb(224,133,92)"/><path d=" M 330.5 233.49 L 321.029 265.156 L 316.454 233.226 C 317.472 233.19 318.585 232.814 318.585 232.814 L 318.689 231.612 L 318.708 231.428 C 319.821 231.612 321.918 231.884 323.085 233.569 C 323.085 233.569 325.587 231.287 328.166 230.823 C 328.254 230.805 328.349 230.787 328.438 230.778 L 328.438 230.883 C 328.438 231.042 328.429 231.2 328.42 231.349 C 328.384 232.647 328.384 232.647 328.384 232.647 C 328.912 233.192 330.149 233.454 330.466 233.489 L 330.5 233.49 Z " fill="rgb(218,222,234)"/><path d=" M 306.102 254.194 C 306.102 254.194 302.178 265.946 301.204 271.039 C 301.122 271.466 301.074 271.825 301.04 272.141 C 300.636 276.374 301.04 290.853 301.04 290.853 C 298.084 293.624 293.85 293.089 293.85 293.089 C 293.85 293.089 292.258 275.382 292.181 274.138 C 292.061 271.749 292.247 269.152 292.53 266.785 C 292.596 266.272 292.662 265.771 292.739 265.289 C 293.272 261.581 293.981 258.743 293.981 258.743 C 299.36 234.785 304.892 234.785 304.892 234.785 C 310.413 238.188 306.102 254.194 306.102 254.194 Z " fill="rgb(29,66,61)"/><path d=" M 370.528 251.695 C 370.405 253.323 370.039 255.091 368.783 256.141 C 368.127 256.685 367.311 256.962 366.456 257.093 C 365.751 257.197 365.02 257.211 364.322 257.19 C 358.674 257.051 338.7 251.646 334.613 249.022 C 333.827 248.518 333.495 247.33 333.419 245.881 C 334.171 242.159 335.393 238.534 337.072 235.13 C 337.113 235.04 337.658 234.585 337.7 234.496 C 344.079 234.744 359.917 245.266 361.919 246.163 C 360.711 240.233 359.779 236.567 358.923 231.077 C 359.351 231.133 359.779 231.208 360.145 231.216 C 362.085 231.25 364.032 230.967 365.882 230.387 C 368.078 237.817 370.882 246.937 370.528 251.695 Z " fill="rgb(29,66,61)"/><path d=" M 362.893 225.548 C 362.893 225.548 363.503 223.992 364.465 222.141 C 365.431 220.294 367.578 216.251 367.53 214.721 C 367.53 214.721 367.45 214.437 367.241 214.047 L 367.137 213.875 C 366.927 213.539 366.619 213.147 366.161 212.811 L 366.053 212.731 C 365.725 212.499 365.319 212.289 364.834 212.163 L 364.711 212.134 C 364.339 212.039 363.92 211.978 363.445 211.972 C 363.445 211.972 361.355 216.138 360.196 217.2 C 360.196 217.2 360.791 214.386 360.108 213.798 L 359.5 213.697 C 359.5 213.697 358.512 216.653 357.952 217.928 C 356.589 221.032 358.048 224.289 358.048 224.289 C 358.048 224.289 360.854 226.889 362.893 225.548 Z " fill="rgb(245,167,132)"/><path d=" M 364.834 212.163 L 364.711 212.134 C 363.928 214.071 362.845 215.828 361.798 217.664 L 361.859 217.711 C 363.291 216.124 364.18 214.178 364.834 212.163 Z " fill="rgb(224,133,92)"/><path d=" M 366.161 212.811 L 366.053 212.731 C 365.268 214.673 364.187 216.426 363.147 218.264 L 363.202 218.308 C 364.625 216.736 365.511 214.809 366.161 212.811 Z " fill="rgb(224,133,92)"/><path d=" M 367.241 214.047 L 367.137 213.875 C 366.372 215.697 365.349 217.359 364.364 219.097 L 364.419 219.142 C 365.787 217.712 366.604 215.9 367.241 214.047 Z " fill="rgb(224,133,92)"/><path d=" M 306.102 254.194 C 306.102 254.194 302.11 265.934 301.204 271.039 C 301.062 271.334 300.985 271.49 300.985 271.49 C 300.985 271.49 301.837 255.263 305.645 246.47 C 305.645 246.47 305.754 247.528 306.102 254.194 Z " fill="rgb(22,51,47)"/><path d=" M 338.091 293.121 C 337.776 292.685 332.276 284.852 332.059 271.487 C 331.83 257.74 337.143 250.244 337.143 250.244 C 336.02 258.373 335.419 266.981 335.31 270.091 C 335.168 273.68 336.903 285.517 338.091 293.121 Z " fill="rgb(22,51,47)"/><path d=" M 322.909 237.489 C 322.173 237.489 322.173 238.632 322.909 238.632 C 323.644 238.632 323.646 237.489 322.909 237.489 Z " fill="rgb(195,198,209)"/><path d=" M 322.537 244.161 C 321.665 244.161 321.665 245.517 322.537 245.517 C 323.409 245.517 323.41 244.161 322.537 244.161 Z " fill="rgb(195,198,209)"/><path d=" M 321.883 251.983 C 320.983 251.983 320.982 253.382 321.883 253.382 C 322.782 253.382 322.784 251.983 321.883 251.983 Z " fill="rgb(195,198,209)"/></g><g><clipPath id="_clipPath_6YYxVtqBv3S8nuPVqm3SnGN4Ud1kV5TC"><path d=" M 408.098 291.384 C 401.388 291.384 393.856 291.212 385.724 290.921 C 375.982 290.572 370.292 288.886 370.292 285.771 C 370.292 282.022 388.132 281.094 414.402 280.88 C 430.312 281.283 440.215 282.498 440.215 285.771 C 440.215 289.931 427.649 291.384 408.098 291.384 Z " fill="rgb(255,255,255)"/></clipPath><g clip-path="url(#_clipPath_6YYxVtqBv3S8nuPVqm3SnGN4Ud1kV5TC)"><path d=" M 370.292 280.88 L 440.215 280.88 L 440.215 291.384 L 370.292 291.384 L 370.292 280.88 Z " fill="rgb(218,222,234)"/></g><path d=" M 387.357 122.878 C 388.162 115.451 398.425 115.219 402.641 119.91 C 403.982 121.402 404.929 123.354 406.703 124.29 C 408.729 125.357 411.211 124.781 413.458 125.224 C 416.412 125.807 418.876 128.349 419.366 131.319 C 419.767 133.749 418.974 136.387 419.999 138.628 C 420.564 139.864 421.612 140.797 422.55 141.781 C 424.743 144.078 426.494 146.923 426.914 150.07 C 427.335 153.215 426.163 156.815 423.617 158.828 C 420.685 161.146 416.444 158.868 413.307 160.709 C 412.065 161.437 411.186 162.731 409.85 163.264 C 407.559 164.178 405.408 162.336 403.203 161.963 C 400.691 161.54 398.537 161.458 396.464 159.682 C 393.436 157.087 392.613 152.753 392.52 148.767 C 392.41 144.17 392.998 139.286 390.779 135.105 C 388.977 131.712 386.919 126.914 387.357 122.878 Z " fill="rgb(1,25,72)"/><path d=" M 434.884 149.251 C 434.872 149.505 434.834 149.739 434.789 149.959 C 434.719 150.26 434.613 150.525 434.473 150.779 C 432.006 155.495 418.906 154.322 410.934 152.376 C 410.934 152.376 410.86 152.354 410.721 152.33 C 410.907 156.861 410.557 165.842 415.806 176.375 C 416.015 176.793 416.217 177.228 416.401 177.634 C 416.576 178.005 416.757 178.371 416.919 178.708 C 418.031 180.944 418.88 182.539 418.88 182.539 C 414.627 188.112 394.894 191.785 394.894 191.785 C 394.998 190.071 394.836 188.03 394.5 185.899 C 394.383 185.099 394.233 184.277 394.071 183.454 C 393.955 182.816 393.817 182.156 393.666 181.531 L 393.655 181.427 C 393.448 180.512 393.219 179.598 392.992 178.708 C 392.43 176.501 391.941 174.029 391.57 171.897 C 391.026 168.758 389.551 165.886 387.362 163.592 C 383.457 170.799 376.327 180.338 371.414 179.201 C 371.136 179.144 370.86 179.037 370.594 178.899 C 370.385 178.794 370.189 178.656 370.003 178.506 C 368.833 177.59 367.315 176.06 365.693 174.218 C 362.866 171.031 353.143 159.222 353.143 159.222 L 355.161 155.702 C 355.161 155.702 362.183 162.261 362.391 162.446 C 364.419 164.3 366.565 166.214 368.396 167.744 C 369.647 168.775 370.715 169.645 371.548 170.172 L 371.718 170.267 C 371.856 170.325 371.999 170.374 372.138 170.385 C 374.328 170.582 376.381 164.055 378.804 158.158 C 380.008 155.226 381.925 152.242 383.35 150.724 C 383.708 150.329 384.036 150.035 384.326 149.863 C 384.326 149.863 389.772 146.282 390.745 143.513 C 390.85 143.222 390.896 142.863 390.896 142.434 C 390.907 141.288 390.619 139.735 390.282 138.414 C 389.911 136.861 389.494 135.587 389.494 135.587 C 390.676 134.115 396.642 136.272 396.642 136.272 C 396.642 136.272 396.679 137.046 396.747 137.951 C 396.817 138.901 396.933 140.001 397.072 140.558 C 397.246 141.275 397.518 142.045 397.965 142.562 C 398.136 142.761 398.312 142.932 398.509 143.049 C 398.95 143.303 399.691 143.119 400.445 142.759 C 400.629 142.679 400.815 142.601 400.988 142.496 C 401.637 142.16 402.251 141.763 402.68 141.485 L 402.803 141.412 C 404.901 140.068 409.25 141.171 413.71 142.654 C 419.771 144.659 426.052 147.36 427.326 145.577 C 427.407 145.46 427.465 145.327 427.5 145.177 L 427.551 144.986 C 427.701 143.734 427.763 141.766 427.776 139.507 L 427.776 139.338 C 427.776 137.345 427.71 135.136 427.674 133.002 C 427.671 132.725 427.651 132.434 427.651 132.157 C 427.547 128.669 427.268 123.13 427.268 123.13 L 430.606 123.767 C 430.606 123.767 431.243 126.398 432.02 130.025 C 432.6 132.69 433.248 135.888 433.793 138.994 L 433.827 139.237 C 434.5 143.213 434.999 147.003 434.884 149.251 Z " fill="rgb(245,167,132)"/><path d=" M 355.796 158.764 C 355.796 158.764 348.844 160.327 345.905 158.841 C 345.905 158.841 345.751 158.696 345.575 158.434 L 345.5 158.301 C 345.359 158.058 345.217 157.728 345.156 157.328 L 345.141 157.231 C 345.114 156.945 345.117 156.618 345.191 156.267 L 345.215 156.178 C 345.28 155.912 345.384 155.624 345.538 155.318 C 345.538 155.318 348.885 155.403 349.949 155.024 C 349.949 155.024 347.966 154.449 347.822 153.819 L 347.961 153.397 C 347.961 153.397 350.173 153.773 351.165 153.845 C 353.597 154.027 355.326 155.778 355.326 155.778 C 355.326 155.778 357.337 157.92 355.796 158.764 Z " fill="rgb(245,167,132)"/><path d=" M 345.156 157.328 L 345.141 157.231 C 346.638 157.387 348.113 157.293 349.631 157.252 L 349.641 157.302 C 348.162 157.676 346.642 157.588 345.156 157.328 Z " fill="rgb(224,133,92)"/><path d=" M 349.713 158.349 C 348.352 158.69 346.95 158.641 345.575 158.434 L 345.5 158.301 C 346.9 158.416 348.288 158.365 349.703 158.298 L 349.713 158.349 Z " fill="rgb(224,133,92)"/><path d=" M 345.191 156.267 L 345.215 156.178 C 346.707 156.335 348.186 156.24 349.704 156.196 L 349.713 156.249 C 348.224 156.623 346.69 156.53 345.191 156.267 Z " fill="rgb(224,133,92)"/><path d=" M 389.016 222.418 C 391.485 210.467 402.435 218.966 402.435 218.966 L 400.175 231.935 C 401.932 232.684 413.085 237.068 420.621 246.482 C 427.314 254.846 432.746 260.847 434.403 262.649 C 434.92 263.128 435.691 263.8 436.773 264.632 C 437.296 265.037 437.898 265.482 438.578 265.955 C 439.208 266.4 435.958 274.409 434.675 275.099 C 433.398 275.781 433.689 274.379 433.689 274.379 C 434.355 272.973 434.575 271.214 434.54 269.857 C 434.519 269.01 434.452 268.283 434.201 267.982 C 433.46 267.091 430.794 265.146 428.95 263.828 C 423.465 259.989 410.579 251.03 398.233 242.87 C 396.032 241.414 394.392 240.105 393.206 238.933 C 393.206 238.933 386.548 234.368 389.016 222.418 Z " fill="rgb(224,133,92)"/><path d=" M 438.578 265.955 C 439.208 266.4 435.958 274.409 434.675 275.099 C 433.398 275.781 433.689 274.379 433.689 274.379 C 434.355 272.973 434.575 271.214 434.54 269.857 C 434.714 269.674 436.237 267.639 436.773 264.632 C 437.296 265.037 437.898 265.482 438.578 265.955 Z " fill="rgb(1,25,72)"/><path d=" M 388.493 284.752 C 390.045 284.626 391.676 283.937 392.834 283.228 C 393.558 282.786 394.153 282.364 394.289 281.997 C 394.689 280.909 395.041 277.627 395.259 275.371 C 395.84 268.702 396.303 249.837 397.194 235.066 C 398.367 215.621 409.33 224.47 409.036 229.018 C 409.007 229.481 410.808 247.454 406.113 259.484 C 402.219 269.463 399.74 277.167 399.008 279.505 C 398.851 280.192 398.656 281.195 398.476 282.547 C 398.387 283.203 398.303 283.947 398.233 284.771 C 398.163 285.54 389.601 286.732 388.364 285.966 C 387.134 285.201 388.493 284.752 388.493 284.752 Z " fill="rgb(245,167,132)"/><path d=" M 398.233 284.771 C 398.163 285.54 389.601 286.732 388.364 285.966 C 387.134 285.202 388.493 284.752 388.493 284.752 C 390.045 284.626 391.676 283.937 392.834 283.228 C 393.082 283.287 395.604 283.588 398.476 282.547 C 398.387 283.203 398.302 283.948 398.233 284.771 Z " fill="rgb(1,25,72)"/><path d=" M 429.161 125.853 C 429.161 125.853 434.567 121.209 435.129 117.964 C 435.129 117.964 435.104 117.753 434.999 117.455 L 434.938 117.317 C 434.828 117.057 434.647 116.747 434.363 116.458 L 434.294 116.389 C 434.081 116.196 433.816 116.005 433.491 115.853 L 433.405 115.821 C 433.153 115.714 432.859 115.624 432.522 115.566 C 432.522 115.566 430.591 118.301 429.652 118.929 C 429.652 118.929 430.376 116.995 429.955 116.503 L 429.533 116.363 C 429.533 116.363 428.516 118.36 427.981 119.2 C 426.675 121.26 427.048 123.692 427.048 123.692 C 427.048 123.692 427.564 126.585 429.161 125.853 Z " fill="rgb(245,167,132)"/><path d=" M 434.363 116.458 L 434.294 116.389 C 433.525 117.683 432.569 118.811 431.631 120.004 L 431.665 120.04 C 432.847 119.079 433.684 117.806 434.363 116.458 Z " fill="rgb(224,133,92)"/><path d=" M 432.461 120.725 C 433.546 119.837 434.345 118.682 434.999 117.455 L 434.938 117.317 C 434.194 118.509 433.328 119.594 432.425 120.686 L 432.461 120.725 Z " fill="rgb(224,133,92)"/><path d=" M 433.491 115.853 L 433.405 115.821 C 432.64 117.111 431.68 118.241 430.739 119.431 L 430.777 119.471 C 431.991 118.531 432.807 117.213 433.491 115.853 Z " fill="rgb(224,133,92)"/><path d=" M 434.884 149.251 C 434.872 149.491 434.832 149.73 434.789 149.959 C 434.723 150.254 434.611 150.527 434.473 150.779 C 431.937 155.448 418.898 154.317 410.934 152.376 C 410.934 152.376 410.862 152.353 410.721 152.33 C 410.721 152.472 410.728 152.615 410.73 152.767 C 410.802 157.078 410.742 164.877 414.746 174.097 C 415.073 174.849 415.424 175.601 415.806 176.375 C 416.014 176.79 416.205 177.231 416.401 177.634 C 416.577 178.017 416.755 178.357 416.919 178.708 C 412.631 180.847 398.456 181.33 393.655 181.427 C 393.448 180.511 393.221 179.591 392.992 178.708 C 392.416 176.492 391.93 174.036 391.57 171.897 C 391.015 168.765 389.543 165.882 387.362 163.592 C 383.456 170.803 376.335 180.336 371.414 179.201 C 371.141 179.137 370.855 179.04 370.594 178.899 C 370.386 178.789 370.189 178.658 370.003 178.506 C 368.836 177.6 367.319 176.062 365.693 174.218 L 368.396 167.744 C 369.639 168.77 370.72 169.637 371.548 170.172 L 371.718 170.267 C 371.859 170.333 371.997 170.364 372.138 170.385 C 374.321 170.571 376.37 164.06 378.804 158.158 C 380.003 155.223 381.931 152.229 383.35 150.724 C 385.291 151.607 390.012 153.258 395.042 151.098 C 399.526 149.189 400.705 144.962 400.988 142.496 C 401.631 142.158 402.254 141.758 402.68 141.485 L 402.803 141.412 C 404.909 140.07 409.248 141.181 413.71 142.654 C 419.765 144.662 426.05 147.354 427.326 145.577 C 427.414 145.456 427.468 145.33 427.5 145.177 L 427.551 144.986 C 427.692 143.731 427.776 141.755 427.776 139.507 L 427.776 139.338 C 429.259 139.165 431.962 138.954 433.827 139.237 C 434.504 143.209 434.994 146.992 434.884 149.251 Z " fill="rgb(125,194,84)"/><path d=" M 393.248 179.713 C 392.632 183.041 391.684 186.185 390.363 189.324 C 384.837 202.469 375.331 214.078 376.295 229.166 C 376.361 230.201 376.496 231.292 377.119 232.123 C 377.487 232.613 377.999 232.973 378.521 233.293 C 382.481 235.722 386.136 235.392 390.475 234.599 C 391.017 234.495 391.525 234.384 392.021 234.267 C 395.568 233.42 398.156 232.187 401.371 231.548 C 401.794 231.462 402.231 231.392 402.681 231.332 C 404.305 231.111 406.117 231.059 408.296 231.281 C 408.726 231.32 409.168 231.372 409.631 231.437 C 410.82 231.605 412.985 232.673 413.613 231.17 C 414.446 229.177 414.201 227.47 414.561 225.401 C 414.988 222.949 415.741 220.53 416.68 218.227 C 419.907 210.305 422.698 199.064 421.817 192.068 C 421.442 189.076 420.895 186.076 419.797 183.256 C 418.728 180.509 417.096 178.129 415.392 175.745 C 401.226 181.136 393.375 179.599 393.265 180.005 C 393.212 180.198 393.182 180.402 393.15 180.604 L 393.248 179.713 Z " fill="rgb(125,194,84)"/><path d=" M 396.747 137.951 C 394.546 140.997 392.379 142.075 390.896 142.434 C 390.907 141.288 390.619 139.735 390.282 138.414 C 389.911 136.861 389.494 135.587 389.494 135.587 C 390.676 134.115 396.642 136.272 396.642 136.272 C 396.642 136.272 396.679 137.046 396.747 137.951 Z " fill="rgb(224,133,92)"/><path d=" M 385.785 133.28 C 385.785 133.28 383.696 128.667 386.57 123.839 C 389.443 119.012 395.699 121.232 395.699 121.232 C 395.699 121.232 401.524 122.903 401.35 128.836 C 401.175 134.768 396.642 136.272 396.642 136.272 L 385.785 133.28 Z " fill="rgb(125,194,84)"/><path d=" M 385.913 131.601 C 385.913 131.601 384.039 122.252 392.454 122.988 C 402.226 123.842 400.759 131.276 398.964 133.718 C 397.169 136.158 385.269 135.582 385.913 131.601 Z " fill="rgb(1,25,72)"/><path d=" M 387.133 127.706 C 386.431 128.535 386.107 130.168 385.88 132.098 C 385.196 137.941 387.843 140.333 389.763 140.496 C 391.733 140.663 395.957 140.185 397.06 134.805 C 397.612 132.116 397.786 129.832 397.279 128.377 C 396.216 125.33 390.212 124.068 387.133 127.706 Z " fill="rgb(245,167,132)"/><path d=" M 388.557 132.702 C 388.557 132.702 388.033 132.848 388.186 131.958 C 388.323 131.158 388.675 131.297 388.675 131.297 C 388.675 131.297 389.027 131.324 388.914 132.025 C 388.801 132.726 388.557 132.702 388.557 132.702 Z " fill="rgb(1,25,72)"/><path d=" M 393.343 133.225 C 393.343 133.225 392.82 133.371 392.973 132.481 C 393.111 131.68 393.462 131.82 393.462 131.82 C 393.462 131.82 393.815 131.847 393.701 132.548 C 393.588 133.249 393.343 133.225 393.343 133.225 Z " fill="rgb(1,25,72)"/><path d=" M 391.021 134.861 C 390.767 134.801 390.165 134.905 390.068 134.618 C 389.987 134.378 390.515 133.051 390.593 132.822 C 390.679 132.572 390.762 132.348 390.846 132.128 L 390.781 132.074 L 390.622 131.999 C 390.303 132.914 390.051 133.877 389.752 134.745 L 389.86 134.915 C 390.236 134.941 390.595 135.051 390.971 135.085 C 391.096 135.096 391.15 134.892 391.021 134.861 Z " fill="rgb(224,133,92)"/><path d=" M 389.342 130.026 C 388.995 129.809 388.32 129.703 388.025 130.059 L 388.107 130.235 C 388.288 130.241 388.455 130.168 388.637 130.168 C 388.834 130.169 389.016 130.229 389.197 130.302 C 389.361 130.37 389.495 130.12 389.342 130.026 Z " fill="rgb(1,25,72)"/><path d=" M 394.296 131.009 C 394.132 130.476 393.237 130.351 392.826 130.638 C 392.732 130.703 392.777 130.846 392.87 130.884 C 393.087 130.972 393.332 130.908 393.563 130.949 C 393.765 130.985 393.919 131.088 394.103 131.171 C 394.198 131.213 394.327 131.112 394.296 131.009 Z " fill="rgb(1,25,72)"/><path d=" M 391.515 136.307 C 391.145 136.452 390.86 136.635 390.439 136.616 C 390.113 136.602 389.773 136.417 389.457 136.502 L 389.396 136.624 C 389.603 136.995 390.217 137.079 390.604 137.079 C 391.02 137.079 391.521 136.968 391.764 136.602 C 391.88 136.429 391.698 136.235 391.515 136.307 Z " fill="rgb(224,133,92)"/><path d=" M 391.882 126.191 C 391.941 126.631 392.119 127.071 392.451 127.349 C 392.795 127.638 393.252 127.719 393.676 127.85 C 394.1 127.981 394.546 128.211 394.704 128.641 C 394.811 128.933 394.762 129.26 394.798 129.571 C 394.851 130.036 395.107 130.472 395.477 130.735 C 395.815 130.973 396.253 131.088 396.483 131.438 C 396.645 131.687 396.668 132.005 396.777 132.283 C 396.887 132.561 397.169 132.822 397.44 132.714 C 398.026 131.859 398.59 130.954 398.815 129.932 C 399.17 128.329 398.604 126.574 397.466 125.445 C 396.327 124.317 394.672 123.814 393.105 124.013 C 391.913 124.164 391.732 125.08 391.882 126.191 Z " fill="rgb(1,25,72)"/><path d=" M 396.752 133.489 C 396.752 133.489 397.873 131.139 399.21 132.547 C 400.547 133.955 398.266 137.261 396.077 136.803 C 396.077 136.803 395.977 134.259 396.752 133.489 Z " fill="rgb(245,167,132)"/><path d=" M 398.408 133.585 C 398.083 133.613 397.732 133.887 397.481 134.084 C 397.22 134.289 396.914 134.547 396.768 134.85 C 396.721 134.945 396.852 135.017 396.925 134.96 C 397.127 134.801 397.295 134.606 397.485 134.432 C 397.598 134.578 397.713 134.724 397.881 134.803 C 398.009 134.863 398.122 134.706 398.072 134.592 C 398.009 134.445 397.879 134.332 397.751 134.227 C 397.996 134.07 398.285 133.955 398.494 133.763 C 398.572 133.69 398.509 133.575 398.408 133.585 Z " fill="rgb(224,133,92)"/><path d=" M 414.746 174.097 C 412.487 171.925 410.261 169.155 409.356 166.045 C 407.545 159.815 409.978 154.251 410.73 152.767 C 410.873 157.076 410.742 164.877 414.746 174.097 Z " fill="rgb(106,171,80)"/><path d=" M 396.029 190.23 C 393.843 196.232 390.909 201.761 388.262 207.554 C 386.046 212.405 384.037 217.905 384.706 223.324 C 384.756 223.742 385.372 223.769 385.38 223.324 C 385.476 216.774 387.368 211.154 390.207 205.296 C 392.536 200.492 395.375 195.63 396.359 190.32 C 396.399 190.105 396.105 190.023 396.029 190.23 Z " fill="rgb(106,171,80)"/><path d=" M 400.308 201.407 C 396.652 207.498 395.599 215.722 396.77 222.682 C 396.843 223.123 397.476 222.978 397.505 222.583 C 397.748 219.281 397.491 215.972 397.863 212.671 C 398.294 208.866 399.263 205.227 400.948 201.782 C 401.156 201.358 400.557 200.994 400.308 201.407 Z " fill="rgb(106,171,80)"/><path d=" M 410.129 185.991 L 410.004 186.044 C 411.946 192.106 412.021 197.539 411.138 203.804 C 410.388 209.123 409.243 214.457 408.809 219.809 C 408.774 220.252 409.459 220.327 409.571 219.913 C 411.163 214.114 411.815 207.903 412.537 201.939 C 413.204 196.438 413.156 190.838 410.129 185.991 Z " fill="rgb(106,171,80)"/></g><path d=" M 60.256 109.615 C 61.777 114.511 68.722 114.174 70.352 113.526 L 70.061 111.313 C 64.337 112.141 60.256 109.615 60.256 109.615 Z " fill="rgb(224,133,92)"/><path d=" M 97.454 121.369 C 94.006 123.355 87.69 127.37 84.123 132.007 L 83.408 126.333 L 97.454 121.369 Z " fill="rgb(203,115,48)"/><path d=" M 415.032 62.722 C 402.479 67.35 396.055 81.278 400.684 93.831 C 402.293 98.195 405.029 101.817 408.439 104.493 C 408.983 106.458 409.688 111.283 405.253 115.566 C 405.253 115.566 412.649 114.436 414.897 108.12 C 420.151 110.097 426.111 110.273 431.792 108.178 C 444.344 103.549 450.768 89.621 446.14 77.069 C 441.511 64.517 427.583 58.094 415.032 62.722 Z " fill="rgb(218,222,234)"/><path d=" M 419.855 96.735 C 419.855 96.307 419.926 95.91 420.07 95.546 C 420.213 95.182 420.415 94.867 420.674 94.6 C 420.934 94.335 421.249 94.123 421.62 93.967 C 421.99 93.811 422.402 93.734 422.857 93.734 C 423.326 93.734 423.744 93.811 424.115 93.967 C 424.485 94.123 424.801 94.335 425.061 94.6 C 425.32 94.867 425.522 95.182 425.665 95.546 C 425.807 95.91 425.879 96.307 425.879 96.735 C 425.879 97.164 425.807 97.561 425.665 97.925 C 425.522 98.288 425.32 98.607 425.061 98.88 C 424.801 99.152 424.485 99.364 424.115 99.514 C 423.744 99.663 423.326 99.738 422.857 99.738 C 422.402 99.738 421.99 99.663 421.62 99.514 C 421.249 99.364 420.934 99.152 420.674 98.88 C 420.415 98.607 420.213 98.288 420.07 97.925 C 419.926 97.561 419.855 97.164 419.855 96.735 Z  M 420.362 90.77 C 420.362 89.899 420.401 89.117 420.48 88.421 C 420.557 87.725 420.69 87.086 420.879 86.5 C 421.067 85.915 421.32 85.369 421.639 84.863 C 421.957 84.356 422.351 83.856 422.818 83.362 C 423.169 82.972 423.494 82.592 423.793 82.221 C 424.093 81.85 424.349 81.478 424.564 81.1 C 424.778 80.723 424.946 80.333 425.069 79.93 C 425.194 79.528 425.256 79.092 425.256 78.625 C 425.256 76.454 424.553 75.369 423.15 75.369 C 422.903 75.369 422.649 75.431 422.39 75.554 C 422.129 75.678 421.892 75.875 421.678 76.148 C 421.464 76.422 421.288 76.766 421.151 77.182 C 421.015 77.598 420.941 78.098 420.927 78.683 L 415.41 78.683 C 415.423 77.318 415.632 76.135 416.034 75.135 C 416.437 74.134 416.986 73.309 417.681 72.659 C 418.377 72.009 419.189 71.525 420.118 71.207 C 421.048 70.888 422.058 70.729 423.15 70.729 C 424.345 70.729 425.414 70.898 426.358 71.236 C 427.298 71.574 428.099 72.068 428.754 72.717 C 429.411 73.368 429.916 74.167 430.266 75.115 C 430.616 76.064 430.792 77.156 430.792 78.391 C 430.792 79.235 430.675 80.002 430.442 80.691 C 430.207 81.38 429.902 82.026 429.524 82.631 C 429.148 83.235 428.712 83.82 428.219 84.385 C 427.724 84.95 427.211 85.519 426.698 86.11 C 426.407 86.445 426.174 86.786 425.987 87.125 C 425.798 87.462 425.648 87.817 425.538 88.187 C 425.428 88.557 425.346 88.954 425.295 89.376 C 425.242 89.798 425.21 90.263 425.197 90.77 L 420.362 90.77 Z " fill="rgb(255,255,255)"/><path d=" M 37.231 40.488 L 12.419 38.451 C 6.559 37.971 1.585 42.695 1.763 48.571 L 3.182 95.35 C 3.364 101.354 8.4 106.061 14.403 105.838 L 25.639 105.421 C 30.241 113.351 40.397 113.893 40.397 113.893 C 36.772 111.757 35.388 107.869 34.89 104.661 C 39.028 103.312 42.075 99.545 42.341 95.002 L 44.887 51.476 C 45.179 46.484 42.014 41.943 37.231 40.488 Z " fill="rgb(218,222,234)"/><path d=" M 19.266 85.496 C 19.266 84.944 19.357 84.436 19.541 83.968 C 19.725 83.5 19.983 83.095 20.318 82.752 C 20.652 82.411 21.057 82.138 21.533 81.938 C 22.009 81.738 22.539 81.637 23.124 81.637 C 23.725 81.637 24.264 81.738 24.74 81.938 C 25.216 82.138 25.621 82.411 25.956 82.752 C 26.289 83.095 26.548 83.5 26.732 83.968 C 26.915 84.436 27.008 84.944 27.008 85.496 C 27.008 86.047 26.915 86.557 26.732 87.025 C 26.548 87.492 26.289 87.9 25.956 88.252 C 25.621 88.602 25.216 88.874 24.74 89.066 C 24.264 89.257 23.725 89.353 23.124 89.353 C 22.539 89.353 22.009 89.257 21.533 89.066 C 21.057 88.874 20.652 88.602 20.318 88.252 C 19.983 87.9 19.725 87.492 19.541 87.025 C 19.357 86.557 19.266 86.047 19.266 85.496 Z  M 19.917 77.829 C 19.917 76.71 19.967 75.704 20.067 74.809 C 20.168 73.916 20.338 73.093 20.581 72.342 C 20.823 71.59 21.149 70.888 21.558 70.237 C 21.967 69.586 22.473 68.943 23.074 68.307 C 23.525 67.806 23.942 67.318 24.327 66.842 C 24.711 66.366 25.041 65.886 25.317 65.402 C 25.592 64.917 25.809 64.416 25.968 63.898 C 26.127 63.381 26.206 62.82 26.206 62.22 C 26.206 59.43 25.304 58.035 23.5 58.035 C 23.183 58.035 22.857 58.115 22.523 58.273 C 22.189 58.432 21.884 58.686 21.608 59.037 C 21.333 59.388 21.107 59.83 20.932 60.365 C 20.757 60.9 20.66 61.543 20.644 62.294 L 13.553 62.294 C 13.569 60.541 13.837 59.021 14.355 57.735 C 14.872 56.448 15.578 55.388 16.472 54.552 C 17.365 53.718 18.409 53.095 19.604 52.686 C 20.798 52.277 22.097 52.072 23.5 52.072 C 25.036 52.072 26.411 52.29 27.622 52.723 C 28.833 53.158 29.859 53.792 30.703 54.627 C 31.546 55.463 32.194 56.49 32.645 57.709 C 33.096 58.929 33.322 60.331 33.322 61.919 C 33.322 63.005 33.171 63.99 32.871 64.876 C 32.57 65.761 32.177 66.592 31.693 67.368 C 31.208 68.145 30.649 68.896 30.014 69.624 C 29.379 70.35 28.719 71.081 28.06 71.84 C 27.687 72.271 27.388 72.709 27.145 73.144 C 26.903 73.578 26.711 74.033 26.569 74.509 C 26.427 74.985 26.322 75.495 26.256 76.037 C 26.189 76.58 26.147 77.177 26.131 77.829 L 19.917 77.829 Z " fill="rgb(255,255,255)"/><path d=" M 494.327 118.794 L 512.546 117.299 C 516.848 116.946 520.501 120.414 520.37 124.729 L 519.328 159.078 C 519.194 163.487 515.498 166.943 511.089 166.78 L 502.839 166.473 C 499.46 172.296 492.003 172.694 492.003 172.694 C 494.664 171.125 495.68 168.27 496.046 165.915 C 493.007 164.925 490.77 162.158 490.575 158.823 L 488.705 126.862 C 488.491 123.197 490.815 119.862 494.327 118.794 Z " fill="rgb(218,222,234)"/><path d=" M 501.392 151.843 C 501.392 151.438 501.459 151.063 501.595 150.72 C 501.729 150.377 501.919 150.079 502.164 149.828 C 502.41 149.577 502.708 149.377 503.057 149.231 C 503.407 149.083 503.796 149.009 504.226 149.009 C 504.668 149.009 505.063 149.083 505.412 149.231 C 505.762 149.377 506.059 149.577 506.304 149.828 C 506.55 150.079 506.739 150.377 506.874 150.72 C 507.01 151.063 507.077 151.438 507.077 151.843 C 507.077 152.248 507.01 152.621 506.874 152.965 C 506.739 153.308 506.55 153.609 506.304 153.866 C 506.059 154.123 505.762 154.323 505.412 154.464 C 505.063 154.605 504.668 154.676 504.226 154.676 C 503.796 154.676 503.407 154.605 503.057 154.464 C 502.708 154.323 502.41 154.123 502.164 153.866 C 501.919 153.609 501.729 153.308 501.595 152.965 C 501.459 152.621 501.392 152.248 501.392 151.843 Z  M 501.871 146.212 C 501.871 145.391 501.908 144.652 501.981 143.996 C 502.054 143.34 502.18 142.736 502.358 142.184 C 502.536 141.631 502.775 141.117 503.076 140.638 C 503.377 140.16 503.746 139.688 504.188 139.222 C 504.519 138.854 504.827 138.495 505.108 138.145 C 505.391 137.796 505.634 137.443 505.836 137.087 C 506.037 136.732 506.197 136.364 506.314 135.983 C 506.43 135.604 506.489 135.192 506.489 134.752 C 506.489 132.703 505.826 131.679 504.502 131.679 C 504.268 131.679 504.029 131.737 503.783 131.854 C 503.538 131.97 503.314 132.157 503.113 132.414 C 502.91 132.671 502.745 132.997 502.615 133.39 C 502.486 133.783 502.415 134.254 502.405 134.806 L 497.198 134.806 C 497.209 133.519 497.405 132.402 497.787 131.458 C 498.165 130.513 498.684 129.735 499.34 129.121 C 499.996 128.508 500.763 128.051 501.64 127.75 C 502.517 127.45 503.471 127.3 504.502 127.3 C 505.63 127.3 506.638 127.459 507.528 127.778 C 508.417 128.097 509.171 128.563 509.79 129.176 C 510.41 129.79 510.885 130.544 511.216 131.439 C 511.547 132.334 511.713 133.365 511.713 134.53 C 511.713 135.327 511.603 136.051 511.382 136.701 C 511.161 137.351 510.873 137.962 510.518 138.532 C 510.162 139.103 509.751 139.654 509.285 140.188 C 508.819 140.721 508.333 141.258 507.85 141.815 C 507.576 142.131 507.356 142.454 507.178 142.772 C 507 143.091 506.859 143.425 506.755 143.775 C 506.651 144.124 506.573 144.499 506.526 144.897 C 506.476 145.296 506.445 145.735 506.433 146.212 L 501.871 146.212 Z " fill="rgb(255,255,255)"/><path d=" M 312.775 195.181 C 312.651 194.495 312.6 193.849 312.589 193.305 C 315.162 191.472 316.852 188.459 316.852 185.059 C 316.852 179.474 312.323 174.945 306.739 174.945 L 283.861 174.945 C 278.278 174.945 273.749 179.474 273.749 185.059 C 273.749 190.652 278.278 195.181 283.861 195.181 L 306.402 195.181 C 309.322 200.826 316.402 201.195 316.402 201.195 C 314.035 199.801 313.112 197.282 312.775 195.181 Z " fill="rgb(218,222,234)"/><path d=" M 281.633 185.465 C 281.633 185.175 281.681 184.906 281.778 184.66 C 281.875 184.414 282.011 184.2 282.188 184.02 C 282.364 183.839 282.577 183.697 282.827 183.59 C 283.079 183.485 283.359 183.432 283.666 183.432 C 283.983 183.432 284.267 183.485 284.518 183.59 C 284.769 183.697 284.983 183.839 285.158 184.02 C 285.335 184.2 285.471 184.414 285.568 184.66 C 285.665 184.906 285.714 185.175 285.714 185.465 C 285.714 185.757 285.665 186.025 285.568 186.271 C 285.471 186.518 285.335 186.732 285.158 186.918 C 284.983 187.102 284.769 187.246 284.518 187.347 C 284.267 187.449 283.983 187.499 283.666 187.499 C 283.359 187.499 283.079 187.449 282.827 187.347 C 282.577 187.246 282.364 187.102 282.188 186.918 C 282.011 186.732 281.875 186.518 281.778 186.271 C 281.681 186.025 281.633 185.757 281.633 185.465 Z " fill="rgb(255,255,255)"/><path d=" M 292.973 185.465 C 292.973 185.175 293.022 184.906 293.119 184.66 C 293.216 184.414 293.352 184.2 293.528 184.02 C 293.704 183.839 293.918 183.697 294.169 183.59 C 294.418 183.485 294.699 183.432 295.007 183.432 C 295.324 183.432 295.608 183.485 295.859 183.59 C 296.11 183.697 296.322 183.839 296.499 184.02 C 296.676 184.2 296.811 184.414 296.908 184.66 C 297.006 184.906 297.053 185.175 297.053 185.465 C 297.053 185.757 297.006 186.025 296.908 186.271 C 296.811 186.518 296.676 186.732 296.499 186.918 C 296.322 187.102 296.11 187.246 295.859 187.347 C 295.608 187.449 295.324 187.499 295.007 187.499 C 294.699 187.499 294.418 187.449 294.169 187.347 C 293.918 187.246 293.704 187.102 293.528 186.918 C 293.352 186.732 293.216 186.518 293.119 186.271 C 293.022 186.025 292.973 185.757 292.973 185.465 Z " fill="rgb(255,255,255)"/><path d=" M 304.314 185.465 C 304.314 185.175 304.362 184.906 304.459 184.66 C 304.556 184.414 304.692 184.2 304.869 184.02 C 305.045 183.839 305.258 183.697 305.509 183.59 C 305.76 183.485 306.039 183.432 306.348 183.432 C 306.665 183.432 306.948 183.485 307.2 183.59 C 307.45 183.697 307.664 183.839 307.84 184.02 C 308.015 184.2 308.152 184.414 308.249 184.66 C 308.346 184.906 308.395 185.175 308.395 185.465 C 308.395 185.757 308.346 186.025 308.249 186.271 C 308.152 186.518 308.015 186.732 307.84 186.918 C 307.664 187.102 307.45 187.246 307.2 187.347 C 306.948 187.449 306.665 187.499 306.348 187.499 C 306.039 187.499 305.76 187.449 305.509 187.347 C 305.258 187.246 305.045 187.102 304.869 186.918 C 304.692 186.732 304.556 186.518 304.459 186.271 C 304.362 186.025 304.314 185.757 304.314 185.465 Z " fill="rgb(255,255,255)"/><path d=" M 233.72 297.008 C 224.008 297.008 213.106 296.768 201.336 296.36 C 187.242 295.872 179.008 293.516 179.008 289.16 C 179.008 283.921 204.819 282.623 242.83 282.323 C 265.852 282.886 280.18 284.583 280.18 289.16 C 280.18 294.977 262.004 297.008 233.72 297.008 Z " fill="rgb(218,222,234)"/><path d=" M 259.175 238.901 C 256.634 236.301 253.558 234.235 249.942 232.712 C 246.562 231.29 242.762 230.539 238.553 230.446 C 238.562 230.435 238.367 230.435 238.034 230.434 C 237.91 230.433 237.788 230.427 237.661 230.427 C 237.539 230.427 237.421 230.433 237.3 230.434 C 233.857 230.434 224.543 230.433 224.437 230.435 L 226.332 232.417 C 226.078 232.515 225.822 232.607 225.572 232.712 C 221.954 234.235 218.877 236.301 216.339 238.901 C 213.798 241.501 211.831 244.58 210.436 248.133 C 209.037 251.687 208.343 255.558 208.343 259.744 C 208.343 263.935 209.037 267.805 210.436 271.36 C 211.831 274.911 213.798 278.022 216.339 280.689 C 218.877 283.352 221.954 285.418 225.572 286.874 L 225.648 286.902 L 224.219 289.053 C 224.219 289.053 237.46 289.066 237.661 289.066 C 242.23 289.066 246.324 288.334 249.942 286.874 C 253.558 285.418 256.634 283.352 259.175 280.689 C 261.712 278.022 263.679 274.911 265.076 271.36 C 266.47 267.805 267.171 263.935 267.171 259.744 C 267.171 255.558 266.47 251.687 265.076 248.133 C 263.679 244.58 261.712 241.501 259.175 238.901 Z " fill="rgb(203,115,48)"/><path d=" M 310.006 48.613 C 306.579 39.349 301.659 31.544 295.251 25.195 C 288.84 18.85 281.036 14.029 271.835 10.726 C 262.631 7.427 252.192 5.778 240.516 5.778 C 229.856 5.778 219.986 7.331 210.912 10.44 C 201.837 13.553 193.903 18.278 187.115 24.623 C 180.325 30.972 174.96 39.029 171.028 48.803 C 168.488 55.108 166.742 62.154 165.789 69.937 C 164.906 77.136 170.634 83.45 177.887 83.45 L 200.936 83.45 C 210.055 83.45 218.137 77.584 220.963 68.915 L 221.003 68.793 C 222.335 64.732 224.049 61.366 226.142 58.703 C 228.238 56.036 230.552 54.104 233.093 52.896 C 235.631 51.693 238.105 51.088 240.516 51.088 C 254.225 51.088 261.079 61.686 261.079 82.882 C 261.079 87.452 260.476 91.705 259.269 95.635 C 258.062 99.573 256.415 103.381 254.32 107.058 C 252.227 110.743 249.719 114.388 246.799 118.006 C 243.879 121.624 240.706 125.335 237.28 129.143 C 232.712 133.968 228.871 138.854 225.762 143.802 C 222.65 148.753 220.176 154.084 218.338 159.793 C 216.495 165.507 215.197 171.759 214.436 178.546 C 213.923 183.114 213.583 188.066 213.416 193.405 C 213.277 197.833 216.858 201.489 221.288 201.489 L 246.198 201.489 C 253.957 201.489 260.498 195.703 261.444 188.001 L 261.459 187.878 C 261.965 183.754 262.76 179.88 263.839 176.262 C 264.916 172.647 266.376 169.189 268.218 165.886 C 270.056 162.587 272.373 159.289 275.166 155.986 C 280.241 150.277 285.192 144.66 290.016 139.139 C 294.839 133.62 299.089 127.906 302.772 122.003 C 306.451 116.104 309.436 109.789 311.72 103.062 C 314.003 96.337 315.145 88.849 315.145 80.597 C 315.145 68.54 313.433 57.878 310.006 48.613 Z " fill="rgb(203,115,48)"/><path d=" M 195.882 259.744 C 195.882 255.558 196.577 251.687 197.975 248.133 C 199.37 244.58 201.337 241.5 203.878 238.9 C 206.415 236.3 209.493 234.235 213.112 232.712 C 216.728 231.189 220.757 230.427 225.199 230.427 C 229.768 230.427 233.863 231.189 237.48 232.712 C 241.097 234.235 244.172 236.3 246.714 238.9 C 249.251 241.5 251.218 244.58 252.614 248.133 C 254.01 251.687 254.709 255.558 254.709 259.744 C 254.709 263.935 254.01 267.805 252.614 271.36 C 251.218 274.911 249.251 278.022 246.714 280.689 C 244.172 283.352 241.097 285.418 237.48 286.874 C 233.863 288.334 229.768 289.066 225.199 289.066 C 220.757 289.066 216.728 288.334 213.112 286.874 C 209.493 285.418 206.415 283.352 203.878 280.689 C 201.337 278.022 199.37 274.911 197.975 271.36 C 196.577 267.805 195.882 263.935 195.882 259.744 Z  M 216.537 201.489 C 207.688 201.489 200.742 193.959 201.374 185.132 C 201.537 182.854 201.737 180.659 201.974 178.546 C 202.736 171.759 204.034 165.507 205.877 159.793 C 207.716 154.084 210.19 148.753 213.3 143.802 C 216.41 138.854 220.251 133.968 224.818 129.143 C 228.245 125.335 231.418 121.625 234.338 118.006 C 237.258 114.388 239.765 110.743 241.858 107.058 C 243.953 103.381 245.6 99.573 246.809 95.635 C 248.014 91.705 248.618 87.452 248.618 82.882 C 248.618 61.686 241.763 51.087 228.056 51.087 C 225.643 51.087 223.169 51.693 220.632 52.896 C 218.091 54.104 215.776 56.036 213.682 58.703 C 211.589 61.366 209.874 64.732 208.542 68.793 L 208.502 68.914 C 205.676 77.584 197.592 83.45 188.474 83.45 L 175.479 83.45 C 162.143 83.45 152.22 70.893 155.563 57.984 C 156.396 54.767 157.397 51.707 158.567 48.803 C 162.499 39.029 167.863 30.972 174.654 24.623 C 181.442 18.278 189.375 13.553 198.451 10.44 C 207.524 7.331 217.395 5.778 228.056 5.778 C 239.731 5.778 250.17 7.427 259.374 10.726 C 268.575 14.029 276.38 18.85 282.79 25.195 C 289.199 31.544 294.118 39.349 297.544 48.613 C 300.971 57.878 302.685 68.54 302.685 80.598 C 302.685 88.849 301.542 96.337 299.26 103.062 C 296.975 109.789 293.989 116.104 290.31 122.003 C 286.627 127.906 282.377 133.62 277.555 139.139 C 272.73 144.66 267.71 150.215 262.706 155.986 C 259.873 159.254 257.594 162.587 255.757 165.886 C 253.915 169.189 252.455 172.647 251.377 176.262 C 250.298 179.88 249.503 183.754 248.997 187.878 L 248.984 188.001 C 248.045 195.676 241.609 201.489 233.877 201.489 L 216.537 201.489 Z " fill="rgb(245,137,61)"/><path d=" M 236.495 240.828 C 235.849 240.474 235.009 241.209 235.444 241.879 C 239.657 248.401 243.351 254.252 241.228 262.392 C 239.357 269.566 233.983 273.071 228.487 277.329 C 227.818 277.848 228.578 278.711 229.226 278.599 C 245.432 275.85 251.571 249.116 236.495 240.828 Z " fill="rgb(203,115,48)"/><path d=" M 224.757 18.726 C 200.199 14.02 175.17 29.001 167.032 52.459 C 166.671 53.499 168.37 54.239 168.831 53.218 C 178.925 30.875 200.157 19.06 224.436 21.1 C 225.783 21.214 226.096 18.983 224.757 18.726 Z " fill="rgb(203,115,48)"/><path d=" M 139.129 370.883 C 132.539 370.883 125.14 370.713 117.152 370.42 C 107.586 370.072 101.999 368.386 101.999 365.271 C 101.999 361.522 119.516 360.594 145.312 360.38 C 160.936 360.783 170.661 361.997 170.661 365.271 C 170.661 369.431 158.324 370.883 139.129 370.883 Z " fill="rgb(218,222,234)"/><path d=" M 152.809 365.676 C 151.282 365.37 149.743 364.497 148.675 363.657 C 148.008 363.134 147.464 362.644 147.373 362.265 C 147.102 361.138 147.135 357.838 147.181 355.57 C 147.629 333.535 152.647 311.759 150.536 289.657 C 150.06 284.689 149.354 279.62 147.047 275.193 C 146.802 274.724 146.528 274.248 146.099 273.939 C 145.429 273.458 144.521 273.477 143.714 273.646 C 140.809 274.253 138.44 276.522 137.143 279.192 C 135.847 281.863 135.5 284.898 135.507 287.867 C 135.518 292.037 136.195 296.206 137.504 300.166 C 138.175 302.192 139.016 304.193 139.225 306.317 C 139.458 308.705 138.612 310.569 138.255 312.824 C 137.727 316.152 138.035 319.909 138.063 323.276 C 138.167 335.535 140.714 347.281 142.977 359.241 C 143.052 359.941 143.13 360.96 143.15 362.324 C 143.163 362.986 143.16 363.735 143.133 364.562 C 143.113 365.334 151.478 367.514 152.796 366.897 C 154.106 366.281 152.809 365.676 152.809 365.676 Z " fill="rgb(126,104,89)"/><path d=" M 143.133 364.562 C 143.113 365.334 151.478 367.514 152.796 366.897 C 154.106 366.281 152.809 365.676 152.809 365.676 C 151.282 365.37 149.742 364.497 148.675 363.657 C 148.423 363.688 145.882 363.692 143.15 362.324 C 143.163 362.987 143.16 363.735 143.133 364.562 Z " fill="rgb(1,25,72)"/><path d=" M 129.153 365.746 C 127.705 365.17 126.346 364.036 125.446 363.017 C 124.883 362.384 124.437 361.806 124.415 361.415 C 124.35 360.257 124.974 357.018 125.425 354.796 C 129.815 333.196 138.654 312.672 140.536 290.549 C 140.959 285.576 141.172 280.462 139.696 275.695 C 139.539 275.189 139.354 274.671 138.987 274.291 C 138.414 273.697 137.518 273.554 136.694 273.574 C 133.726 273.652 130.989 275.459 129.235 277.854 C 127.482 280.248 126.596 283.172 126.072 286.094 C 125.335 290.2 125.254 294.423 125.833 298.553 C 126.13 300.667 126.599 302.785 126.423 304.913 C 126.225 307.304 125.059 308.986 124.303 311.14 C 123.186 314.321 122.817 318.071 122.242 321.389 C 120.147 333.468 120.549 345.48 120.631 357.652 C 120.581 358.355 120.474 359.371 120.25 360.717 C 120.144 361.371 120.006 362.107 119.831 362.915 C 119.674 363.672 127.513 367.315 128.921 366.944 C 130.32 366.572 129.153 365.746 129.153 365.746 Z " fill="rgb(126,104,89)"/><path d=" M 119.831 362.915 C 119.674 363.672 127.513 367.315 128.921 366.944 C 130.32 366.572 129.153 365.746 129.153 365.746 C 127.705 365.17 126.346 364.036 125.446 363.017 C 125.193 363.003 122.692 362.552 120.25 360.717 C 120.144 361.371 120.006 362.107 119.831 362.915 Z " fill="rgb(1,25,72)"/><path d=" M 151.522 243.139 C 150.893 245.223 152.139 255.689 152.139 255.689 C 152.139 255.689 140.606 259.695 133.026 254.885 C 133.026 254.885 131.154 240.62 128.966 234.968 L 129.233 225.151 C 129.233 225.151 133.872 224.251 135.305 222.547 L 135.423 222.403 C 136.189 221.339 136.155 218.149 135.999 215.718 C 135.892 214.033 135.724 212.71 135.724 212.71 C 135.724 212.71 143.8 215.582 143.926 217.026 C 143.926 217.026 143.316 222.714 145.103 222.909 C 145.404 222.942 145.721 222.849 146.03 222.822 C 147.623 222.715 149.178 222.715 149.178 222.715 C 149.178 222.715 152.409 230.696 154.879 233.87 C 157.353 237.049 152.143 241.051 151.522 243.139 Z " fill="rgb(126,104,89)"/><path d=" M 153.855 315.007 C 149.937 313.349 144.439 312.127 140.194 312.912 C 137.139 313.491 134.259 315.378 131.183 314.942 C 128.859 314.614 126.884 313.032 124.724 312.268 C 122.225 311.396 119.683 311.002 117.108 311.766 C 116.072 312.072 114.555 312.29 114.293 311.242 C 114.196 310.871 114.338 310.49 114.49 310.14 C 117.131 303.682 120.927 297.659 122.629 290.895 C 122.858 289.99 123.054 289.083 123.207 288.168 C 124.397 281.348 123.916 274.302 125.335 267.504 C 126.109 263.783 127.888 261.35 129.481 258.131 C 131.118 254.814 130.964 250.353 131.237 246.752 C 131.347 245.147 131.237 243.676 130.91 242.104 C 130.528 240.216 128.902 237.522 128.946 235.688 C 128.99 234.184 129.175 227.07 129.186 226.666 C 129.208 226.087 129.24 226.066 129.721 225.793 C 130.691 225.248 131.422 224.343 132.405 223.785 C 133.245 223.305 134.205 223.055 135.165 223.055 C 135.961 224.015 137.139 224.615 138.361 224.833 C 139.441 225.018 142.322 224.919 144.592 222.989 C 144.897 222.728 145.356 222.738 145.736 222.65 C 146.131 222.553 146.523 222.465 146.915 222.378 C 147.297 222.28 147.701 222.193 148.072 222.313 C 149.076 222.64 149.174 224.058 149.73 224.8 C 150.428 225.727 150.767 226.972 151.236 228.029 C 152.229 230.321 153.331 232.601 154.879 234.586 C 155.872 235.864 155.819 237.008 155.36 238.057 C 154.672 239.638 153.07 241.002 152.698 242.246 C 152.25 243.763 152.044 245.344 151.977 246.948 C 151.837 250.549 152.447 254.28 152.775 257.738 C 153.254 262.746 153.8 267.744 154.401 272.729 C 154.956 277.323 154.859 282.046 155.622 286.607 C 156.374 294.452 155.698 303.038 158.022 310.622 C 159.212 314.484 157.498 316.545 153.855 315.007 Z " fill="rgb(162,214,105)"/><path d=" M 182.513 229.45 C 182.513 229.45 184.437 227.794 186.367 226.15 C 187.533 225.158 190.353 223.308 190.746 222.256 C 190.746 222.256 190.769 222.042 190.736 221.718 L 190.714 221.572 C 190.665 221.285 190.566 220.934 190.347 220.579 L 190.297 220.495 C 190.138 220.245 189.921 219.99 189.627 219.77 L 189.551 219.715 C 189.324 219.546 189.057 219.389 188.736 219.252 C 188.736 219.252 186.158 221.501 185.076 221.9 C 185.076 221.9 186.262 220.155 185.962 219.566 L 185.577 219.329 C 185.577 219.329 184.085 221.061 183.35 221.771 C 181.562 223.5 181.347 226.009 181.347 226.009 C 181.347 226.009 180.755 229.795 182.513 229.45 Z " fill="rgb(126,104,89)"/><path d=" M 189.627 219.77 L 189.551 219.715 C 188.48 220.813 187.257 221.705 186.036 222.661 L 186.063 222.71 C 187.478 222.03 188.622 220.956 189.627 219.77 Z " fill="rgb(224,133,92)"/><path d=" M 190.347 220.579 L 190.297 220.495 C 189.223 221.595 188.003 222.485 186.784 223.444 L 186.809 223.49 C 188.213 222.817 189.35 221.755 190.347 220.579 Z " fill="rgb(224,133,92)"/><path d=" M 190.736 221.718 L 190.714 221.572 C 189.688 222.596 188.531 223.442 187.379 224.349 L 187.404 224.393 C 188.731 223.803 189.79 222.799 190.736 221.718 Z " fill="rgb(224,133,92)"/><path d=" M 148.661 211.065 C 148.656 211.304 148.65 211.533 148.628 211.752 C 148.389 215.329 146.915 216.792 143.905 217.217 L 143.795 217.239 C 143.228 217.315 142.508 217.327 141.711 217.207 C 139.736 216.901 137.358 215.788 136.038 212.831 C 135.733 212.144 135.481 211.36 135.307 210.453 C 134.696 207.279 134.532 204.594 135.154 202.893 C 136.441 199.324 143.151 195.244 146.72 199.565 C 146.883 199.772 147.046 200.132 147.21 200.602 C 147.635 201.878 148.018 203.939 148.257 205.654 C 148.356 206.318 148.432 206.929 148.487 207.431 C 148.563 208.195 148.618 208.914 148.65 209.57 C 148.672 210.105 148.672 210.595 148.661 211.065 Z " fill="rgb(126,104,89)"/><path d=" M 119.08 240.151 C 118.931 237.722 120.2 235.47 121.127 233.221 C 122.055 230.972 122.609 228.218 121.191 226.241 C 120.661 225.5 119.89 224.932 119.491 224.113 C 118.898 222.893 119.285 221.398 120.011 220.253 C 120.737 219.106 121.766 218.188 122.603 217.118 C 124.134 215.16 124.992 212.684 125 210.197 C 125.007 208.17 124.543 205.881 125.834 204.319 C 126.633 203.354 127.921 202.94 128.84 202.089 C 130.124 200.901 130.538 199.181 131.723 197.908 C 132.871 196.677 134.364 195.774 135.97 195.281 C 138.428 194.526 141.117 194.693 143.565 195.48 C 145.663 196.155 146.91 197.277 147.327 199.438 C 147.666 201.196 145.983 201.237 145.766 202.729 C 145.682 203.298 145.772 203.866 145.67 204.427 C 145.554 205.064 145.237 205.654 144.926 206.214 C 144.822 206.399 144.714 206.591 144.543 206.717 C 144.103 207.043 143.484 206.807 142.938 206.849 C 142.014 206.919 141.35 207.812 141.126 208.71 C 140.893 209.644 141.012 210.66 141.438 211.522 C 141.882 212.418 142.743 212.789 142.778 213.913 C 142.794 214.435 142.639 214.946 142.46 215.437 C 141.932 216.881 141.193 218.234 140.569 219.637 C 139.944 221.04 139.557 222.442 139.368 223.964 C 139.057 226.481 139.35 229.022 139.47 231.542 C 139.59 234.061 139.555 236.671 138.543 239.029 C 137.697 240.998 136.238 242.634 134.759 244.185 C 133.787 245.205 132.737 246.24 131.392 246.659 C 129.247 247.327 126.05 247.077 123.939 246.347 C 121.404 245.472 119.247 242.839 119.08 240.151 Z " fill="rgb(1,25,72)"/><path d=" M 147.871 204.44 C 147.871 204.44 148.236 206.358 149.672 207.854 C 150.856 209.088 147.268 210.073 147.268 210.073 C 147.268 210.073 147.302 205.118 147.871 204.44 Z " fill="rgb(88,73,64)"/><path d=" M 143.347 209.235 C 143.128 208.922 142.857 208.499 142.463 208.414 L 142.25 208.502 L 142.204 208.572 L 142.245 208.73 C 142.588 208.876 142.795 209.148 142.96 209.457 C 142.75 209.593 142.581 209.74 142.475 209.972 C 142.372 210.193 142.637 210.438 142.829 210.245 C 142.951 210.122 143.05 210.026 143.191 209.935 C 143.313 210.204 143.438 210.469 143.619 210.675 C 143.723 210.793 143.89 210.688 143.903 210.557 C 143.945 210.099 143.602 209.596 143.347 209.235 Z " fill="rgb(88,73,64)"/><path d=" M 148.661 211.065 C 148.661 211.304 148.65 211.533 148.628 211.752 C 148.126 211.828 147.679 211.992 147.231 212.254 C 147.046 212.363 146.862 212.144 146.948 211.97 C 147.21 211.445 147.919 211.152 148.661 211.065 Z " fill="rgb(88,73,64)"/><path d=" M 155.36 238.057 C 154.672 239.638 153.07 241.002 152.698 242.246 C 152.25 243.763 152.044 245.344 151.977 246.948 C 146.435 239.158 148.595 234.663 148.595 234.663 C 149.937 235.1 152.829 236.639 155.36 238.057 Z " fill="rgb(125,194,84)"/><path d=" M 145.867 230.254 C 145.867 230.254 143.55 221.27 150.414 222.915 C 157.067 224.51 160.485 239.703 166.937 240.04 C 167.858 240.087 182.948 224.244 182.948 224.244 L 185.47 226.43 C 185.47 226.43 173.519 245.564 168.506 246.979 C 163.847 248.295 153.673 243.639 145.867 230.254 Z " fill="rgb(126,104,89)"/><path d=" M 146.256 222.528 C 146.256 222.528 149.207 221.448 152.565 222.984 C 155.922 224.52 155.97 225.205 158.986 225.057 C 158.986 225.057 150.291 236.201 144.647 235.763 C 144.647 235.763 142.554 227.776 146.256 222.528 Z " fill="rgb(162,214,105)"/><path d=" M 146.91 258.052 C 141.549 258.496 136.942 259.099 132.054 256.324 C 131.755 256.155 131.375 256.502 131.57 256.808 C 134.309 261.112 143.1 260.657 147.144 258.918 C 147.566 258.736 147.354 258.015 146.91 258.052 Z " fill="rgb(125,194,84)"/><path d=" M 153.763 310.812 C 148.358 308.422 142.248 308.232 136.537 309.534 C 134.343 310.035 132.253 310.614 129.995 310.038 C 128.535 309.665 127.199 308.924 125.789 308.404 C 123.167 307.437 120.449 307.207 117.712 307.759 C 117.239 307.855 117.337 308.663 117.828 308.613 C 121.358 308.257 124.205 308.934 127.465 310.264 C 129.614 311.14 131.512 311.592 133.831 311.24 C 137.094 310.746 140.155 309.799 143.501 309.82 C 146.925 309.842 150.185 310.596 153.451 311.552 C 153.879 311.677 154.191 311 153.763 310.812 Z " fill="rgb(125,194,84)"/></g><path d=" M 137.684 181.046 C 132.294 177.748 129 173.351 129 168.519 C 129 158.291 143.744 150 161.932 150 C 180.119 150 194.862 158.291 194.862 168.519 C 194.862 178.747 180.119 187.038 161.932 187.038 C 156.024 187.038 150.484 186.158 145.69 184.626 C 141.543 191.649 132.517 192.13 132.517 192.13 C 136.956 189.514 137.646 183.961 137.684 181.046 Z " fill="rgb(218,222,234)"/><path d=" M 177.987 168.977 C 177.987 168.628 177.93 168.306 177.813 168.01 C 177.697 167.714 177.533 167.458 177.322 167.242 C 177.111 167.025 176.854 166.853 176.554 166.727 C 176.252 166.6 175.917 166.536 175.547 166.536 C 175.167 166.536 174.826 166.6 174.525 166.727 C 174.224 166.853 173.968 167.025 173.757 167.242 C 173.545 167.458 173.382 167.714 173.266 168.01 C 173.149 168.306 173.091 168.628 173.091 168.977 C 173.091 169.325 173.149 169.647 173.266 169.943 C 173.382 170.239 173.545 170.498 173.757 170.719 C 173.968 170.941 174.224 171.113 174.525 171.234 C 174.826 171.356 175.167 171.416 175.547 171.416 C 175.917 171.416 176.252 171.356 176.554 171.234 C 176.854 171.113 177.111 170.941 177.322 170.719 C 177.533 170.498 177.697 170.239 177.813 169.943 C 177.93 169.647 177.987 169.325 177.987 168.977 Z " fill="rgb(255,255,255)"/><path d=" M 164.379 168.977 C 164.379 168.628 164.322 168.306 164.205 168.01 C 164.089 167.714 163.925 167.458 163.714 167.242 C 163.503 167.025 163.246 166.853 162.946 166.727 C 162.644 166.6 162.309 166.536 161.939 166.536 C 161.559 166.536 161.218 166.6 160.917 166.727 C 160.616 166.853 160.36 167.025 160.149 167.242 C 159.937 167.458 159.774 167.714 159.658 168.01 C 159.541 168.306 159.483 168.628 159.483 168.977 C 159.483 169.325 159.541 169.647 159.658 169.943 C 159.774 170.239 159.937 170.498 160.149 170.719 C 160.36 170.941 160.616 171.113 160.917 171.234 C 161.218 171.356 161.559 171.416 161.939 171.416 C 162.309 171.416 162.644 171.356 162.946 171.234 C 163.246 171.113 163.503 170.941 163.714 170.719 C 163.925 170.498 164.089 170.239 164.205 169.943 C 164.322 169.647 164.379 169.325 164.379 168.977 Z " fill="rgb(255,255,255)"/><path d=" M 150.771 168.977 C 150.771 168.628 150.714 168.306 150.598 168.01 C 150.481 167.714 150.318 167.458 150.106 167.242 C 149.895 167.025 149.639 166.853 149.338 166.727 C 149.037 166.6 148.702 166.536 148.331 166.536 C 147.951 166.536 147.61 166.6 147.309 166.727 C 147.009 166.853 146.752 167.025 146.541 167.242 C 146.33 167.458 146.166 167.714 146.05 168.01 C 145.934 168.306 145.875 168.628 145.875 168.977 C 145.875 169.325 145.934 169.647 146.05 169.943 C 146.166 170.239 146.33 170.498 146.541 170.719 C 146.752 170.941 147.009 171.113 147.309 171.234 C 147.61 171.356 147.951 171.416 148.331 171.416 C 148.702 171.416 149.037 171.356 149.338 171.234 C 149.639 171.113 149.895 170.941 150.106 170.719 C 150.318 170.498 150.481 170.239 150.598 169.943 C 150.714 169.647 150.771 169.325 150.771 168.977 Z " fill="rgb(255,255,255)"/></g></svg>